<?xml version="1.0" encoding="UTF-8"?>
<svg width="32px" height="32px" viewBox="0 0 32 32" version="1.1" xmlns="http://www.w3.org/2000/svg" xmlns:xlink="http://www.w3.org/1999/xlink">
    <title>ada</title>
    <g id="Dapp" stroke="none" stroke-width="1" fill="none" fill-rule="evenodd">
        <g id="Coin" transform="translate(-55.000000, -36.000000)">
            <g id="ada" transform="translate(55.000000, 36.000000)">
                <rect id="矩形" fill="#FFFFFF" x="0" y="0" width="32" height="32" rx="16"></rect>
                <path d="M17.0929552,11.3819074 C16.3077959,11.8288893 16.0338362,12.8275806 16.4810758,13.612498 C16.9283153,14.3972954 17.9273145,14.6710508 18.7123537,14.2240689 C19.497513,13.7769671 19.7714728,12.7782758 19.3243532,11.9933584 C18.8771136,11.208561 17.8779945,10.9346856 17.0929552,11.3817874 M15.5231166,8.60476579 C14.9682371,8.92086808 14.7744373,9.62684988 15.090757,10.1816784 C15.4067167,10.7365069 16.1131561,10.9301271 16.6680356,10.6140248 C17.2231551,10.2979225 17.4167149,9.59194067 17.1006352,9.03711217 C16.7844355,8.48228367 16.0782361,8.28854354 15.5232366,8.60476579 M15.5231166,21.506418 C14.9682371,21.8225203 14.7744373,22.5285021 15.090757,23.0833306 C15.4067167,23.6382791 16.1131561,23.8318992 16.6680356,23.515677 C17.2231551,23.1996946 17.4167149,22.4935929 17.1006352,21.9387644 C16.7844355,21.3839359 16.0782361,21.1904357 15.5232366,21.506418 M21.0869116,11.7982987 C20.5319121,12.114401 20.3382323,12.8203828 20.654432,13.3752113 C20.8062362,13.6416784 21.0577209,13.8369358 21.3535494,13.9180189 C21.6493779,13.999102 21.965311,13.9593672 22.2318305,13.8075577 C22.78683,13.4915753 22.9806299,12.7854736 22.6643101,12.2306451 C22.3481104,11.6758166 21.6419111,11.4823164 21.0869116,11.7982987 M9.84460179,18.2586619 C9.28960231,18.5748841 9.09592247,19.280746 9.41212218,19.8355745 C9.72832188,20.3905229 10.4345212,20.5841431 10.9895208,20.2679208 C11.5445202,19.9519385 11.7383201,19.2458367 11.4220004,18.6910082 C11.1058006,18.1362997 10.3996013,17.9427995 9.84460179,18.2587818 M9.76816185,11.7982987 C9.21316236,12.114401 9.01948253,12.8203828 9.33568226,13.3752113 C9.48748645,13.6416784 9.73897122,13.8369358 10.0347997,13.9180189 C10.3306282,13.999102 10.6465613,13.9593672 10.9130808,13.8075577 C11.4680803,13.4915753 11.6617601,12.7854736 11.3455604,12.2306451 C11.0293607,11.6758165 10.3231614,11.4823164 9.76816185,11.7982987 M21.0869116,18.1822455 C20.5319121,18.4983478 20.3382323,19.2043296 20.654432,19.7591581 C20.9706317,20.3139866 21.676831,20.5077267 22.2318305,20.1915044 C22.78683,19.8754022 22.9806299,19.1694204 22.6643101,18.6145919 C22.3481104,18.0597634 21.6419111,17.8661432 21.0869116,18.1822455 M24.0149089,15.2264791 C23.7294897,15.3890418 23.5525044,15.6914785 23.5506065,16.019864 C23.5487389,16.3482495 23.7222447,16.6526944 24.0057812,16.8185171 C24.2893177,16.9843399 24.6398089,16.9863481 24.9252281,16.8237854 C25.366448,16.5724851 25.5203455,16.0111968 25.2689678,15.5701129 C25.0175901,15.1290289 24.4561288,14.9751788 24.0149089,15.2264791 M7.07500431,15.2264791 C6.86310021,15.3471203 6.707825,15.5469848 6.64334762,15.7820916 C6.57887024,16.0171985 6.61047409,16.2682825 6.73120463,16.4800916 C6.91527481,16.8031215 7.27586928,16.9834962 7.64484244,16.9371068 C8.0138156,16.8907173 8.31850399,16.6266994 8.41683108,16.2681648 C8.51515818,15.9096302 8.38775999,15.5271868 8.09404245,15.2991682 C7.8003249,15.0711497 7.39813105,15.0424608 7.07500431,15.2264791 M19.4078731,8.72928731 C19.3985285,9.23685684 19.8025463,9.65589624 20.3102723,9.66523801 C20.8179983,9.67457978 21.2371668,9.27068638 21.2465114,8.76311685 C21.2558561,8.25554732 20.8518382,7.83650791 20.3441123,7.82716615 C19.8363863,7.81782438 19.4172178,8.22171778 19.4078731,8.72928731 M10.753601,23.2872676 C10.747556,23.6156075 10.9171915,23.92223 11.1986074,24.0916334 C11.4800233,24.2610369 11.8304658,24.2674847 12.1179266,24.1085482 C12.4053874,23.9496117 12.5861944,23.649437 12.5922393,23.3210971 C12.6015839,22.8135276 12.1975661,22.3944882 11.6898401,22.3851464 C11.1821142,22.3758047 10.7629456,22.779698 10.753601,23.2872676 M11.2616805,9.51372485 C11.583782,9.69955259 11.9861431,9.67310567 12.2811331,9.44671692 C12.5761231,9.22032817 12.7056449,8.83858403 12.6092993,8.47950099 C12.5129537,8.12041796 12.2097156,7.85471613 11.8409923,7.80629866 C11.472269,7.75788119 11.1106791,7.93628374 10.9248408,8.25831289 C10.6711167,8.69797758 10.8219171,9.26001522 11.2616805,9.51372485 M19.8192327,24.1288075 C20.0304447,24.2506515 20.2814239,24.2836254 20.5169556,24.2204748 C20.7524873,24.1573242 20.953277,24.0032225 21.0751516,23.7920715 C21.19707,23.5809649 21.2300872,23.3300812 21.1669368,23.0946339 C21.1037864,22.8591866 20.9496437,22.6584709 20.7384319,22.5366596 C20.2988562,22.2852561 19.7386836,22.4365369 19.4855339,22.8750185 C19.2323841,23.3135 19.3815814,23.874071 19.8192327,24.1288075 M18.9666335,14.6534162 C18.1815942,15.100518 17.9076345,16.0992093 18.3548741,16.8840068 C18.8021136,17.6689241 19.8011128,17.9426795 20.586272,17.4955777 C21.3713113,17.0484759 21.6451511,16.0500245 21.1980315,15.2649872 C20.7507919,14.4801898 19.7516728,14.2063144 18.9666335,14.6534162 M17.0929552,17.925045 C16.3077959,18.3721468 16.0338362,19.3708381 16.4810758,20.1556355 C16.9283153,20.9405529 17.9273145,21.2143083 18.7123537,20.7672065 C19.497513,20.3202246 19.7714728,19.3215333 19.3243532,18.5366159 C18.8771136,17.7518185 17.8779945,17.4779432 17.0929552,17.925045 M14.9077572,11.3819074 C15.6926765,11.8288893 15.9666362,12.8275806 15.5195166,13.612498 C15.0722771,14.3972954 14.073158,14.6710508 13.2881187,14.2240689 C12.5029594,13.7769671 12.2291196,12.7782758 12.6763592,11.9933584 C13.1235988,11.208561 14.1225979,10.9346856 14.9076372,11.3817874 M13.0339589,14.6534162 C13.8189982,15.100518 14.0929579,16.0992093 13.6457183,16.8840068 C13.1985987,17.6689241 12.1994796,17.9426795 11.4144404,17.4955777 C10.6292811,17.0484759 10.3554413,16.0500245 10.8026809,15.2649872 C11.2498005,14.4801898 12.2489196,14.2063144 13.0339589,14.6534162 M14.9077572,17.925045 C15.6926765,18.3721468 15.9666362,19.3708381 15.5195166,20.1556355 C15.0722771,20.9405529 14.073158,21.2143083 13.2881187,20.7672065 C12.5029594,20.3202246 12.2291196,19.3215333 12.6763592,18.5366159 C13.1235988,17.7518185 14.1225979,17.4779432 14.9076372,17.925045 M16.7093156,5.72637548 C16.7093156,6.12754159 16.384006,6.45275097 15.9827162,6.45275097 C15.5814265,6.45275097 15.2561169,6.12754159 15.2561169,5.72637548 C15.2561169,5.32520938 15.5814265,5 15.9827162,5 C16.384006,5 16.7093156,5.32520938 16.7093156,5.72637548 M16.7093156,26.2736245 C16.7093156,26.6747906 16.384006,27 15.9827162,27 C15.5814265,27 15.2561169,26.6747906 15.2561169,26.2736245 C15.2561169,25.8724584 15.5814265,25.547249 15.9827162,25.547249 C16.384006,25.547249 16.7093156,25.8724584 16.7093156,26.2736245 M7.414244,10.2814875 C7.64149079,10.4091444 7.78292225,10.6487121 7.7848751,10.9092917 C7.78682796,11.1698714 7.64900294,11.4115307 7.42369494,11.5425769 C7.19838695,11.6736232 6.92012299,11.6739745 6.69448466,11.5434975 C6.34864994,11.343516 6.22919947,10.9019249 6.42708449,10.5549578 C6.6249695,10.2079906 7.06594402,10.0858286 7.414244,10.2814875 M25.2708278,20.4563826 C25.4980746,20.5840394 25.639506,20.8236071 25.6414589,21.0841868 C25.6434117,21.3447664 25.5055867,21.5864257 25.2802787,21.717472 C25.0549707,21.8485183 24.7767068,21.8488695 24.5510684,21.7183925 C24.2052337,21.518411 24.0857833,21.07682 24.2836683,20.7298528 C24.4815533,20.3828856 24.9225278,20.2607236 25.2708278,20.4563826 M6.69256466,20.451704 C6.91846991,20.3182632 7.19879374,20.31695 7.42594001,20.4482685 C7.65308628,20.5795871 7.79176328,20.8231344 7.78874289,21.0854302 C7.7857225,21.347726 7.64147401,21.5880174 7.41136401,21.7140738 C7.06347133,21.9046527 6.62697663,21.7810583 6.43072945,21.4364051 C6.23448228,21.0917519 6.35102894,20.6534471 6.69256466,20.451704 M24.5540684,10.2858062 C24.7799193,10.153214 25.059674,10.1523974 25.2862956,10.2836688 C25.5129172,10.4149403 25.6513292,10.6579816 25.6485738,10.9198027 C25.6458183,11.1816239 25.5023219,11.4217001 25.2729878,11.548176 C24.9250951,11.7387549 24.4886004,11.6151605 24.2923532,11.2705073 C24.096106,10.9258541 24.2126527,10.4875493 24.5541884,10.2858062 M10.8016009,6.1851137 C10.8016009,6.51253945 10.5360881,6.77797046 10.2085615,6.77797046 C9.88103481,6.77797046 9.615522,6.51253945 9.615522,6.1851137 C9.615522,5.85768796 9.88103481,5.59225695 10.2085615,5.59225695 C10.5360881,5.59225695 10.8016009,5.85768796 10.8016009,6.1851137 M22.3843504,25.8339604 C22.3843504,26.161353 22.1188644,26.4267572 21.7913709,26.4267572 C21.4638774,26.4267572 21.1983915,26.161353 21.1983915,25.8339604 C21.2030033,25.5098559 21.4671337,25.2495362 21.7913709,25.2495362 C22.1156082,25.2495362 22.3797386,25.5098559 22.3843504,25.8339604 M22.0555507,6.68871804 C21.8704516,6.79179303 21.6444061,6.78831946 21.4625635,6.67960579 C21.2807208,6.57089212 21.1707072,6.37345454 21.1739637,6.16166588 C21.1772202,5.94987722 21.2932521,5.75591321 21.4783512,5.65283822 C21.7644897,5.49349809 22.1256613,5.59621699 22.2850505,5.8822673 C22.4444397,6.16831761 22.3416892,6.52937791 22.0555507,6.68871804 M10.5216412,26.3661159 C10.2355027,26.5254561 9.87433114,26.4227372 9.71494191,26.1366868 C9.55555267,25.8506365 9.65830322,25.4895762 9.94444169,25.3302361 C10.2306133,25.170896 10.5918117,25.2736418 10.7512009,25.5597252 C10.9105902,25.8458086 10.8078128,26.2068957 10.5216412,26.3662359 M27.1073061,16.4905284 C26.8247133,16.3250929 26.7297799,15.9619648 26.8952663,15.6794591 C27.0607528,15.3969533 27.4239928,15.3020491 27.7065856,15.4674846 C27.9891783,15.6329201 28.0841118,15.9960482 27.9186253,16.2785539 C27.7531389,16.5610596 27.3898989,16.6559638 27.1073061,16.4905284 M4.29340683,16.5515895 C4.01078089,16.3860878 3.9158743,16.0228791 4.08142703,15.7403403 C4.24697976,15.4578014 4.61030035,15.362924 4.89292629,15.5284258 C5.17558536,15.6939275 5.27051881,16.057163 5.10496608,16.339735 C4.93941336,16.622307 4.57606591,16.7172112 4.29340683,16.5517095" id="形状" fill="#3E52A4" fill-rule="nonzero"></path>
            </g>
        </g>
    </g>
</svg>