<?xml version="1.0" encoding="UTF-8"?>
<svg width="24px" height="24px" viewBox="0 0 24 24" version="1.1" xmlns="http://www.w3.org/2000/svg" xmlns:xlink="http://www.w3.org/1999/xlink">
    <title>编组 24</title>
    <g id="页面-1" stroke="none" stroke-width="1" fill="none" fill-rule="evenodd" opacity="0.5">
        <g id="12.9″-iPad-Pro备份-3" transform="translate(-931.000000, -603.000000)">
            <g id="编组-31" transform="translate(865.000000, 588.000000)">
                <g id="编组-24" transform="translate(66.000000, 15.000000)">
                    <rect id="矩形" x="0" y="0" width="24" height="24"></rect>
                    <path d="M12,0 C9.390625,0 6.8496095,0.8632815 5.125,2.796875 C3.4277345,4.6972655 2.5839845,7.605469 3.140625,11.53125 C2.4433595,12.2597655 2,13.3007815 2,14.5 C2,15.482422 2.453125,16.357422 3.046875,17.046875 C3.574219,17.6601565 4.216797,18.109375 4.84375,18.390625 C5.466797,20.3183595 6.808594,21.7226565 8.1875,22.625 C9.6171875,23.560547 11.046875,24 12,24 C12.9472655,24 14.373047,23.5703125 15.796875,22.640625 C17.1660155,21.746094 18.4921875,20.34375 19.140625,18.40625 C19.839844,18.1171875 20.5,17.6328125 21.015625,17 C21.589844,16.294922 22,15.4257815 22,14.5 C22,13.294922 21.5410155,12.263672 20.8125,11.515625 C21.341797,7.5996095 20.5039065,4.6953125 18.828125,2.796875 C17.123047,0.8632815 14.609375,0 12,0 Z M12,1 C14.390625,1 16.595703,1.7890625 18.078125,3.46875 C19.560547,5.1484375 20.373047,7.7539065 19.8125,11.578125 L19.765625,11.84375 L19.96875,12.03125 C20.6015625,12.580078 21,13.4257815 21,14.5 C21,15.125 20.7128905,15.8066405 20.25,16.375 C19.7871095,16.9433595 19.154297,17.390625 18.59375,17.578125 L18.34375,17.65625 L18.265625,17.90625 C17.730469,19.6953125 16.5253905,20.964844 15.25,21.796875 C13.9746095,22.6289065 12.6035155,23 12,23 C11.402344,23 10.017578,22.621094 8.734375,21.78125 C7.451172,20.9414065 6.2441405,19.6660155 5.734375,17.90625 L5.65625,17.671875 L5.421875,17.578125 C4.921875,17.390625 4.279297,16.966797 3.796875,16.40625 C3.314453,15.845703 3,15.167969 3,14.5 C3,13.4257815 3.40625,12.511719 3.96875,12.03125 L4.1875,11.84375 L4.140625,11.578125 C3.5566405,7.7558595 4.375,5.1484375 5.875,3.46875 C7.375,1.7890625 9.609375,1 12,1 Z M15.859375,8.3125 L15.578125,8.734375 L11.515625,15.03125 L8.828125,12.625 L8.46875,12.296875 L7.796875,13.03125 L8.171875,13.375 L11.265625,16.171875 L11.703125,16.5625 L12.015625,16.078125 L16.421875,9.265625 L16.6875,8.859375 L15.859375,8.3125 Z" id="形状" fill="#FFFFFF" fill-rule="nonzero"></path>
                </g>
            </g>
        </g>
    </g>
</svg>