<?xml version="1.0" encoding="UTF-8"?>
<svg width="24px" height="24px" viewBox="0 0 24 24" version="1.1" xmlns="http://www.w3.org/2000/svg" xmlns:xlink="http://www.w3.org/1999/xlink">
    <title>编组 29</title>
    <g id="页面-1" stroke="none" stroke-width="1" fill="none" fill-rule="evenodd">
        <g id="12.9″-iPad-Pro备份-3" transform="translate(-301.000000, -154.000000)">
            <g id="编组-29" transform="translate(301.000000, 154.000000)">
                <rect id="矩形备份" x="0" y="0" width="24" height="24"></rect>
                <path d="M11.9183655,1.00289068 C11.8909262,1.00789034 11.8634876,1.01538888 11.8385426,1.02288805 C11.541701,1.09037934 11.3321658,1.35784436 11.3396494,1.66280396 L11.3396494,20.5603206 L5.47266551,14.6810932 C5.35293114,14.5536098 5.18829671,14.483619 5.01368377,14.4811195 C4.75425932,14.483619 4.52227414,14.6410985 4.42498981,14.8835664 C4.33020043,15.1235349 4.38757266,15.4009986 4.57465777,15.5809749 L11.5192509,22.5600578 L11.9782327,23 L12.4372144,22.5600578 L19.3818076,15.5809749 C19.571387,15.4259956 19.6586934,15.178528 19.6038149,14.9385595 C19.5489369,14.7010906 19.3618518,14.5136151 19.1248774,14.4586226 C18.8854087,14.4036295 18.638457,14.4911182 18.4837998,14.6810932 L12.6168159,20.5603206 L12.6168159,1.66280396 C12.6242995,1.47782859 12.5494652,1.30035175 12.4172587,1.17536785 C12.2825578,1.04788509 12.1004613,0.98539282 11.9183655,1.00289068 Z" id="路径" fill="#000000" fill-rule="nonzero" transform="translate(12.000000, 12.000000) rotate(90.000000) translate(-12.000000, -12.000000) "></path>
            </g>
        </g>
    </g>
</svg>