<?xml version="1.0" encoding="UTF-8"?>
<svg width="32px" height="32px" viewBox="0 0 32 32" version="1.1" xmlns="http://www.w3.org/2000/svg" xmlns:xlink="http://www.w3.org/1999/xlink">
    <title>bch</title>
    <g id="Dapp" stroke="none" stroke-width="1" fill="none" fill-rule="evenodd">
        <g id="Coin" transform="translate(-231.000000, -204.000000)" fill-rule="nonzero">
            <g id="bch" transform="translate(231.000000, 204.000000)">
                <path d="M16,32 C24.8365373,32 32,24.8365373 32,16 C32,7.16346269 24.8365373,0 16,0 C7.16346269,0 0,7.16346269 0,16 C0,24.8365373 7.16346269,32 16,32 Z" id="路径" fill="#F7941D"></path>
                <path d="M23.5044299,16.6645493 L23.4954985,16.6480239 L23.4940179,16.6452537 C23.4886209,16.6286328 23.4844657,16.6112 23.4784478,16.5932418 L23.4776836,16.591809 L23.4769194,16.5904239 L23.4761552,16.5890388 L23.475391,16.5876537 L23.4746269,16.5862687 L23.4738627,16.5848836 L23.4723343,16.5821134 C23.2845851,15.9540537 22.9122866,15.3969194 22.4038209,14.9831642 L22.4031045,14.9817791 C22.3880597,14.9703164 22.3722507,14.9574209 22.3571582,14.9461015 L22.3363821,14.9306269 L22.3213373,14.9192119 L22.3148896,14.9137672 L22.3005612,14.9036896 L22.2941134,14.8982925 L22.2797851,14.8882149 L22.2733373,14.8828179 L22.2582925,14.871403 L22.2504119,14.8666269 L22.2353672,14.8552119 L22.2274866,14.8504358 L22.2112478,14.8397373 L22.2033672,14.8349612 L22.1938149,14.8206328 L22.1852179,14.8145672 L22.1689791,14.8038687 L22.1604299,14.797803 L22.1441433,14.7870567 L22.135594,14.7810388 L22.1193552,14.7702925 L22.1107582,14.7642269 L22.0935642,14.7520478 L22.0850149,14.7459821 L22.0664836,14.7346149 L22.0578866,14.728597 L22.039403,14.7171821 L22.030806,14.7111642 L22.0122746,14.6997493 L22.0037254,14.6937313 L21.985194,14.6823164 L21.9752119,14.6770627 L21.9566806,14.6656955 L21.9467463,14.660394 L21.9267821,14.649791 L21.9168478,14.6445373 L21.8961672,14.6325493 L21.8862328,14.6272955 L21.8655522,14.6153552 L21.8555701,14.6100537 L21.8348896,14.5981134 L21.824191,14.5914746 L21.8035104,14.5794866 L21.7927642,14.5728478 L21.7707463,14.5615761 L21.7600478,14.5549373 L21.7379821,14.5436657 L21.7230806,14.5355463 L21.7223164,14.5341612 C21.7116179,14.5275224 21.7002985,14.5228896 21.6895522,14.516203 C21.2320955,14.2810746 20.7381493,14.124991 20.2286328,14.054591 C20.3715343,13.900991 20.5024,13.7366448 20.6200358,13.5629851 L20.638806,13.5350925 L20.640191,13.5343284 L20.6488836,13.5207642 L20.6602507,13.5022328 L20.6663164,13.4936358 L20.6776836,13.4751522 L20.6837015,13.4665552 L20.6951164,13.4480239 L20.7011343,13.4394746 L20.7125493,13.4209433 L20.7185672,13.4123463 L20.7299343,13.3938149 L20.7359522,13.3852657 L20.7459343,13.367403 L20.752,13.3588537 L20.7619343,13.340991 L20.7667104,13.3331104 L20.7766448,13.3152955 L20.7814209,13.3074149 L20.7913552,13.2896 L20.7961313,13.2817194 L20.8047284,13.2646209 L20.8095045,13.2567403 L20.8180537,13.2396896 L20.8228299,13.231809 L20.8313791,13.2147582 L20.8361552,13.2068776 L20.8454687,13.1911642 L20.8502448,13.1832836 L20.859797,13.1676179 L20.8645731,13.1597373 L20.8727403,13.1448358 L20.8775164,13.1369552 L20.8856358,13.122006 L20.8889313,13.1149373 L20.8970985,13.0999881 L20.9003463,13.0928716 L20.9085134,13.0779701 L20.9117612,13.0708537 L20.9199284,13.0559522 L20.9232239,13.0488358 L20.9297672,13.0345075 L20.9330627,13.027391 L20.9396537,13.0130627 L20.9429493,13.0059463 L20.9495403,12.9916179 L20.9528358,12.9845493 L20.9600478,12.9682627 L20.9699343,12.947009 C20.9771463,12.9307224 20.9829731,12.9151045 20.9902328,12.8987701 L20.9916179,12.898006 C21.2108418,12.3575881 21.2622328,11.7637254 21.1391045,11.1936955 L21.1383403,11.1923104 L21.1368119,11.1895403 L21.1360478,11.1881552 L21.1353313,11.1867701 L21.1345672,11.1853851 L21.133803,11.184 L21.132991,11.1826149 L21.1322746,11.1812776 C21.1289791,11.1652299 21.1256836,11.1492299 21.1210507,11.1338985 L21.1210507,11.1304119 L21.1202866,11.1290269 L21.1195224,11.1276418 L21.1187582,11.1263045 L21.1195224,11.1276418 L21.1128358,11.1152716 C21.1080597,11.0930149 21.1032836,11.0705672 21.0961194,11.0478806 C21.0913433,11.0256239 21.0842746,11.0026985 21.0780179,10.9810149 L21.0698507,10.9658746 L21.0683701,10.9631045 C21.063594,10.9478687 21.0590567,10.9325373 21.0543761,10.9173015 L21.0535642,10.9159164 L21.0528,10.9145313 L21.0520358,10.9131463 L21.0513194,10.9117612 L21.0505552,10.9104239 L21.0497433,10.9090388 L21.0490269,10.9076537 C20.8822448,10.3488 20.5510687,9.85308657 20.0985791,9.48513433 L20.0977672,9.48370149 C20.0848716,9.4728597 20.0705433,9.46278209 20.0576,9.45203582 L20.0397373,9.4385194 L20.025409,9.42801194 L20.0189612,9.42261493 L20.0067343,9.41306269 L20.0002866,9.40761791 L19.9881075,9.39806567 L19.9816597,9.39266866 L19.9680955,9.38397612 L19.9616,9.3785791 L19.9472716,9.36850149 L19.9408239,9.36310448 L19.9264955,9.35302687 L19.92,9.34762985 L19.9056716,9.33755224 L19.897791,9.33277612 L19.8834627,9.32269851 L19.8755821,9.31792239 L19.8612537,9.30784478 L19.8533731,9.30306866 L19.8377075,9.29375522 L19.8298269,9.2889791 L19.8141612,9.27966567 L19.8062806,9.27488955 L19.7905672,9.26557612 L19.7826866,9.2608 L19.7670209,9.25124776 L19.7591403,9.24647164 L19.7429015,9.23572537 L19.7350209,9.23094925 L19.7185433,9.22025075 L19.7106627,9.21547463 L19.6928478,9.20549254 L19.6849672,9.20071642 L19.6671522,9.19073433 L19.6585552,9.18466866 L19.6407403,9.17473433 L19.632191,9.16866866 L19.6143761,9.15873433 L19.6057791,9.15266866 L19.5872955,9.14130149 L19.5773134,9.136 L19.5587821,9.12463284 L19.5488478,9.1193791 L19.5288836,9.10872836 L19.5189493,9.10347463 L19.4989851,9.09287164 L19.4846567,9.0862806 L19.4838925,9.08489552 L19.453994,9.06903881 C18.5802507,8.61492537 17.4701851,8.47818507 16.3533373,8.76470448 L16.062806,8.83930746 L15.3265672,5.98022687 L13.6237851,6.41676418 L14.3545313,9.2672 L12.9923343,9.6166209 L12.2592955,6.77549851 L10.5565134,7.2119403 L11.2889313,10.0621373 L7.77709851,10.9659701 L8.24434627,12.7820896 L9.65936716,12.4186746 C9.77074627,12.3899701 9.88666269,12.3834746 10.0005254,12.3995701 C10.1143881,12.4156657 10.224,12.4540179 10.323009,12.5124776 C10.4220657,12.5708896 10.508609,12.6483104 10.5777672,12.740203 C10.6469254,12.8320955 10.6972657,12.9366925 10.7259701,13.0480716 L10.7263522,13.0496955 L12.6906746,20.6919642 C12.7291224,20.8420776 12.7064836,21.0012657 12.6276776,21.1347104 C12.5489194,21.2681075 12.420394,21.3648239 12.2703761,21.403606 L11.0304955,21.7225552 L11.1033313,23.8824597 L14.6106746,22.9810149 L15.3527403,25.8260537 L17.0547582,25.3881313 L16.3216239,22.5365015 L17.6838209,22.1870806 L18.4169552,25.0384239 L20.1189731,24.6005015 L19.3834507,21.737791 C19.6719284,21.6625194 19.9199522,21.5982806 20.091606,21.5539104 C21.3502567,21.2301373 22.3680478,20.4920836 22.9839284,19.5721075 L23.0047522,19.541397 L23.0061373,19.5406328 L23.0162149,19.5263045 L23.0295881,19.5049075 L23.0362269,19.4941612 L23.0496,19.4727642 L23.0562866,19.4620179 L23.0682269,19.4413373 L23.0748657,19.4306388 L23.086806,19.4099582 L23.0921075,19.3999761 L23.1040478,19.3792955 L23.1093493,19.3693612 L23.1212896,19.3486806 L23.1265433,19.3386985 L23.1371463,19.3187821 L23.1424478,19.3088 L23.1530507,19.2888836 L23.1583045,19.2789015 L23.1697194,19.2603701 L23.1749731,19.2504358 L23.1863403,19.2319045 L23.1916418,19.2219701 L23.2015761,19.2041075 L23.2068776,19.1941731 L23.2168119,19.1763582 L23.2221134,19.1664239 L23.2320478,19.148609 L23.2361075,19.139391 L23.2460896,19.1215761 L23.2501493,19.1123582 L23.2586985,19.0953075 L23.2634746,19.0874269 L23.2720716,19.0703761 L23.2768478,19.0624955 L23.285397,19.045397 L23.2901731,19.0375164 L23.2987224,19.0204657 L23.3034985,19.0125851 L23.3120955,18.9955343 L23.3168716,18.9876537 L23.3254687,18.9705552 L23.3302448,18.9626746 L23.3374567,18.9464358 L23.3422328,18.9385552 L23.3494448,18.9223164 L23.3527403,18.9152 L23.3606209,18.8967642 L23.3711761,18.8733134 C23.3790567,18.8548776 23.387606,18.8377791 23.3940537,18.8201075 L23.3947224,18.8179582 C23.6410746,18.2100537 23.699009,17.5421612 23.5610269,16.9009194 L23.5602627,16.8995343 L23.5594985,16.8981493 L23.5587343,16.8967642 L23.5579701,16.8953791 L23.557206,16.893994 L23.5564418,16.892609 L23.5556776,16.8912239 L23.5549134,16.8898388 L23.5427343,16.8376836 L23.5427343,16.834197 L23.5420179,16.8328119 L23.5412537,16.8314269 L23.5404418,16.8300418 L23.5396776,16.8286567 L23.5389612,16.8272716 L23.538197,16.8258866 L23.5374328,16.8245015 L23.5366687,16.8231164 L23.5359045,16.8217791 L23.5351403,16.820394 L23.5343761,16.819009 L23.5336597,16.8176239 L23.5328955,16.8162388 L23.5298866,16.8107463 C23.5235821,16.7857672 23.5185672,16.7600239 23.5107821,16.7356657 C23.5095881,16.7204776 23.5059582,16.6939224 23.5044299,16.6645493 Z M13.4992716,11.5522866 C13.789803,11.4777313 14.990997,11.1760239 15.3870806,11.0729075 C16.0168119,10.9117134 16.6370866,10.9742806 17.1219104,11.207594 L17.138197,11.214806 L17.1452657,11.2181015 L17.1552478,11.2233552 L17.1600239,11.2260299 L17.1699582,11.2312836 L17.1747343,11.2339582 L17.1846687,11.2392119 L17.1894448,11.2418866 L17.1994269,11.2471403 L17.204203,11.2497672 L17.2141851,11.2550687 L17.2189612,11.2576955 L17.2289433,11.262997 L17.2337194,11.2656239 L17.2436537,11.2709254 L17.2484299,11.2735522 L17.2583642,11.2788537 L17.2631403,11.2814806 L17.2730746,11.2867821 L17.2778507,11.289409 L17.2864478,11.2954746 L17.2912239,11.2981015 L17.2997731,11.3041672 L17.3045493,11.306794 L17.3130985,11.3128597 L17.3178746,11.3154866 L17.3257552,11.3202627 L17.3305313,11.3228896 L17.3384119,11.3276657 L17.3431881,11.3302925 L17.3510687,11.3350687 L17.3558448,11.3376955 L17.3637254,11.3424716 L17.3685015,11.3450985 L17.3763821,11.3498746 L17.3800119,11.3533134 L17.3878925,11.3580896 L17.3907582,11.3600478 L17.3986388,11.3648239 L17.4014567,11.3668299 L17.4093373,11.371606 L17.412203,11.3735642 L17.4200836,11.3783403 L17.4229015,11.3803463 L17.429397,11.3857433 L17.4322149,11.3877493 L17.4400955,11.3925254 L17.4508418,11.3992119 C17.4587224,11.4039881 17.4658866,11.4107224 17.4737672,11.4154507 C17.7218388,11.6026746 17.9040955,11.8637373 17.9943642,12.1610985 L17.9965612,12.1651582 C17.9988537,12.1728 18.0019582,12.1817791 18.0042507,12.1895164 L18.0050149,12.1909493 L18.0095045,12.1990687 C18.0126567,12.2115821 18.0164776,12.221994 18.0197254,12.2344597 C18.0232119,12.2472119 18.0254567,12.2602985 18.0265075,12.2734806 L18.0309493,12.2816 L18.0317134,12.2829851 C18.0329552,12.2915343 18.0350567,12.2998925 18.0380657,12.3079642 L18.0402627,12.3120239 C18.1040716,12.6160716 18.0701612,12.9325373 17.9433552,13.216191 L17.9433552,13.216191 L17.9321791,13.2417433 L17.9262567,13.2539224 L17.9214806,13.261803 L17.920191,13.2660537 L17.9168955,13.2731701 L17.915606,13.2774209 L17.9108299,13.2853015 L17.9095403,13.289409 L17.9047642,13.2972896 L17.9034746,13.3015403 L17.8986985,13.3094209 L17.897409,13.3134806 L17.8926328,13.3213612 L17.8913433,13.3256119 L17.8865672,13.3334925 L17.8852299,13.337791 L17.8804537,13.3456716 L17.8777791,13.3504478 L17.873003,13.3583284 L17.8703284,13.3631045 L17.8655522,13.3709851 L17.8629254,13.3757612 L17.8581493,13.3836418 L17.8555224,13.3884179 L17.8494567,13.3969672 L17.8468299,13.4017433 L17.8407642,13.4103403 L17.8381373,13.4151164 L17.8320716,13.4236657 L17.8294448,13.4284418 L17.8233791,13.436991 L17.8207522,13.4417672 L17.8146866,13.4503642 L17.8120597,13.4551403 L17.805994,13.4637373 L17.8033672,13.4685134 L17.7973015,13.4770627 L17.7946746,13.4818388 L17.788609,13.4903881 L17.7859821,13.4951642 L17.7785313,13.5044776 L17.7759045,13.5092537 L17.7684537,13.5185672 L17.7658269,13.5233433 L17.7583761,13.5326567 L17.7557493,13.5374328 L17.7482985,13.5467463 L17.7429015,13.553194 L17.7328239,13.5675224 C17.4196537,14.0063522 16.9065552,14.3607881 16.2768239,14.5219343 C15.8799761,14.6235224 14.6819343,14.9377433 14.3916418,15.0123463 L13.4992716,11.5522866 Z M20.1552239,17.4113433 L20.1597134,17.4194627 L20.1604776,17.4208478 C20.1621493,17.4304 20.1645373,17.4382328 20.166209,17.4479761 L20.1669731,17.449409 L20.1677373,17.450794 L20.1685493,17.4521791 L20.1693134,17.4535642 C20.2364657,17.7887522 20.1882269,18.1367881 20.0323821,18.4410269 L20.0323821,18.4410269 L20.0171463,18.4687761 L20.0098388,18.4816239 L20.0045373,18.4915582 L20.0019104,18.4963343 L19.9971343,18.5042149 L19.9945075,18.508991 L19.9897313,18.5168716 L19.9871045,18.5216478 L19.9810388,18.530197 L19.9784119,18.5349731 L19.9723463,18.5435224 L19.9697194,18.5482985 L19.9636537,18.5568955 L19.9610269,18.5616716 L19.9549612,18.5702209 L19.9523343,18.574997 L19.9462687,18.5835463 L19.9436418,18.5883224 L19.9375761,18.5969194 L19.9349493,18.6016955 L19.9288836,18.6102925 L19.9262567,18.6150687 L19.920191,18.6236179 L19.9175642,18.628394 L19.9114985,18.6369433 L19.9088716,18.6417194 L19.9014209,18.6510328 L19.898794,18.655809 L19.8913433,18.6651224 L19.8887164,18.6698985 L19.8820299,18.6806448 L19.879403,18.6854209 L19.8726687,18.6961194 L19.8700418,18.7008955 L19.863403,18.7116418 L19.8592955,18.7173731 L19.8526567,18.7280716 L19.848597,18.733803 L19.8404776,18.7452179 L19.8364179,18.7509493 L19.8282985,18.7623642 L19.824191,18.7680955 L19.8160716,18.7795104 L19.8120119,18.7852418 L19.8038925,18.7966567 L19.7998328,18.8023881 L19.7917134,18.813803 L19.7849313,18.8210627 L19.7720836,18.8368239 C19.3917134,19.3225075 18.7783164,19.7219821 18.0331463,19.9132179 C17.5633672,20.0345313 16.1436179,20.4058269 15.798209,20.493994 L14.8316657,16.7333254 C15.1763582,16.6439164 16.6000239,16.2864239 17.069803,16.1649672 C17.8148776,15.9739224 18.5462925,16.0279403 19.1117851,16.2693731 L19.1302209,16.2772537 L19.1394388,16.2813134 L19.1529552,16.2864716 L19.1592597,16.2883343 L19.1714866,16.2942567 L19.177791,16.2961194 L19.1900179,16.3020896 L19.1963224,16.3039522 L19.2085015,16.3098746 L19.2132776,16.3125015 L19.2254567,16.3184239 L19.2302328,16.3210985 L19.2424119,16.3270209 L19.2471881,16.3296478 L19.2593672,16.3355701 L19.2641433,16.3382448 L19.2741254,16.3434985 L19.2789015,16.3461731 L19.2888836,16.3514269 L19.2936597,16.3541015 L19.303594,16.3593552 L19.3083701,16.3619821 L19.3183045,16.3672836 L19.3230806,16.3699104 L19.3330149,16.3752119 L19.337791,16.3778388 L19.3477731,16.3831403 L19.3525493,16.3857672 L19.3625313,16.3910687 L19.3673075,16.3936955 L19.3772418,16.398997 L19.3820179,16.4016239 L19.3919522,16.4068776 L19.3967284,16.4095522 L19.4052776,16.4155701 L19.4100537,16.4182448 L19.4186507,16.4243104 L19.4234269,16.4269373 L19.4320239,16.433003 L19.4368,16.4356299 L19.4453493,16.4416955 L19.4501254,16.4443224 L19.4587224,16.4503881 L19.4634985,16.4530149 L19.4713791,16.457791 L19.4761552,16.4604179 L19.4847522,16.4664836 L19.4961672,16.474603 C19.5047164,16.4806687 19.5146985,16.4859701 19.5233433,16.4919881 C19.8080955,16.6839881 20.0193433,16.9667821 20.122603,17.2943284 L20.122603,17.2943284 L20.1255642,17.2998209 C20.1286209,17.3088 20.1309612,17.3164896 20.1340179,17.3254687 L20.1347821,17.326806 L20.1392239,17.3349731 C20.1424239,17.3474866 20.1455761,17.3599522 20.1495403,17.3738985 C20.1565612,17.3769075 20.1576597,17.3922866 20.1555104,17.4112478 L20.1552239,17.4113433 Z" id="形状" fill="#FFFFFF"></path>
            </g>
        </g>
    </g>
</svg>