<?xml version="1.0" encoding="UTF-8"?>
<svg width="32px" height="32px" viewBox="0 0 32 32" version="1.1" xmlns="http://www.w3.org/2000/svg" xmlns:xlink="http://www.w3.org/1999/xlink">
    <title>BTC_coin</title>
    <g id="Dapp" stroke="none" stroke-width="1" fill="none" fill-rule="evenodd">
        <g id="Mining_lp" transform="translate(-40.000000, -175.000000)" fill-rule="nonzero">
            <g id="Swap备份" transform="translate(0.000000, 151.000000)">
                <g id="BTC_coin" transform="translate(40.000000, 24.000000)">
                    <path d="M31.840796,15.920398 C31.840796,24.7130747 24.7130746,31.840796 15.920398,31.840796 C7.12772137,31.840796 0,24.7130746 0,15.920398 C0,7.12772144 7.12772141,0 15.920398,0 C24.7130746,0 31.840796,7.12772141 31.840796,15.920398" id="路径" fill="#FDA806"></path>
                    <path d="M22.7840943,11.7692508 C22.9437559,13.373468 22.3627442,14.5104647 21.0408235,15.1803453 C22.0787151,15.4271118 22.855023,15.8810456 23.3695111,16.5421726 C23.8839993,17.2031954 24.0837007,18.1463898 23.9683008,19.3715211 C23.9061825,19.9973474 23.762044,20.5481954 23.5358591,21.0241693 C23.3096741,21.5001433 23.0235211,21.8923854 22.6775048,22.2008436 C22.3314885,22.5093279 21.9013018,22.7672187 21.3867087,22.9742817 C20.8722206,23.181475 20.3331893,23.3334636 19.7699295,23.4303518 C19.2065648,23.52724 18.5611799,23.5933605 17.8337486,23.6286612 L17.8337486,27 L15.7844227,27 L15.7844227,23.6815212 C15.0747694,23.6815212 14.533588,23.6771444 14.1609833,23.6682606 L14.1609833,27 L12.1118934,27 L12.1118934,23.6285831 C11.9522319,23.6285831 11.7127003,23.6263426 11.3932987,23.6219398 C11.0738708,23.617563 10.829934,23.6152964 10.6614621,23.6152964 L8,23.6152964 L8.41253974,21.1958274 L9.88969055,21.1958274 C10.3332239,21.1958274 10.5905335,20.971101 10.6614621,20.521544 L10.6614621,11.3990749 C10.5461671,10.7996656 10.1514054,10.5000651 9.47715081,10.5000651 L8,10.5000651 L8,8.33173941 L10.8211236,8.34499999 C11.3888935,8.34499999 11.8192113,8.34062322 12.1119197,8.33173941 L12.1119197,5 L14.1612455,5 L14.1612455,8.26564495 C14.8886768,8.24798155 15.4298583,8.239228 15.7846849,8.239228 L15.7846849,5 L17.8340108,5 L17.8340108,8.33173941 C18.5348537,8.39345711 19.1558004,8.49261183 19.6969818,8.62920358 C20.2381633,8.76579534 20.7394097,8.96410479 21.200721,9.22410588 C21.6620324,9.48410697 22.0279507,9.82789197 22.2986069,10.2553046 C22.569001,10.6828475 22.7309175,11.1875049 22.7840943,11.7692508 Z M19.9230357,18.9746938 C19.9230357,18.6573258 19.8565122,18.3752845 19.7234391,18.1285179 C19.590366,17.8817514 19.4261944,17.6789609 19.2311342,17.520329 C19.0359428,17.3616971 18.7809144,17.2272416 18.4660228,17.1170929 C18.1511312,17.006918 17.860573,16.9254267 17.594453,16.8724626 C17.328333,16.8196287 17.0000947,16.7799512 16.6097382,16.7535342 C16.2193817,16.7271173 15.9133004,16.7138567 15.6915469,16.7138567 C15.4697671,16.7138567 15.183614,16.7182335 14.8332188,16.7271173 C14.4827973,16.7358708 14.2721092,16.7403779 14.2011805,16.7403779 L14.2011805,21.209114 C14.2721354,21.209114 14.4363069,21.2113545 14.6934855,21.2157573 C14.9507951,21.2201341 15.1636072,21.2224006 15.3322102,21.2224006 C15.5008131,21.2224006 15.7358084,21.2157573 16.0374583,21.202627 C16.3391081,21.1894706 16.5985679,21.1718333 16.8159163,21.1497931 C17.0332647,21.1277529 17.286038,21.0903159 17.5744723,21.0373778 C17.8627755,20.9845439 18.1089936,20.9228262 18.3129953,20.8522247 C18.516997,20.7817275 18.7276852,20.689216 18.9450336,20.5745603 C19.1623819,20.4600087 19.3375402,20.3277937 19.4706133,20.1779414 C19.6036864,20.028089 19.7124,19.8518197 19.7965966,19.6491335 C19.8807145,19.4463952 19.9230357,19.2215646 19.9230357,18.9746938 L19.9230357,18.9746938 Z M18.9782559,12.681417 C18.9782559,12.3905961 18.9228241,12.1327052 18.8119342,11.9079788 C18.7010443,11.6832525 18.5657162,11.4980994 18.4060809,11.3526238 C18.2464194,11.2071483 18.0334762,11.0838431 17.7673562,10.9824219 C17.5012362,10.8810266 17.2572995,10.8083931 17.0355197,10.7642085 C16.8137399,10.7201542 16.5409597,10.6848274 16.2171267,10.6584105 C15.8932936,10.6319935 15.6359839,10.6209735 15.4453551,10.6253502 C15.2545951,10.629727 15.0150635,10.6341038 14.7267603,10.6386108 C14.4384571,10.6429876 14.2631939,10.6452541 14.2011805,10.6452541 L14.2011805,14.7041108 C14.245547,14.7041108 14.3986269,14.7063513 14.6602106,14.7107541 C14.9219255,14.7151309 15.1281822,14.7151309 15.2790071,14.7107541 C15.4298321,14.7063773 15.6516118,14.6974935 15.9443202,14.6843372 C16.2370286,14.6710766 16.4809654,14.6469001 16.6761568,14.6115994 C16.8713481,14.5762986 17.0997881,14.5278415 17.3615029,14.4661238 C17.6232177,14.4044061 17.8383111,14.3229148 18.0068878,14.2214935 C18.1754908,14.1200983 18.3395313,14.0011439 18.4991928,13.8645782 C18.6588543,13.7279865 18.7786594,13.5582302 18.8584246,13.355544 C18.9381898,13.1528578 18.9782559,12.9282877 18.9782559,12.681417 L18.9782559,12.681417 Z" id="形状" fill="#FFFFFF"></path>
                </g>
            </g>
        </g>
    </g>
</svg>