<?xml version="1.0" encoding="UTF-8"?>
<svg width="16px" height="16px" viewBox="0 0 16 16" version="1.1" xmlns="http://www.w3.org/2000/svg" xmlns:xlink="http://www.w3.org/1999/xlink">
    <title>close_icon</title>
    <g id="Dapp_CN" stroke="none" stroke-width="1" fill="none" fill-rule="evenodd">
        <g id="Mining_lp_deposit_confirm" transform="translate(-335.000000, -404.000000)" fill="#000000" fill-rule="nonzero">
            <g id="Swap-Settings" transform="translate(0.000000, 380.000000)">
                <path d="M343.84931,32 L345.263048,33.4141829 C345.497456,33.6484679 345.497555,34.0284183 345.26327,34.262826 C345.028986,34.4972337 344.649035,34.4973332 344.414627,34.2630483 L343.000444,32.8479764 L341.586262,34.2621594 C341.351977,34.4965671 340.972026,34.4966665 340.737618,34.2623816 C340.503211,34.0280966 340.503111,33.6481462 340.737396,33.4137385 L342.152468,32 L340.738285,30.5858171 C340.503877,30.3515321 340.503778,29.9715817 340.738063,29.737174 C340.972348,29.5027663 341.352298,29.5026668 341.586706,29.7369518 L343.000444,31.1520236 L344.414627,29.7378406 C344.648912,29.5034329 345.028863,29.5033335 345.26327,29.7376184 C345.497678,29.9719034 345.497778,30.3518538 345.263493,30.5862615 L343.848421,32 L343.84931,32 Z M348.656732,26.3432683 C351.781089,29.4676259 351.781089,34.5323741 348.656732,37.6567318 C345.532374,40.7810894 340.467626,40.7810894 337.343268,37.6567318 C334.218911,34.5323741 334.218911,29.4676259 337.343268,26.3432683 C340.467626,23.2189106 345.532374,23.2189106 348.656732,26.3432683 Z M347.807866,27.1921335 C345.152829,24.5362073 340.847171,24.5362073 338.191689,27.1921335 C335.536207,29.8471709 335.536207,34.1528291 338.191689,36.8083109 C340.847171,39.4637927 345.152829,39.4637927 347.808311,36.8083109 C350.463793,34.1528291 350.463793,29.8471709 347.808311,27.1916891 L347.807866,27.1921335 Z" id="close_icon"></path>
            </g>
        </g>
    </g>
</svg>