<?xml version="1.0" encoding="UTF-8"?>
<svg width="32px" height="32px" viewBox="0 0 32 32" version="1.1" xmlns="http://www.w3.org/2000/svg" xmlns:xlink="http://www.w3.org/1999/xlink">
    <title>diem</title>
    <g id="Dapp" stroke="none" stroke-width="1" fill="none" fill-rule="evenodd">
        <g id="Coin" transform="translate(-231.000000, -316.000000)">
            <g id="diem" transform="translate(231.000000, 316.000000)">
                <rect id="矩形" fill="#42318C" x="0" y="0" width="32" height="32" rx="16"></rect>
                <g id="Diem_logo" transform="translate(8.000000, 8.000000)" fill="#FFFFFF" fill-rule="nonzero">
                    <path d="M14.8990826,14.1791645 C15.3149847,13.6785513 15.6819572,13.1529075 16,12.5772023 L14.1406728,11.6260373 C13.8715596,12.0765892 13.5535168,12.5021104 13.1620795,12.8775702 C12.7217125,13.3281221 12.1345566,13.62849 11.5229358,13.7286126 C10.4464832,13.8787966 9.66360856,13.5283674 8.56269113,12.8024783 C7.41284404,12.0515585 6.09174312,11.1754855 4.20795107,11.4257921 C3.08256881,11.575976 2.03058104,12.1767118 1.10091743,13.2279995 C0.685015291,13.7286126 0.318042813,14.2542565 0,14.8299616 L1.85932722,15.7811266 C2.12844037,15.3305748 2.44648318,14.9050536 2.83792049,14.5295937 C3.27828746,14.0790419 3.86544343,13.778674 4.47706422,13.6785513 C4.62385321,13.6535207 4.79510703,13.6535207 4.94189602,13.6535207 C5.79816514,13.6535207 6.48318043,14.0039499 7.43730887,14.6046857 C8.51376147,15.3305748 9.88379205,16.2066478 11.7920489,15.9563413 C12.9663609,15.8061573 14.0183486,15.2054215 14.8990826,14.1791645 L14.8990826,14.1791645 Z M14.8990826,8.497205 C15.3149847,7.99659183 15.6819572,7.470948 16,6.89524285 L14.1406728,5.94407783 C13.8715596,6.39462968 13.5535168,6.82015088 13.1620795,7.19561076 C12.7217125,7.64616261 12.1345566,7.94653051 11.5229358,8.04665315 C10.4464832,8.1968371 9.66360856,7.84640788 8.56269113,7.12051878 C7.3883792,6.36959902 6.06727829,5.49352598 4.20795107,5.74383256 C3.08256881,5.89401651 2.03058104,6.49475232 1.10091743,7.54603998 C0.685015291,8.04665315 0.318042813,8.57229698 0,9.14800212 L1.85932722,10.0991671 C2.12844037,9.6486153 2.44648318,9.2230941 2.83792049,8.84763422 C3.27828746,8.39708237 3.86544343,8.09671446 4.47706422,7.99659183 C4.62385321,7.97156117 4.79510703,7.97156117 4.94189602,7.97156117 C5.79816514,7.97156117 6.48318043,8.32199039 7.43730887,8.9227262 C8.51376147,9.6486153 9.88379205,10.5246883 11.7920489,10.2743818 C12.9663609,10.0991671 14.0183486,9.523462 14.8990826,8.497205 Z M14.8990826,2.79021485 C15.3149847,2.28960168 15.6819572,1.76395785 16,1.1882527 L14.1406728,0.237087679 C13.8715596,0.687639533 13.5535168,1.11316073 13.1620795,1.48862061 C12.7217125,1.93917246 12.1345566,2.23954036 11.5229358,2.339663 C10.4464832,2.48984695 9.66360856,2.13941773 8.56269113,1.41352863 C7.41284404,0.662608875 6.09174312,-0.188433516 4.20795107,0.0368424109 C3.08256881,0.187026362 2.03058104,0.787762167 1.10091743,1.83904983 C0.685015291,2.339663 0.318042813,2.86530683 2.66453526e-15,3.44101197 L1.85932722,4.392177 C2.12844037,3.94162515 2.44648318,3.51610395 2.83792049,3.14064407 C3.27828746,2.69009222 3.86544343,2.38972431 4.47706422,2.28960168 C4.62385321,2.26457102 4.79510703,2.26457102 4.94189602,2.26457102 C5.79816514,2.26457102 6.48318043,2.61500024 7.43730887,3.21573605 C8.51376147,3.94162515 9.88379205,4.81769819 11.7920489,4.56739161 C12.9663609,4.41720766 14.0183486,3.81647185 14.8990826,2.79021485 Z" id="形状"></path>
                </g>
            </g>
        </g>
    </g>
</svg>