<?xml version="1.0" encoding="UTF-8"?>
<svg width="32px" height="32px" viewBox="0 0 32 32" version="1.1" xmlns="http://www.w3.org/2000/svg" xmlns:xlink="http://www.w3.org/1999/xlink">
    <title>doge</title>
    <g id="Dapp" stroke="none" stroke-width="1" fill="none" fill-rule="evenodd">
        <g id="Coin" transform="translate(-55.000000, -92.000000)" fill-rule="nonzero">
            <g id="doge" transform="translate(55.000000, 92.000000)">
                <path d="M14.4843,0.0719306667 C17.8763,-0.254137667 21.3700667,0.534633333 24.2807667,2.31057 C27.0238,3.96266667 29.2452333,6.46083333 30.5700333,9.3756 C31.9707,12.4219 32.3425333,15.9133 31.6849333,19.1957333 C31.0295667,22.4881 29.2875,25.5484667 26.8059,27.8088667 C24.323,30.1012667 21.0910333,31.5617 17.7294333,31.9184667 C15.5608,32.1210333 13.3451,31.9578333 11.2628667,31.2970667 C7.70223333,30.2049333 4.5608,27.8155667 2.54992333,24.6806667 C0.858403333,22.0775333 -0.0411163333,18.9682 0.00144377,15.8627333 C0.0100837667,12.3121333 1.27056667,8.78456667 3.4952,6.01956667 C6.1576,2.6616 10.2136,0.456876667 14.4843,0.0719306667 Z" id="路径" fill="#988430"></path>
                <path d="M15.6845667,0.49751 C18.5293333,0.448233333 21.3917333,1.17364 23.8452,2.62351 C26.4909333,4.17706667 28.6672667,6.5309 29.9837333,9.30456667 C31.4051667,12.1975667 31.8240667,15.5478333 31.2717333,18.7154 C30.5472667,22.9597333 27.9376667,26.8319333 24.2887,29.1131333 C21.7623,30.7326 18.7456667,31.5716 15.7472667,31.506 C12.8192667,31.4861667 9.914,30.5738667 7.474,28.9611333 C4.9761,27.3132 2.95273,24.9401667 1.77449,22.1850667 C0.415453333,19.0843667 0.126496333,15.5315333 0.953696667,12.2490667 C1.76105333,8.92503333 3.74056667,5.91843333 6.42696667,3.80873333 C9.04073333,1.73042333 12.3495,0.565346667 15.6845667,0.49751 Z" id="路径" fill="#7A6A2A"></path>
                <path d="M9.79246667,2.14736667 C12.4644667,0.93621 15.4942,0.552223333 18.3895667,1.00949 C21.4129333,1.47987 24.2753333,2.90446 26.4833333,5.02183333 C29.1847667,7.58206667 30.8884333,11.1656 31.1444333,14.8800333 C31.4814,19.1154 29.9287667,23.4605333 26.9636333,26.5055333 C26.9220333,25.6227 26.9089333,24.7385667 26.8926,23.8544333 C26.8859,23.1991 26.7406,22.5578333 26.6846,21.9079333 C26.6967667,21.6804333 26.723,21.4539 26.7306667,21.2273333 C26.7623667,20.6136 26.4375667,20.0411333 26.5207667,19.4229 C26.6017333,18.5541333 26.1466667,17.7663333 25.9210667,16.9522667 C25.6967667,16.3801333 25.7108333,15.7510333 25.4932333,15.1776333 C25.3367667,12.963 24.4788333,10.7275333 22.7982,9.22326667 C22.8529333,9.1468 22.9601333,8.9913 23.0148333,8.91353333 C23.0817333,9.05783333 23.1572333,9.19703333 23.2324333,9.33593333 C23.6231667,8.894 23.6833333,8.2854 23.7991667,7.73183333 C24.0167667,6.74496667 23.8660333,5.72516667 23.6974,4.74376667 C23.5671667,4.24043333 23.4631667,3.6574 23.0420333,3.30925 C22.5924333,3.04462 21.8132333,3.04013667 21.5518,3.56523333 C21.5431667,3.59596667 21.5255667,3.65706667 21.5169333,3.68683333 C21.3211,4.02696667 21.0497333,4.32136667 20.7095667,4.51946667 C20.1054,4.8916 19.7761333,5.59716667 19.1307,5.92323333 C18.7281333,6.05443333 18.3188667,5.8314 17.9086,5.87716667 C17.1361333,5.95716667 16.3515,5.99746667 15.6011,6.21316667 C14.891,6.1005 14.1774333,5.98786667 13.4718333,5.84546667 C13.4740667,5.79396667 13.4795,5.6922 13.4827,5.641 C13.1598333,5.32806667 12.8654333,4.97126667 12.7486333,4.5281 C12.5329333,3.70316667 12.0241333,2.90862333 11.2571,2.50384 C11.1486,2.46128 11.0404667,2.41967667 10.9319667,2.38032 C10.8641333,2.45487667 10.7985333,2.53007667 10.7339,2.60559333 C10.7086333,2.66351 10.6583667,2.77967 10.6331,2.83630667 C10.4625333,3.21805333 10.5006,3.64363333 10.4887667,4.05096667 C10.4779,5.10246667 10.3684667,6.17923333 9.9243,7.14526667 C9.2088,7.14303333 8.49423333,7.1376 7.77966667,7.14623333 C7.63726667,7.46783333 7.68783333,7.8246 7.68013333,8.16476667 C6.53006667,9.22936667 6.07053333,10.7982667 5.85613333,12.3028333 C5.8552,12.4186667 5.85933333,12.5358 5.86926667,12.6519667 C5.8715,12.6980333 5.8747,12.7898667 5.87693333,12.8346667 C5.37133333,13.5009 5.2827,14.3719 5.15246667,15.1718667 C5.33743333,15.161 5.5224,15.1501 5.7083,15.1424333 C5.53773333,15.161 5.36686667,15.1773 5.19726667,15.1939333 C5.1643,15.3766667 5.13806667,15.5593667 5.11726667,15.7430333 C5.28366667,15.6819333 5.4488,15.6182667 5.6152,15.5571333 L5.7048,15.5616 C5.5067,15.6425667 5.3131,15.7366667 5.12046667,15.832 C5.12493333,15.9478333 5.1336,16.1811 5.1368,16.2969667 C5.36206667,16.1811 5.5899,16.0716667 5.8152,15.9555333 L5.73326667,16.0473667 C5.5419,16.1721667 5.2968,16.2387 5.14573333,16.4159667 C5.15023333,16.8361333 5.2091,17.2540333 5.26606667,17.6700333 C5.4139,18.6152667 5.74543333,19.5355333 6.2299,20.3604667 C6.21583333,20.9633333 6.0856,21.5706667 5.72973333,22.0685667 C5.82926667,22.2567333 5.99566667,22.4308 6.0056,22.6519333 C5.9432,23.0272667 5.6411,23.3443667 5.7048,23.7427667 C5.78573333,24.7088 5.4312,25.6313333 5.0123,26.4815333 C2.83823,24.2221 1.40143,21.2657333 0.96719,18.1592667 C0.55471,15.2598667 0.98703,12.2388667 2.23759,9.58646667 C3.75566667,6.3085 6.49133333,3.6158 9.79246667,2.14736667 Z" id="路径" fill="#BA9F33"></path>
                <path d="M10.7336,2.60593 C10.7982333,2.53041333 10.8638333,2.45489333 10.9316667,2.38065667 C11.0401667,2.42001333 11.1483333,2.46162 11.2568,2.50417667 C11.4395333,3.07855667 11.7230333,3.65293333 11.6648,4.27243333 C11.644,4.68616667 11.5544,5.13033333 11.7620667,5.51526667 C11.8516667,5.73413333 12.0696,5.84773333 12.2545667,5.9738 C12.1428667,6.0602 12.0324667,6.1466 11.9153667,6.22436667 C11.4318333,6.417 11.0465667,6.7757 10.6843333,7.13793333 C10.5441667,7.13793333 10.4043333,7.1389 10.2641667,7.1389 C11.0302333,6.2186 11.3681667,5.0065 11.3649667,3.82253333 C11.38,3.33134667 11.0036667,2.97231667 10.7336,2.60593 Z" id="路径" fill="#C79C3B"></path>
                <path d="M11.2565,2.50415 C12.0235333,2.90893667 12.5323333,3.70346667 12.7480333,4.5284 C12.8651333,4.97156667 13.1595333,5.32836667 13.4821,5.6413 C13.4789,5.69283333 13.4734667,5.7946 13.4712333,5.8458 C13.0709,5.7146 12.5784333,5.6314 12.2546,5.97376667 C12.0696333,5.84803333 11.8520333,5.7341 11.7621,5.51523333 C11.5541,5.12996667 11.6440333,4.68583333 11.6648333,4.2724 C11.7227667,3.6529 11.4392333,3.07853 11.2565,2.50415 Z" id="路径" fill="#B58634"></path>
                <path d="M10.7335667,2.60591667 C11.0039667,2.97230333 11.3803,3.33133 11.3649333,3.8225 C11.3681333,5.00646667 11.0302,6.21856667 10.2641333,7.13886667 C10.2116667,7.13983333 10.1076667,7.14206667 10.0551667,7.14206667 C10.3867,6.63426667 10.7159667,6.08386667 10.7511667,5.4615 C10.8135667,4.5828 10.5431667,3.71756667 10.6331,2.83663 C10.6580667,2.77967333 10.7083,2.66383333 10.7335667,2.60591667 Z" id="路径" fill="#DFC068"></path>
                <path d="M10.4884667,4.0513 C10.5006333,3.64426667 10.4622333,3.21869667 10.6328,2.83663 C10.5432,3.71756667 10.8132667,4.5828 10.7508667,5.4615 C10.7159667,6.0842 10.3864,6.63456667 10.0548667,7.14206667 L9.92366667,7.14526667 C10.3678333,6.17923333 10.4772667,5.1028 10.4884667,4.0513 Z" id="路径" fill="#A78F33"></path>
                <path d="M21.5517667,3.56556667 C21.8132,3.04045333 22.5924,3.04462 23.042,3.30957 C23.4631,3.6574 23.5671,4.24073333 23.6973333,4.74406667 C23.866,5.72546667 24.0167,6.74526667 23.7991,7.73213333 C23.6832667,8.2857 23.6228,8.894 23.2324,9.33623333 C23.1568667,9.19736667 23.0813333,9.05816667 23.0148,8.91386667 C22.9402333,8.69723333 22.8781667,8.4761 22.8080667,8.25723333 C23.0772,7.6566 23.2141333,7 23.2852,6.34786667 C23.3498333,5.7658 22.9623,5.28646667 22.5760667,4.90343333 C22.3712667,4.36296667 21.9565667,3.96043333 21.5517667,3.56556667 Z" id="路径" fill="#A17C34"></path>
                <path d="M21.5166,3.68683333 C21.5252667,3.6574 21.5428667,3.59593333 21.5515,3.56523333 C21.9563,3.9601 22.371,4.36296667 22.5758,4.90343333 C22.5649333,5.06213333 22.5287667,5.23493333 22.3623667,5.29636667 C21.8884667,5.53603333 21.3579,5.7101 21.0110333,6.1357 C20.7735667,6.4365 20.3108667,6.60833333 20.2734333,7.0275 C20.3236667,7.06463333 20.4244667,7.1379 20.4747,7.17533333 C20.4276667,7.23646667 20.3345333,7.359 20.2875,7.42046667 C20.3476667,7.48283333 20.4091,7.54396667 20.4702333,7.6054 C20.7230333,7.34173333 21.1115,7.3187 21.4385333,7.20286667 C21.3870333,7.3299 21.3358333,7.4579 21.2843,7.5859 C21.4231667,7.55516667 21.5643,7.52476667 21.7044667,7.4963 C21.5316667,7.69436667 21.3380667,7.87386667 21.1345333,8.04123333 C21.1115,8.0281 21.0657333,8.0041 21.0427,7.99196667 C20.7931,7.86843333 20.5502333,7.70203333 20.2635,7.69116667 C20.2494333,7.6486 20.2219,7.5654 20.2078333,7.52253333 C20.0503667,7.5139 19.8939,7.48413333 19.7451,7.4339 C19.7867,7.3299 19.8699,7.12316667 19.9115,7.02013333 C19.8251,7.06173333 19.651,7.1459 19.5646,7.1875 C19.7998,6.80126667 20.0286,6.41056667 20.2583667,6.02113333 C20.2747,5.99266667 20.3076667,5.9357 20.3239667,5.90723333 C20.6401333,5.3207 21.1051,4.83173333 21.4235,4.2484 C21.5351667,4.07976667 21.531,3.87946667 21.5166,3.68683333 Z" id="路径" fill="#B89844"></path>
                <path d="M21.5166667,3.68683333 C21.5307667,3.87946667 21.5352333,4.0798 21.4235667,4.2481 C21.1051667,4.83143333 20.6402,5.3204 20.3240333,5.90693333 C20.3186,5.41446667 20.3832333,4.91113333 20.7093333,4.51946667 C21.0494667,4.3214 21.3208333,4.02733333 21.5166667,3.68683333 Z" id="路径" fill="#CBA94C"></path>
                <path d="M19.1303333,5.92323333 C19.7757667,5.59716667 20.1053667,4.8916 20.7092,4.51943333 C20.3831333,4.9111 20.3185,5.41446667 20.3239333,5.90693333 C20.3076,5.9354 20.2746333,5.99236667 20.2583333,6.02083333 C20.2714333,5.8314 20.2529,5.64323333 20.2253667,5.45636667 C19.9201,6.08673333 19.5841,6.70593333 19.1223333,7.23776667 C18.8554667,7.16543333 18.5786333,7.1392 18.3015333,7.1392 C18.4548,6.84606667 18.6516,6.5789 18.8596,6.32416667 C17.7873,6.07266667 16.6842667,6.3165 15.6001,6.2138 C16.3508333,5.9981 17.1351333,5.9578 17.9076,5.8778 C18.3185,5.8314 18.7274333,6.05476667 19.1303333,5.92323333 Z" id="路径" fill="#AC8132"></path>
                <path d="M22.5758333,4.90343333 C22.9620667,5.28646667 23.3496,5.7655 23.2849667,6.34786667 C23.2139333,7 23.0769667,7.65663333 22.8078333,8.25723333 C22.6097667,8.41916667 22.404,8.57243333 22.2004667,8.7289 C22.1041667,8.65786667 22.0056,8.5878 21.9083333,8.51773333 L21.8603333,8.48476667 C22.1732667,7.81183333 22.6789,7.17953333 22.7115333,6.41473333 C22.1150333,6.4365 21.5188667,6.5341 20.9508667,6.71553333 C20.7166333,6.77346667 20.5976,6.98913333 20.4750333,7.17503333 C20.4248,7.13793333 20.324,7.06463333 20.2737667,7.0272 C20.3108667,6.60803333 20.7739333,6.4365 21.0113667,6.1354 C21.3582333,5.7098 21.8888,5.53573333 22.3627333,5.29606667 C22.5288,5.23526667 22.5649667,5.06216667 22.5758333,4.90343333 Z" id="路径" fill="#927238"></path>
                <path d="M20.2254333,5.45606667 C20.2529667,5.64323333 20.2715,5.8314 20.2584,6.0205 C20.0286333,6.40993333 19.7998333,6.80063333 19.5646333,7.18686667 C19.6510333,7.14526667 19.8251,7.0611 19.9115,7.0195 C19.8699,7.12223333 19.7867333,7.32926667 19.7451333,7.43326667 C19.5384,7.36316667 19.3326333,7.2931 19.1224,7.23743333 C19.5844667,6.7056 19.9201667,6.08643333 20.2254333,5.45606667 Z" id="路径" fill="#8C6228"></path>
                <path d="M12.2542333,5.9738 C12.5780667,5.6314 13.0705333,5.7146 13.4708667,5.8458 C14.1767667,5.9882 14.8900667,6.10083333 15.6001333,6.21346667 C16.6846333,6.3162 17.7873333,6.07236667 18.8596667,6.32386667 C18.6516667,6.5789 18.4548667,6.84576667 18.3015667,7.13886667 C16.5476667,7.13663333 14.7924667,7.14656667 13.0385667,7.13983333 C12.9652667,6.89026667 12.9553667,6.57953333 12.7256,6.41346667 C12.4913667,6.24483333 12.1883,6.25476667 11.9147,6.22403333 C12.0321667,6.1466 12.1428667,6.0602 12.2542333,5.9738 Z" id="路径" fill="#D2A83E"></path>
                <path d="M10.6842333,7.13793333 C11.0465,6.7757 11.4314333,6.417 11.9152667,6.22436667 C12.1888667,6.2551 12.4919333,6.24516667 12.7261667,6.4138 C12.9559333,6.5802 12.9658333,6.8909 13.0391333,7.14016667 C12.2541667,7.13793333 11.4685667,7.1389 10.6842333,7.13793333 Z" id="路径" fill="#DCBA5A"></path>
                <path d="M20.9511333,6.71553333 C21.5191333,6.5338 22.1152667,6.4365 22.7117667,6.41476667 C22.6788,7.17953333 22.1735333,7.81216667 21.8605667,8.48476667 C21.6285667,8.3206 21.3857,8.17406667 21.1351333,8.04063333 C21.3386333,7.87326667 21.5322333,7.69376667 21.7050333,7.49566667 C21.5649,7.52416667 21.4237667,7.55486667 21.2848667,7.58526667 C21.3364,7.4573 21.3876,7.32926667 21.4391333,7.20223333 C21.1120667,7.31806667 20.7236,7.34113333 20.4708,7.6048 C20.4096667,7.54366667 20.3482333,7.48223333 20.2881,7.41983333 C20.3351333,7.35873333 20.4282333,7.23616667 20.4752667,7.17473333 C20.5975333,6.98913333 20.7168667,6.77346667 20.9511333,6.71553333 Z" id="路径" fill="#543E26"></path>
                <path d="M7.7791,7.14653333 C8.49363333,7.1379 9.2082,7.14333333 9.92373333,7.1456 L10.0549333,7.1424 C10.1074,7.1424 10.2114,7.14013333 10.2638667,7.13916667 C10.4040333,7.13916667 10.5438667,7.13823333 10.6840333,7.13823333 C11.4686667,7.1392 12.2542667,7.13823333 13.0386,7.14046667 C14.7925333,7.14716667 16.5477,7.13726667 18.3016333,7.1395 C18.5784333,7.1395 18.8552333,7.16573333 19.1224333,7.23806667 C19.3326667,7.29373333 19.5381,7.36383333 19.7451667,7.4339 C19.8939667,7.48413333 20.0504333,7.5139 20.2078667,7.52253333 C20.2219333,7.5651 20.2494667,7.6483 20.2635667,7.69116667 C20.5502667,7.70203333 20.7931667,7.86843333 21.0427667,7.99196667 C20.8808333,8.40986667 20.5515333,8.71833333 20.2462667,9.03256667 C20.5144333,9.18133333 20.7803333,9.33686667 21.0242,9.52373333 C21.3362,9.2044 21.6238667,8.86166667 21.9083333,8.51833333 C22.0056333,8.5884 22.1042,8.6585 22.2005,8.72953333 C22.4072333,8.88503333 22.6075333,9.04886667 22.7979333,9.22423333 C24.4785667,10.7288 25.3365,12.9639333 25.4929667,15.1785667 C25.5137667,15.4684667 25.5182667,15.7596667 25.5269,16.0496 C25.5202,17.2018667 25.4165,18.3615 25.1144333,19.4763333 C24.9054667,20.2497667 24.6088333,21.0027 24.2030667,21.6941667 C23.9186,22.1328667 23.6133,22.562 23.2456333,22.9360667 C23.0072333,23.1856333 22.7566667,23.425 22.4786,23.6320333 C22.3538,23.5674 22.2302667,23.5040333 22.1054667,23.4406667 C21.8933,23.5587667 21.6962,23.7459667 21.4402,23.7514 C21.0965,23.7744333 20.7781,23.9242 20.4402,23.9834 C20.7685,23.4931667 21.4392333,23.1255 21.3307333,22.4471333 C21.1458,22.4557667 20.9621,22.4647333 20.7781,22.4733667 C20.8405,22.2359333 20.9006667,21.9962667 20.9576333,21.7565667 C20.8965,21.7159333 20.7758667,21.635 20.7157,21.5946667 C20.9224333,21.3639667 21.1336333,21.1339 21.3285,20.891 C20.9128333,20.9860667 20.5374667,21.1918 20.1435667,21.3473 C20.8984333,20.2478333 21.5627667,19.0834 22.1186,17.8712667 C22.4360333,17.1196333 22.8594,16.3743667 22.8693,15.5363333 C22.8978,15.0013 22.5554,14.5386 22.5387333,14.0077333 C22.4917,13.3972 22.4926667,12.6903333 21.9861,12.2561333 C21.1118667,12.4356333 20.2267667,12.2682667 19.3544333,12.1665333 C19.1202,12.1326 18.885,12.1732333 18.6542667,12.2113333 C18.6136333,12.1620333 18.5710667,12.1163 18.5285,12.0702 C18.2571667,11.7979 17.9704333,11.5134333 17.5995667,11.3851 C17.2581,11.3294333 16.9112333,11.3742333 16.5678667,11.3774333 L16.5208333,11.3652667 C16.141,11.2001667 15.7461333,10.9845 15.3173333,11.0609667 C14.9605333,11.0981 14.7483667,11.4219 14.4638667,11.6004667 C14.1707667,11.7863667 13.8795667,11.9812667 13.6574667,12.2526 C13.9506,12.7537 14.477,13.0282667 15.0219667,13.1693667 C15.0034,13.4964 14.9781,13.8224667 14.9496333,14.1485333 C14.6149,14.2602 14.3019667,14.4266 14.0139667,14.6301 C13.8606667,14.2986 13.7886667,13.9363667 13.6408333,13.6039 C13.4834,13.394 13.2645333,13.2394333 13.0664333,13.0698333 C13.0203667,13.2109667 12.9755667,13.3533667 12.9298,13.4954333 C12.829,13.5479333 12.7285333,13.6016667 12.6277333,13.6551 C12.6136333,13.4077667 12.6069333,13.1594333 12.5621333,12.9156 C12.4635667,12.4724333 12.1474,12.1223667 11.9800333,11.7076667 C12.0072333,11.2830333 12.1365333,10.8696 12.1474,10.4427333 C11.9352333,10.5281667 11.7195667,10.6056 11.5115667,10.7 C11.2270667,10.8126333 11.0869333,11.1124667 10.8431,11.2798333 C10.6056333,11.3848 10.3474,11.4241667 10.0978,11.4897333 L10.1294667,11.3988667 C10.3515667,11.204 10.4149333,10.9173 10.4709333,10.6417667 C10.3298,10.7096333 10.1896333,10.7774333 10.0498,10.8462333 C9.8735,10.5989 10.1416333,10.4325 10.2949333,10.2706 C10.0683667,10.0603667 9.76306667,9.8975 9.44916667,10.0114 C8.92276667,10.1950667 8.69076667,10.7793667 8.63733333,11.2936 C8.42163333,11.2990333 8.2063,11.3089667 7.9906,11.3044667 C8.07476667,11.1489667 8.15796667,10.9937667 8.2434,10.8382333 C8.13716667,10.6030667 7.89876667,10.5144333 7.6722,10.4366667 C7.68436667,9.85013333 7.67443333,9.26486667 7.67316667,8.6793 C7.6754,8.50746667 7.6799,8.3369 7.6799,8.16506667 C7.68723333,7.8249 7.637,7.46813333 7.7791,7.14653333 Z" id="路径" fill="#F3EBDB"></path>
                <path d="M21.0430667,7.99133333 C21.0661,8.0035 21.1118667,8.0275 21.1349,8.04063333 C21.3854667,8.17406667 21.6283333,8.3206 21.8603333,8.48476667 L21.9083333,8.51773333 C21.6238667,8.8614 21.3361667,9.20376667 21.0241667,9.52313333 C20.78,9.33593333 20.5144,9.18073333 20.2462667,9.03193333 C20.5515333,8.7177 20.8811333,8.40923333 21.0430667,7.99133333 Z" id="路径" fill="#DCDAD7"></path>
                <path d="M5.8556,12.3035 C6.07,10.7989 6.5295,9.23 7.6796,8.1654 C7.6796,8.33723333 7.6751,8.5078 7.67286667,8.67963333 C6.91126667,9.47736667 6.4716,10.5406667 6.2636,11.612 C6.18263333,11.9764667 6.01943333,12.3143667 5.86873333,12.6526 C5.8588,12.5364667 5.85463333,12.4193333 5.8556,12.3035 Z" id="路径" fill="#A78E32"></path>
                <path d="M22.2005333,8.7289 C22.4040333,8.57243333 22.6098,8.41916667 22.8079,8.25723333 C22.8779667,8.4761 22.9403667,8.69723333 23.0146,8.91386667 C22.9598667,8.99163333 22.8526667,9.1468 22.7979667,9.2236 C22.6075667,9.04826667 22.4075667,8.8841 22.2005333,8.7289 Z" id="路径" fill="#B59544"></path>
                <path d="M6.26353333,11.6119667 C6.47153333,10.5406667 6.9112,9.47733333 7.6728,8.6796 C7.67376667,9.26486667 7.6837,9.85043333 7.67186667,10.437 C7.3109,10.7445 7.14993333,11.2500667 6.68496667,11.4347 C6.62256667,11.7540667 6.49553333,12.0561333 6.30736667,12.3220333 C6.17073333,12.4993 6.02193333,12.6657 5.87633333,12.8353 C5.8741,12.7905 5.8709,12.6986667 5.86866667,12.6526 C6.0197,12.3143667 6.18256667,11.9761333 6.26353333,11.6119667 Z" id="路径" fill="#EBCC73"></path>
                <path d="M9.44873333,10.0111 C9.76266667,9.8972 10.0679333,10.0604 10.2945,10.2703 C10.1412,10.4322 9.87336667,10.5986 10.0493667,10.8459667 C10.1895333,10.7771667 10.3293667,10.7093333 10.4705,10.6415 C10.4148333,10.9173 10.3511333,11.2040333 10.1290667,11.3985667 C9.84233333,11.3569667 9.55146667,11.3525 9.26346667,11.3832333 C9.28106667,11.2113667 9.2929,11.0373 9.33576667,10.8699667 C9.46696667,10.7275667 9.6564,10.6664333 9.8228,10.5800333 C9.722,10.4783 9.64106667,10.3471 9.50986667,10.2834333 C9.19593333,10.3675667 8.8817,10.6063 8.83466667,10.9454667 C8.84233333,11.101 8.8676,11.2552333 8.89033333,11.4104 C8.8388,11.4081667 8.7348,11.4037 8.6836,11.4027333 L8.61896667,11.4005 L8.63656667,11.2933 C8.69066667,10.7790667 8.92266667,10.1947667 9.44873333,10.0111 Z" id="路径" fill="#D7D7D5"></path>
                <path d="M22.4754,10.2232667 C22.7413333,10.1314 23.0094667,10.0450333 23.2795667,9.96823333 C23.4821333,10.3743 23.4143,10.8152333 23.2085333,11.2033667 C23.3071,11.2033667 23.4066,11.2043333 23.5061333,11.2056333 C23.5237333,11.5470333 23.5192333,12.0251 23.1176333,12.1368 C22.8955667,11.6478333 22.3647,11.3633667 22.229,10.8261 C22.2456333,10.6053333 22.3800333,10.4171667 22.4754,10.2232667 Z" id="路径" fill="#E6DED7"></path>
                <path d="M8.83496667,10.9454667 C8.882,10.6062667 9.19593333,10.3679 9.51016667,10.2834 C9.64136667,10.3467667 9.72233333,10.4782667 9.82313333,10.5800333 C9.65673333,10.6664333 9.4676,10.7278667 9.3361,10.8699333 C9.29353333,11.0373 9.28136667,11.2113667 9.26376667,11.3832 C9.17063333,11.3899333 8.98376667,11.4030333 8.89063333,11.4104 C8.86793333,11.2552 8.84263333,11.1009667 8.83496667,10.9454667 Z" id="路径" fill="#F5F2E6"></path>
                <path d="M11.5115333,10.6993667 C11.7195333,10.6053 11.9349,10.5275333 12.1474,10.4421 C12.1365,10.8689667 12.0072333,11.2824 11.9800333,11.707 C12.1473667,12.1217333 12.4635333,12.4718 12.5621,12.9149667 C12.6069,13.1591333 12.6136333,13.4074333 12.6277,13.6544667 C12.7285,13.6007 12.829,13.5472667 12.9298,13.4948 C12.9758667,13.3524 13.0206667,13.2103333 13.0664333,13.0692 C13.2645,13.2388 13.4833667,13.3930333 13.6408333,13.6032667 C13.7886667,13.9357333 13.8606667,14.2979667 14.0139333,14.6294667 C14.3016333,14.4259667 14.6145667,14.2595667 14.9496,14.1479 C14.9781,13.8218333 15.0033667,13.4957667 15.0219333,13.1687333 C15.0229,13.1338667 15.0242,13.0637667 15.0251333,13.0285667 C14.8315333,12.8666667 14.5272333,12.7626667 14.501,12.4737 C14.477,12.1060333 14.7089667,11.7867 14.9681667,11.5511667 C15.0405,11.5665333 15.1137667,11.5841333 15.188,11.5950333 C15.3291333,11.5841333 15.3979333,11.5009333 15.3937667,11.3435 C15.5832,11.3358333 15.7723333,11.3444667 15.9618,11.3556667 C15.7704333,11.6203 15.5262667,11.8667 15.1902667,11.9223667 C15.1893,12.0996333 15.1934667,12.2769333 15.2033667,12.4542 C15.1925,12.6324333 15.1739333,12.8109667 15.1627333,12.9892 L15.1595333,13.1117667 C15.1617667,13.5328667 15.1617667,13.9552667 15.1649667,14.3767 C15.1672333,16.4828333 15.1573,18.5880333 15.1694667,20.6942 C15.1793667,20.7345333 15.2001667,20.8167667 15.2110667,20.8571 C16.1598667,20.7937333 17.2395333,21.0913333 18.0625667,20.4731 C19.2158667,19.6449667 19.6897667,18.1960667 19.8088,16.8361333 C19.9435333,15.2310667 19.6568,13.5130333 18.6545667,12.2100333 C18.8853,12.1716333 19.1208333,12.1313333 19.3547333,12.1652333 C20.2267333,12.267 21.1118667,12.4343333 21.9864,12.2548333 C22.4929667,12.6890667 22.492,13.3959 22.5390667,14.0064667 C22.5553667,14.537 22.8981,15.0000333 22.8696,15.5350333 C22.8597,16.3731 22.4363333,17.1183333 22.1189,17.87 C21.5630667,19.0824333 20.8987333,20.2465667 20.1438333,21.3460333 C20.5377667,21.1905333 20.9131333,20.9851 21.3288,20.8897333 C21.1339333,21.1326 20.9227333,21.3623667 20.7160333,21.5934 C20.7761667,21.6340333 20.8965,21.7149667 20.9579333,21.7553 C20.9009667,21.9949667 20.8408,22.2346333 20.7784,22.4720667 C20.9621,22.4634333 21.1461,22.4544667 21.3310667,22.4458333 C21.4395333,23.1242 20.7685,23.4918667 20.4405,23.9821 C20.7787333,23.9229 21.0971333,23.7731333 21.4405,23.7501 C21.6965,23.7446667 21.8936,23.5574667 22.1057667,23.4394 C22.2305667,23.5027667 22.3541,23.5664333 22.4789,23.6307333 C21.1569667,24.6352 19.4907333,25.1769333 17.8309,25.1395 C16.3864,25.135 14.9422667,25.1462 13.4977667,25.1340667 C12.8718667,25.1363 12.2449667,25.1350333 11.6190667,25.1363 C11.1595333,25.1363 10.6987333,25.1363 10.2392333,25.1385333 C10.1045,25.1375667 9.9701,25.1363 9.8354,25.1363 C9.22163333,25.1340667 8.6066,25.1580667 7.9938,25.1318333 C7.7781,25.1494333 7.6917,24.9097333 7.69073333,24.7347 C7.66323333,24.2477 7.6885,23.761 7.68083333,23.2739667 C7.68626667,22.7181333 7.68946667,22.1613667 7.67530484,21.6052333 C7.67313333,21.3623667 7.71156667,21.1236333 7.7685,20.8884667 C8.541,20.8097333 9.31666667,20.9102 10.0914,20.8567667 C10.0914,20.5921333 10.0923333,20.3272 10.0923333,20.0635333 C10.0923333,19.86 10.0923333,19.6565 10.0945667,19.4539333 C10.1416333,19.6312333 10.1995333,19.8053 10.2565,19.9803333 C10.6219333,19.9125 11.0280333,19.8193667 11.3035333,20.1432 C11.9480333,19.5720333 12.8977667,19.5995333 13.668,19.2830667 C13.8353667,18.8475667 14.2261,18.4962 14.1745667,17.9941667 C14.1438667,17.9874333 14.0805,17.9733667 14.0498,17.9656667 C13.2434,17.7119333 12.4894667,18.2338333 11.7016333,18.294 C11.1774667,18.2447 10.6718667,17.9909667 10.3349,17.5849 C10.3634,17.4690667 10.3950667,17.3529 10.4258,17.2380333 C10.3480333,17.1733667 10.2702667,17.1090667 10.1928333,17.0444333 C10.1842,16.8102 10.1806667,16.5759667 10.1937667,16.343 C10.2648333,16.0671667 10.4488333,15.8518333 10.7016333,15.7248 C10.7825667,15.3110333 10.8494667,14.8953667 10.9214667,14.4806667 C10.7058,14.2083667 10.4149,14.0179667 10.0910667,13.8986 L10.0910667,13.8669333 C10.0888333,13.5892 10.0888333,13.3120667 10.0910667,13.0343333 C10.0965,12.555 10.0910667,12.0759667 10.0888333,11.5966333 C10.0910667,11.5694333 10.0955333,11.5147 10.0974667,11.4881333 C10.3470667,11.4225333 10.6053,11.3832 10.8427333,11.2782333 C11.0869,11.1118333 11.2270667,10.812 11.5115333,10.6993667 Z" id="路径" fill="#F8F3E4"></path>
                <path d="M6.68503333,11.4347333 C7.15,11.2498 7.31096667,10.7442 7.67193333,10.437 C7.6764,10.7128333 7.68183333,10.9883333 7.6895,11.2641667 C7.76503333,11.2741 7.9148,11.2949 7.9903,11.3048333 C8.206,11.3093 8.42136667,11.2994 8.63703333,11.2939333 L8.61943333,11.4011333 C8.32503333,11.3957 8.03063333,11.3944333 7.73656667,11.3889667 C7.7004,11.5541 7.67543333,11.7205 7.66646667,11.8891333 C7.09206667,12.1124667 6.74743333,12.6398 6.278,13.0062 C6.28246667,12.7774 6.28793333,12.5499 6.30743333,12.3224 C6.4956,12.0561667 6.62263333,11.7541 6.68503333,11.4347333 Z" id="路径" fill="#F4EFC8"></path>
                <path d="M7.67186667,10.4367 C7.89843333,10.5144333 8.13683333,10.6030667 8.24306667,10.8382667 C8.15763333,10.9938 8.07443333,11.1489667 7.99026667,11.3045 C7.91476667,11.2945667 7.765,11.2737667 7.68946667,11.2638667 C7.6818,10.9883667 7.67636667,10.7125 7.67186667,10.4367 Z" id="路径" fill="#FCFCF4"></path>
                <path d="M14.4634667,11.5998333 C14.7479333,11.4216 14.9601,11.0977667 15.3169,11.0603333 C15.7457,10.9838667 16.1409,11.1992333 16.5204333,11.3646667 C16.3332333,11.3601667 16.1473,11.3637 15.9614,11.356 C15.7719333,11.3451333 15.5828333,11.3361667 15.3934,11.3438667 C15.2391333,11.3525 15.1700333,11.4369667 15.1876333,11.5953667 C15.1130667,11.5844667 15.0398,11.5668667 14.9678,11.5515333 C14.7086,11.7867 14.4766,12.1063667 14.5006,12.4740333 C14.5268333,12.763 14.8311333,12.867 15.0247333,13.0289 C15.0238,13.0638 15.0225,13.1338667 15.0215333,13.1690667 C14.4766,13.0279333 13.9501667,12.7534 13.6570667,12.2523 C13.8791333,11.9806333 14.1703333,11.7857667 14.4634667,11.5998333 Z" id="路径" fill="#D7D7D5"></path>
                <path d="M7.73643333,11.3886333 C8.03083333,11.3940667 8.32523333,11.3953333 8.6193,11.4008 L8.68393333,11.4030333 C8.80106667,11.636 8.96296667,11.8439667 9.1937,11.9742 C9.26473333,12.0299 9.33483333,12.0881333 9.40393333,12.147 C9.17416667,12.4993 8.83723333,12.7783333 8.67176667,13.1722667 C8.50763333,13.2391333 8.3457,13.3101667 8.18056667,13.3703333 C8.1457,13.3472667 8.0756,13.3024667 8.0404,13.2794333 C8.07433333,13.2215333 8.13993333,13.1066667 8.1729,13.0487333 C8.0481,13.0193 7.92233333,12.9895333 7.79753333,12.9601 C7.73193333,12.6055667 7.6849,12.2487667 7.66633333,11.8887667 C7.67496667,11.7201333 7.70026667,11.5537333 7.73643333,11.3886333 Z" id="路径" fill="#E5C66B"></path>
                <path d="M8.68393333,11.4027 C8.73543333,11.4036667 8.83943333,11.4081333 8.89063333,11.4103667 C8.8644,11.8523 9.37,11.8011 9.66536667,11.7550333 C9.53286667,11.628 9.4007,11.5035 9.26376667,11.3828667 C9.55143333,11.3521333 9.84263333,11.3566333 10.1293667,11.3982333 L10.0976667,11.4891 C10.0954333,11.5153333 10.0909667,11.5700667 10.0890333,11.5976 C9.762,11.6644667 9.5431,12.0078 9.194,11.9739 C8.96296667,11.8436667 8.80103333,11.6359667 8.68393333,11.4027 Z" id="路径" fill="#242110"></path>
                <path d="M8.8908,11.4104 C8.9839,11.4027333 9.1708,11.3896333 9.2639,11.3832333 C9.40053333,11.5035333 9.53303333,11.6283333 9.6655,11.7553667 C9.37013333,11.8011333 8.86456667,11.8526333 8.8908,11.4104 Z" id="路径" fill="#938357"></path>
                <path d="M15.1880667,11.5953667 C15.1704667,11.4366667 15.2396,11.3525 15.3938333,11.3438667 C15.398,11.5013 15.3292,11.5845 15.1880667,11.5953667 Z" id="路径" fill="#CDBD83"></path>
                <path d="M15.9614333,11.3556667 C16.1473333,11.3633667 16.3335667,11.3601667 16.5204667,11.3643 L16.5675,11.3764667 C16.8116667,11.5329333 17.0523,11.7015667 17.2526333,11.9147 C17.0219,12.4094 16.6113333,12.8260333 16.1038333,13.0349667 C15.7985333,13.1268 15.4734333,13.0961 15.1595,13.1114667 L15.1627,12.9889 C15.3992,12.9866667 15.6353333,12.978 15.8728,12.9649 C15.6123,12.8468333 15.3617667,12.699 15.2030333,12.4538667 C15.1931,12.2766 15.1889333,12.0993333 15.1899,11.9220333 C15.5259,11.8667 15.7700667,11.6206333 15.9614333,11.3556667 Z" id="路径" fill="#252211"></path>
                <path d="M16.5678333,11.3764667 C16.9115,11.3732667 17.2583667,11.3284667 17.5995,11.3841333 C17.9703667,11.5121333 18.2571,11.7966333 18.5284667,12.0692333 C18.1784,12.4314667 17.9496,12.8823333 17.6497333,13.2817 C17.3531,13.6896667 16.8193333,13.7597667 16.4014333,13.9895 C16.0174333,14.1975 15.6027,14.3427667 15.1649333,14.3767 C15.1617333,13.9555667 15.1617333,13.5332 15.1595,13.1117667 C15.4734333,13.0964 15.7985333,13.1271333 16.1038333,13.0353 C16.6116667,12.8263333 17.0219,12.4094 17.2526333,11.915 C17.0523,11.7016 16.8116667,11.5329333 16.5678333,11.3764667 Z" id="路径" fill="#D2B257"></path>
                <path d="M9.19413333,11.9739333 C9.54323333,12.0078333 9.76213333,11.6641667 10.0891667,11.5976 C10.0914,12.0769667 10.0968667,12.5559667 10.0914,13.0353333 C9.8287,13.0999667 9.55413333,13.2398 9.28403333,13.1380333 C9.08053333,13.0570667 8.86836667,13.0801333 8.67253333,13.1719667 C8.83763333,12.7780333 9.1746,12.4990333 9.4047,12.1467333 C9.33523333,12.0878333 9.26516667,12.0299333 9.19413333,11.9739333 Z" id="路径" fill="#E6BD62"></path>
                <path d="M16.0043667,11.6337333 C16.3586,11.6632 15.8203667,11.963 16.0043667,11.6337333 L16.0043667,11.6337333 Z" id="路径" fill="#696148"></path>
                <path d="M6.27796667,13.0058667 C6.7474,12.6391667 7.09206667,12.1118333 7.66646667,11.8888 C7.68503333,12.2487667 7.73206667,12.6055667 7.79766667,12.9601 C7.92246667,12.9895667 8.0482,13.0193 8.173,13.0487667 C8.14006667,13.1066667 8.07446667,13.2215333 8.04053333,13.2794667 C7.66966667,13.5607333 7.18806667,13.7696667 7.00533333,14.2301333 C6.79733333,14.7946 6.81813333,15.4074 6.7407,15.9971333 C6.60596667,15.8637 6.4047,15.7529667 6.41686667,15.5353667 C6.3884,15.0922 6.5055,14.6567 6.53173333,14.2170333 C6.32726667,14.5146333 6.20343333,14.8560333 6.08086667,15.193 C6.02516667,15.4051333 5.77653333,15.4512333 5.61463333,15.5574667 C5.44823333,15.6185667 5.2831,15.6822667 5.1167,15.7433667 C5.1375,15.5597 5.16373333,15.377 5.1967,15.1942667 C5.3663,15.1779667 5.53686667,15.1613 5.70773333,15.1427333 C5.52183333,15.1504333 5.33686667,15.1613 5.1519,15.1722 C5.28213333,14.3722333 5.37076667,13.5015333 5.87636667,12.835 C6.02196667,12.6654 6.17076667,12.499 6.30743333,12.3217333 C6.2879,12.5495667 6.28246667,12.7770667 6.27796667,13.0058667 Z" id="路径" fill="#F4ECB4"></path>
                <path d="M16.1115,12.0452667 C16.443,11.8888 16.1454,12.4017333 16.1115,12.0452667 L16.1115,12.0452667 Z" id="路径" fill="#71694F"></path>
                <path d="M18.5284667,12.0692667 C18.5710333,12.1153333 18.6139,12.1611 18.6542333,12.2103667 C19.6564667,13.5133667 19.9432,15.2313667 19.8084667,16.8364333 C19.6366333,16.9295667 19.4616,17.0182 19.2996667,17.1286 C19.0216,17.319 18.8696,17.6428 18.5918333,17.8332 C18.1048,18.0760667 17.4923,18.0181667 17.0587,18.3759 C16.8113333,18.6559 16.6430333,19.0005333 16.3540667,19.2446667 C16.5083,19.4011333 16.6747,19.5467333 16.8168,19.7150667 C16.8913667,19.8453 16.8638333,20.0126333 16.9384,20.1438333 C17.0772667,20.2555 17.236,20.3406333 17.388,20.4350333 C16.9940667,20.4942333 16.5947,20.4798333 16.1998333,20.4273667 C15.8312,20.3572667 15.4984,20.5662333 15.1691,20.6942333 C15.1569333,18.5880667 15.1668667,16.4828667 15.1646333,14.3767 C15.6024,14.3427667 16.0171,14.1971667 16.4011,13.9895 C16.8190333,13.7597667 17.3531,13.6896667 17.6494333,13.2817 C17.9496,12.8820333 18.1784,12.4314667 18.5284667,12.0692667 Z" id="路径" fill="#DFCD88"></path>
                <path d="M15.2034,12.4542333 C15.3621333,12.6993333 15.6127,12.8471667 15.8731667,12.9652333 C15.6357333,12.9783667 15.3992333,12.987 15.1631,12.9892333 C15.1736333,12.811 15.1922,12.6327667 15.2034,12.4542333 Z" id="路径" fill="#DFCD88"></path>
                <path d="M8.67186667,13.1722667 C8.8677,13.0804333 9.07986667,13.0574 9.28336667,13.1383667 C9.55376667,13.2401333 9.82833333,13.0999667 10.0907333,13.0356333 C10.0885,13.3134 10.0885,13.5905 10.0907333,13.8682667 C9.5688,13.6845667 9.02513333,13.5399333 8.46576667,13.5706667 C8.37073333,13.5028333 8.27536667,13.4359333 8.18033333,13.3703333 C8.3461,13.3098667 8.50803333,13.2388333 8.67186667,13.1722667 Z" id="路径" fill="#DFC57C"></path>
                <path d="M7.00563333,14.2301333 C7.18833333,13.7693667 7.66993333,13.5604 8.04083333,13.2794667 C8.0757,13.3025 8.1458,13.3473 8.181,13.3703333 C8.27603333,13.4359333 8.3714,13.5028 8.46643333,13.5706667 C7.96753333,13.5869667 7.47506667,13.9088667 7.41586667,14.4339667 C7.32946667,15.1014667 7.09843333,15.7414667 7.03603333,16.4112 C6.97043333,16.8924667 7.4146,17.2076333 7.55346667,17.6278 C7.59603333,17.8565667 7.61043333,18.0895333 7.66833333,18.3148 C7.60146667,18.6069667 7.54353333,18.9013333 7.4978,19.1967 C7.4005,19.1989333 7.30193333,19.2021333 7.20466667,19.2053333 C7.10193333,19.4437333 6.9781,19.6757 6.90033333,19.9253 C6.989,20.4056 7.14643333,20.8728 7.25713333,21.3499 C7.2354,21.4036667 7.19026667,21.5118 7.1685,21.5655667 C6.9301,21.3063667 6.79443333,20.9441333 6.47923333,20.7646333 C6.39826667,20.628 6.3106,20.4964667 6.22963333,20.3608 C5.74483333,19.5358667 5.4133,18.6156 5.2658,17.6703333 C5.3106,17.3913333 5.36433333,17.1135667 5.4101,16.8355 C5.6114,17.2348333 5.58963333,17.7218667 5.85873333,18.086 C6.04146667,18.038 6.22546667,17.9929 6.4114,17.9602667 L6.50323333,18.0697 C6.69586667,17.7906667 6.8773,17.4908333 6.9125,17.1452333 C6.78673333,17.3158 6.66963333,17.4930667 6.5634,17.6770667 C6.4101,17.4364333 6.22866667,17.2066667 6.14003333,16.9331 C6.09073333,16.6169333 6.10163333,16.2963 6.07666667,15.9789 C5.9618,16.0006333 5.84786667,16.0227333 5.733,16.0476667 L5.8149,15.9558333 C5.91666667,15.8419333 6.01393333,15.7251333 6.1125,15.6089667 C5.97683333,15.5913667 5.84113333,15.5696 5.7045,15.5619333 L5.6149,15.5574667 C5.77683333,15.4512333 6.02513333,15.4054667 6.08113333,15.193 C6.2037,14.8560333 6.32723333,14.5146333 6.53203333,14.2170333 C6.5058,14.6570333 6.38866667,15.0922 6.41713333,15.5354 C6.405,15.7529667 6.6066,15.8637 6.741,15.9971333 C6.81843333,15.4074 6.79763333,14.7946 7.00563333,14.2301333 Z" id="路径" fill="#F3E19D"></path>
                <path d="M7.41586667,14.4336667 C7.47506667,13.9085667 7.96723333,13.5866667 8.46643333,13.5703333 C9.02546667,13.5396 9.56946667,13.6842667 10.0913667,13.8679333 L10.0913667,13.8996 C10.0945667,14.3885667 10.0881667,14.8765333 10.0936,15.3658 L10.0926667,15.4566667 C9.9285,15.6163333 9.7733,15.7859333 9.61553333,15.9533 C9.34866667,16.1808 9.00593333,16.2717 8.67346667,16.3571333 C8.6581,16.4281667 8.62736667,16.5705667 8.61233333,16.6416 C8.59473333,16.7203 8.56083333,16.8790333 8.54353333,16.9577333 C8.0741,16.5222333 7.79953333,15.9379333 7.48753333,15.3907667 C7.31313333,15.0999 7.3797,14.7498333 7.41586667,14.4336667 Z" id="路径" fill="#252211"></path>
                <path d="M10.0910667,13.8996333 C10.4149,14.0189667 10.7061,14.2093667 10.9214667,14.4816667 C10.8491667,14.8963667 10.7826,15.3120333 10.7016333,15.7258 C10.4488333,15.8528333 10.2651333,16.0681667 10.1938,16.344 C10.2114,16.0134667 10.1576333,15.6874 10.093,15.3658 C10.0878667,14.8768667 10.0946,14.3888667 10.0910667,13.8996333 Z" id="路径" fill="#DFDDD9"></path>
                <path d="M2.64843667,14.0397667 C2.99755667,13.9949667 3.35083333,14.0330667 3.70093333,14.0125667 L3.54666667,14.2084 C4.0894,14.1677667 4.64203333,14.2074333 5.1662,14.3594333 C4.68586667,14.2631333 4.19786667,14.1889 3.70763333,14.226 C3.52586667,14.2468 3.36396667,14.1626333 3.21516,14.0705 C3.03916,14.0561 2.76011667,14.2477667 2.64843667,14.0397667 Z" id="路径" fill="#D6D6D5"></path>
                <path d="M7.03623333,16.4108667 C7.09863333,15.7411333 7.32936667,15.1011667 7.4161,14.4336667 C7.37993333,14.7498333 7.31336667,15.0998667 7.48713333,15.3910667 C7.79913333,15.9382667 8.0737,16.5225667 8.54313333,16.9580667 C8.56073333,16.8793333 8.59463333,16.7206333 8.61193333,16.6419 C8.78376667,16.6496 8.9556,16.6595 9.1284,16.6704 C9.36906667,16.8652667 9.62856667,17.0403 9.83623333,17.2732667 C10.0605667,16.8464 9.7444,16.4284667 9.78696667,15.9897667 C9.7444,15.9811333 9.658,15.9622667 9.61513333,15.9536333 C9.77256667,15.7862667 9.9281,15.6166667 10.0922333,15.457 C10.09,16.2022667 10.0932,16.9484667 10.0932,17.6934 C9.25063333,17.4306667 8.35113333,17.1254 7.4705,17.4079667 C8.2945,17.7842667 9.22346667,17.8140333 10.0922333,18.0415333 C10.0922333,18.2876 10.09,18.534 10.0877667,18.7800667 C9.68616667,18.9605333 9.32073333,19.2101333 8.93,19.4123667 C8.52296667,19.1388 8.22633333,18.7372 7.8228,18.4594667 C7.7844,18.4233 7.70696667,18.3509667 7.66856667,18.3151333 C7.61066667,18.0898667 7.59623333,17.8566 7.5537,17.6281 C7.4148,17.2073333 6.97033333,16.8921333 7.03623333,16.4108667 Z" id="路径" fill="#6E6342"></path>
                <path d="M3.68913333,15.6438333 C4.10833333,15.4118667 4.5832,15.3078667 5.04816667,15.2160333 C4.9989,15.3209667 4.91696667,15.3846667 4.804,15.4086667 C4.4408,15.5181 4.0741,15.6448 3.68913333,15.6438333 Z" id="路径" fill="#BFA64C"></path>
                <path d="M25.493,15.1776 C25.7106,15.7510333 25.6965333,16.3801333 25.9208333,16.9522667 C26.1461333,17.7663 26.6014667,18.5541333 26.5205333,19.4229 C26.4088333,19.2411333 26.3048333,19.0475667 26.3138,18.8277333 C26.3160333,18.3583 26.0655,17.9490333 25.9506,17.5058333 C25.8149333,17.0178667 25.6738,16.5321333 25.5272333,16.0483 C25.5183,15.7587 25.5138,15.4675333 25.493,15.1776 Z" id="路径" fill="#988430"></path>
                <path d="M10.0932667,15.3658 C10.1579,15.6874 10.2113333,16.0134667 10.1940667,16.344 C10.1809333,16.5769667 10.1841667,16.8112 10.1931,17.0454333 C10.2708667,17.1100667 10.3486333,17.1743667 10.4260667,17.2390333 C10.3953667,17.3539 10.3636667,17.4700333 10.3352,17.5858667 C10.2926333,17.7554667 10.2859,17.9318 10.2881667,18.1068333 C11.4808,18.5269667 12.9745333,18.8200667 14.0500667,17.9666667 C14.0807667,17.9743333 14.1441333,17.9884333 14.1748667,17.9951333 C14.2264,18.4972 13.8356667,18.8485667 13.6683,19.2840667 C12.8980667,19.6002 11.9483,19.573 11.3038333,20.1442 C11.028,19.8203667 10.6222333,19.9134667 10.2568,19.9813 C10.1998333,19.8062667 10.1419,19.6322 10.0948667,19.4549333 C10.0849667,19.2296667 10.0872,19.0053333 10.0881667,18.7797667 C10.0904,18.5336667 10.0926333,18.2873 10.0926333,18.0412333 C10.0936,17.9254 10.0936,17.8092333 10.0936,17.6934 C10.0936,16.9481333 10.0904,16.2019333 10.0926333,15.457 L10.0932667,15.3658 Z" id="路径" fill="#E7E3DB"></path>
                <path d="M5.70443333,15.5616 C5.84106667,15.5693 5.97676667,15.5910333 6.11243333,15.6086333 C6.01386667,15.7244667 5.9166,15.8416 5.81483333,15.9555 C5.58956667,16.0713333 5.3617,16.1807667 5.13643333,16.2969333 C5.13323333,16.1811 5.12426667,15.9478333 5.12013333,15.832 C5.31276667,15.7369667 5.50636667,15.6425667 5.70443333,15.5616 Z" id="路径" fill="#F5EDB6"></path>
                <path d="M5.73303333,16.0476667 C5.8479,16.0224 5.96183333,16.0006333 6.0767,15.9788667 C6.102,16.2963 6.0908,16.6166333 6.14006667,16.9331 C6.2287,17.2066667 6.41046667,17.4364333 6.56343333,17.6770667 C6.50966667,17.7701667 6.45943333,17.8642667 6.41143333,17.9605667 C6.2255,17.9935333 6.0415,18.0383333 5.8588,18.0863333 C5.58966667,17.7218667 5.61143333,17.2351667 5.41013333,16.8358 C5.36406667,17.1139 5.31063333,17.3916333 5.26583333,17.6706667 C5.20886667,17.255 5.15,16.8367667 5.1455,16.4166333 C5.29653333,16.2390333 5.54166667,16.1721667 5.73303333,16.0476667 Z" id="路径" fill="#F4ECB4"></path>
                <path d="M8.6731,16.3571 C9.00556667,16.2716667 9.3483,16.1808 9.61516667,15.9533 C9.65773333,15.9619333 9.74413333,15.9808 9.78703333,15.9894333 C9.74446667,16.4281667 10.0606,16.8460667 9.8363,17.2729333 C9.6283,17.0399667 9.3691,16.8649333 9.12846667,16.6700667 C8.95566667,16.6591667 8.78383333,16.6492667 8.61196667,16.6416 C8.62703333,16.5705333 8.65773333,16.4284667 8.6731,16.3571 Z" id="路径" fill="#39331F"></path>
                <path d="M25.5268667,16.0486667 C25.6734333,16.5321667 25.8145667,17.0182333 25.9502333,17.5062 C26.0651,17.9494 26.3156667,18.3586667 26.3134333,18.8280667 C26.3048,19.0479 26.4084667,19.2418333 26.5201667,19.4232667 C26.4369667,20.0414667 26.7620667,20.6136333 26.7300667,21.2276667 C26.7224,21.4542333 26.6961667,21.6807667 26.684,21.9083 C26.6020667,21.7681333 26.5044667,21.6379 26.4004667,21.5144 C26.2811,21.883 26.3598333,22.3383667 26.0590333,22.6260333 C25.9278333,22.4401 25.8622333,22.1313333 25.5940667,22.1041333 C25.2056,22.0417333 24.8433667,22.2321 24.5832,22.5066667 C24.2408,22.8730667 23.7112,22.8897 23.2449667,22.9354667 C23.6126333,22.5614 23.9179,22.1323 24.2024,21.6935667 C24.4561667,21.7735667 24.6270333,21.5470333 24.8161667,21.4244667 C25.0033667,21.2657667 25.2484667,21.2123 25.4574333,21.0907333 C25.6347,20.8107333 25.7659,20.4977667 25.8404667,20.1749 C25.7803,19.9627667 25.6808,19.7647 25.6324667,19.5490333 C25.5230333,19.5752667 25.4158333,19.6015 25.3073667,19.6277333 C25.2593667,19.5893333 25.1617333,19.5138333 25.1137333,19.4757333 C25.4164667,18.3605667 25.5204667,17.2009333 25.5268667,16.0486667 Z" id="路径" fill="#CCA847"></path>
                <path d="M4.65423333,16.5279667 C4.81836667,16.4524667 4.82063333,16.6681333 4.6872,16.7020333 C4.57136667,16.7612333 4.43216667,16.8825333 4.2955,16.8246 C4.28976667,16.6547 4.52813333,16.5903667 4.65423333,16.5279667 Z" id="路径" fill="#C1A956"></path>
                <path d="M19.3,17.1286333 C19.4619,17.0182333 19.6369333,16.9295667 19.8087667,16.8364667 C19.6894333,18.1964333 19.2158333,19.645 18.0625333,20.4734667 C17.2398333,21.0916667 16.1598333,20.7941 15.2110333,20.8574333 C15.2001667,20.8171333 15.1793667,20.7349 15.1694333,20.6945667 C15.4987,20.5665667 15.8315,20.3576333 16.2001667,20.4277 C16.5950333,20.4801667 16.9944,20.4945667 17.3883,20.4353667 C17.2363,20.3413 17.0776,20.2558667 16.9387,20.1442 C16.8641333,20.013 16.8916667,19.8453333 16.8171,19.7154 C16.6747,19.5467667 16.5086333,19.4015 16.3544,19.2450333 C16.6433667,19.0012 16.8116667,18.6562333 17.0590333,18.3762667 C17.4923,18.0185 18.1051,18.0764333 18.5921333,17.8335667 C18.8699,17.6428333 19.0219,17.3190333 19.3,17.1286333 Z" id="路径" fill="#ECD592"></path>
                <path d="M6.5633,17.6767667 C6.66953333,17.4930667 6.78663333,17.3158 6.9124,17.1449333 C6.87753333,17.4908333 6.69576667,17.7903667 6.50313333,18.0694 L6.4113,17.9599333 C6.4596,17.8639667 6.50983333,17.7698667 6.5633,17.6767667 Z" id="路径" fill="#D7C27C"></path>
                <path d="M7.47053333,17.4076333 C8.3515,17.1254 9.2507,17.4306667 10.0932667,17.6930667 C10.0932667,17.8089 10.0932667,17.9250333 10.0923,18.0409 C9.2235,17.8133667 8.29453333,17.7839333 7.47053333,17.4076333 Z" id="路径" fill="#242110"></path>
                <path d="M10.2881333,18.1068 C10.2859,17.9317667 10.2926333,17.7554667 10.3351667,17.5858667 C10.6721333,17.9919333 11.1777333,18.2456667 11.7019,18.2949667 C12.4897333,18.2348 13.2436333,17.7129 14.0500333,17.9666333 C12.9742,18.8200667 11.4807667,18.5269333 10.2881333,18.1068 Z" id="路径" fill="#D6D6D5"></path>
                <path d="M7.6687,18.3148333 C7.7071,18.3509667 7.78453333,18.4233 7.82293333,18.4591333 C7.8623,18.9919 8.1839,19.4383 8.4335,19.8936333 C8.63606667,20.2699333 8.97846667,20.5435333 9.32856667,20.7765 C9.5759,20.8453 9.8364,20.8366333 10.0911,20.8574333 C9.3164,20.9112 8.5407,20.8104 7.76823333,20.8891333 C7.71126667,21.1243 7.6732,21.3630333 7.6751,21.6059 C7.53623333,21.5204667 7.39703333,21.4353333 7.2572,21.3499 C7.1468,20.8728 6.98903333,20.4056333 6.9004,19.9253333 C6.97816667,19.6757333 7.10166667,19.4440667 7.2047,19.2053333 C7.302,19.2021333 7.40056667,19.1986333 7.49783333,19.1967 C7.5439,18.9010333 7.60183333,18.6069667 7.6687,18.3148333 Z" id="路径" fill="#EED88B"></path>
                <path d="M7.82293333,18.4591 C8.22676667,18.7368667 8.52306667,19.1384333 8.9301,19.4120333 C9.04403333,19.5138 9.149,19.6241667 9.25843333,19.7304333 C9.4981,19.9208 9.80436667,19.9819333 10.0923667,20.0641667 C10.0923667,20.3278333 10.0914,20.5928 10.0914,20.8574333 C9.83636667,20.8366333 9.57586667,20.8452667 9.32883333,20.7764667 C8.97876667,20.5435 8.63636667,20.2699333 8.4338,19.8936 C8.18386667,19.4382667 7.86226667,18.9919 7.82293333,18.4591 Z" id="路径" fill="#DFC677"></path>
                <path d="M8.93,19.4120333 C9.32073333,19.2095 9.68616667,18.9602333 10.0877667,18.7797333 C10.0868,19.005 10.0845667,19.2293333 10.0945,19.4549333 C9.8033,19.501 9.4641,19.4757333 9.25866667,19.7307667 C9.1489,19.6245333 9.04393333,19.5138 8.93,19.4120333 Z" id="路径" fill="#927D49"></path>
                <path d="M9.25846667,19.7304333 C9.46423333,19.4754 9.80343333,19.5006667 10.0943,19.4546 C10.0920667,19.6571333 10.0920667,19.8606667 10.0920667,20.0641667 C9.8047,19.9822667 9.49813333,19.9208 9.25846667,19.7304333 Z" id="路径" fill="#C4A859"></path>
                <path d="M25.1143333,19.4753667 C25.1623333,19.5137667 25.2599,19.5893 25.3079,19.6273667 C25.4164,19.6011333 25.5236,19.5749 25.6330333,19.5486667 C25.6810333,19.7643333 25.7808667,19.9624 25.8410333,20.1745667 C25.7664667,20.4974333 25.6352667,20.8103667 25.458,21.0903667 C25.2490333,21.2119667 25.0039333,21.2654 24.8167333,21.4241 C24.6272667,21.5466667 24.4567333,21.7732333 24.2029667,21.6932333 C24.6087333,21.0020333 24.9053667,20.2491 25.1143333,19.4753667 Z" id="路径" fill="#C0993A"></path>
                <path d="M6.22963333,20.3608 C6.3106,20.4964667 6.39826667,20.6276667 6.47923333,20.7646333 C6.70996667,21.6596333 7.0274,22.5972 7.6805,23.2746333 C7.6882,23.7616333 7.6629,24.2483333 7.69043333,24.7353667 C7.6914,24.9104 7.77813333,25.1500667 7.99346667,25.1324667 C8.60626667,25.1587 9.2213,25.1347 9.83506667,25.1369333 C9.59666667,25.4521333 9.77043333,25.8262 9.77716667,26.1775667 C9.78386667,26.5913 10.0014667,26.9577 10.0648333,27.3592667 C9.89203333,27.797 9.60306667,28.1742667 9.37426667,28.5826 C9.14546667,28.6165 8.9058,28.5256333 8.68596667,28.5893 C8.5557,28.7688333 8.4834,29.0225667 8.23506667,29.0709 C7.06196667,28.3422667 5.95796667,27.4920667 5.01173333,26.4821667 C5.43093333,25.6319667 5.78516667,24.7097667 5.7042,23.7434 C5.64083333,23.3450333 5.9426,23.0279 6.005,22.6525667 C5.99506667,22.4314667 5.82866667,22.2577 5.72916667,22.0692333 C6.08533333,21.571 6.21556667,20.9636667 6.22963333,20.3608 Z" id="路径" fill="#E5CB7A"></path>
                <path d="M6.47916667,20.7643333 C6.79436667,20.9438333 6.93006667,21.3060667 7.16846667,21.5652667 C7.1902,21.5115 7.23533333,21.4033333 7.2571,21.3495667 C7.39723333,21.435 7.53613333,21.5201333 7.675,21.6055667 C7.6891,22.1614 7.6859,22.7181667 7.68043333,23.2743 C7.02733333,22.5972 6.7102,21.6596667 6.47916667,20.7643333 Z" id="路径" fill="#D2B159"></path>
                <path d="M26.4011333,21.5140333 C26.5051333,21.6375667 26.6024,21.7678 26.6846333,21.9079333 C26.7403,22.5578333 26.8859333,23.1991 26.8926333,23.8544333 C26.9089667,24.7385667 26.9220667,25.6227 26.9636667,26.5055333 C25.98,27.5461333 24.8398333,28.4443667 23.5957,29.1512 C23.124,28.8129667 22.5813,29.0747333 22.1512,29.3438333 C22.2312,29.1864 22.3502333,29.0584 22.4837,28.9454667 C22.7473667,28.7256333 22.8504,28.3710667 23.1259333,28.1621333 C23.4104,27.9061333 23.7912,27.7605333 24.0155333,27.4412 C24.2421,26.9522333 24.7364667,26.6863333 25.0340667,26.2495667 C25.3118333,25.8502 25.7694333,25.4825333 25.7265667,24.9484667 C25.7067333,24.4899333 25.7998333,24.0403333 25.8536,23.5885333 C25.8689667,23.2592667 25.9192,22.9264667 26.0593667,22.6256667 C26.3608,22.338 26.2820667,21.8826667 26.4011333,21.5140333 Z" id="路径" fill="#BA9040"></path>
                <path d="M24.5838,22.5063333 C24.8442667,22.2317667 25.2065333,22.0413667 25.5947,22.1037667 C25.8628333,22.1309667 25.9284333,22.4397667 26.0596333,22.6256667 C25.9195,22.9264667 25.8692333,23.2592667 25.8539,23.5885333 C25.8001333,24.0403333 25.7073333,24.4902333 25.7268333,24.9484667 C25.7694,25.4825333 25.3121333,25.8502 25.0343667,26.2495333 C24.7367667,26.686 24.2420333,26.9519333 24.0158,27.4411667 C23.8570667,27.4421333 23.6983667,27.4443667 23.5399667,27.4466333 C23.9393333,26.8361 24.1898667,26.1478 24.5073333,25.4956333 C24.5806,25.3884667 24.5489333,25.2703667 24.5118,25.1587 C24.4363,24.9705667 24.5316333,24.7756667 24.5217333,24.5830333 C24.4887667,24.3849667 24.4058667,24.2 24.3399667,24.0118667 C24.0017333,23.9494667 23.6615667,23.8630667 23.3156333,23.8826 C22.8855667,23.9603333 22.5879667,24.3203333 22.2007667,24.4909 C22.0158,24.5696 21.8068333,24.5894333 21.635,24.6988667 C21.2913333,24.9910333 21.2094,25.5007667 20.811,25.7436333 C20.4225333,26.0082667 20.0801333,26.3311333 19.7156333,26.6265 C19.5012333,26.8268 19.1882667,26.678 18.9300333,26.7205667 C18.7025333,26.8364 18.5428667,27.0488667 18.3271667,27.1832667 C18.0481333,27.2773333 17.7175667,27.238 17.4859,27.4459667 C17.1073333,27.7743 16.5502,27.6802 16.1499,27.9723667 C15.6967667,28.2030667 15.4932333,28.7141 15.0599667,28.9691333 C14.7339,29.164 14.4766,29.4472 14.2174,29.7207667 C14.1473333,29.6343667 14.0772667,29.5489333 14.0084667,29.4635 C13.6475,29.6724667 13.3531,30.0071667 12.9307,30.0958 C12.7796667,29.9163 12.6331,29.6974333 12.3726333,29.6865333 C12.4151667,29.5988667 12.4567667,29.5115 12.4961333,29.4228667 C12.4065333,29.3070333 12.3047667,29.1921667 12.1415667,29.2161667 C11.7454,29.1681667 11.3473333,29.2523 10.9511667,29.2228667 C10.6820667,29.0795333 10.4532667,28.8619333 10.2913333,28.6037 C10.5956667,28.2414667 10.7367667,27.7829333 10.9905333,27.3912667 C11.1415667,27.1810333 11.3854,27.3487 11.5758,27.3957333 C11.6545333,27.214 11.7345333,27.0335 11.8132667,26.8530333 C11.9204667,26.8661667 12.0276667,26.8793 12.1348667,26.8937 C12.3931,26.6585 12.5441333,26.3433 12.6436667,26.0140333 C12.8164667,25.9625 12.9895667,25.9113 13.1611,25.8585 C13.1588667,25.5718 13.2903667,25.3257333 13.4971,25.1340667 C14.9415667,25.1462333 16.3857333,25.1350333 17.8302,25.1395 C19.4900333,25.1766333 21.1566,24.6352 22.4782,23.6307667 C22.7563,23.4240333 23.0068333,23.1843667 23.2452333,22.9347667 C23.7118,22.8893333 24.2414,22.8730333 24.5838,22.5063333 Z" id="路径" fill="#D8C173"></path>
                <path d="M22.2004667,24.4912333 C22.5876667,24.3206667 22.8856,23.9607 23.3153667,23.8829333 C23.6612667,23.8631 24.0014333,23.9498 24.3397,24.0122 C24.4053,24.2003667 24.4884667,24.3853 24.5214333,24.5834 C24.5313667,24.7760333 24.436,24.9705667 24.5115333,25.1590333 C24.5486333,25.2707 24.5803333,25.3888 24.5070333,25.496 C24.1896,26.1481333 23.9390333,26.8364333 23.5397,27.4469667 C23.6984,27.4447333 23.8571333,27.4424667 24.0155333,27.4415 C23.7912,27.7608667 23.4104,27.9064667 23.1259333,28.1624667 C22.8500667,28.3714 22.7473667,28.7259667 22.4836667,28.9458 C22.3502333,29.0584333 22.2308667,29.1864333 22.1512,29.3441667 C21.5854333,29.7195333 20.9169667,29.8900667 20.3141,30.1931 C20.3096,30.0814333 20.3054333,29.9697333 20.3019333,29.8593333 C19.8664,29.9566333 19.4286333,30.0411 19.0008,30.1646333 C18.6331333,30.2654333 18.4078333,30.6011 18.0827333,30.7761333 C17.8235333,30.8714667 17.5237,30.8942 17.3310667,31.1175333 C15.3429,31.2817 13.324,31.0826667 11.4158667,30.4971 C11.6293,30.4292667 11.8427333,30.3569333 12.0526667,30.2759667 C12.0811333,30.0430333 12.2091333,29.8504 12.372,29.6872 C12.6325,29.6980667 12.7790333,29.9169667 12.9301,30.0964667 C13.3525,30.0078333 13.6469,29.6731333 14.0078667,29.4641667 C14.0766667,29.5496 14.1467333,29.6347333 14.2168,29.7214333 C14.476,29.4478333 14.7333,29.1646667 15.0593667,28.9697667 C15.4926667,28.7147667 15.6961667,28.2037333 16.1493,27.9730333 C16.5496,27.6808667 17.1067333,27.7749667 17.4853,27.4466333 C17.7173,27.2386333 18.0478333,27.278 18.3265667,27.1839333 C18.5422333,27.0492 18.7019333,26.8370667 18.9294333,26.7212333 C19.1877,26.6786667 19.5006333,26.8274667 19.7150333,26.6271667 C20.0795333,26.3318 20.4219333,26.0089333 20.8104,25.7443 C21.2088,25.5014333 21.2907333,24.9913667 21.6344,24.6995333 C21.8065667,24.5897667 22.0158333,24.5699333 22.2004667,24.4912333 Z" id="路径" fill="#E0CD81"></path>
                <path d="M9.835,25.1366333 C9.9697,25.1366333 10.1041333,25.1376 10.2388333,25.1389 C10.5508333,25.5056 10.9534,25.9126333 11.4676333,25.9126333 C11.8737333,25.8719667 11.6721,25.3907 11.6186667,25.1369667 C12.2446,25.136 12.8714667,25.1369667 13.4974,25.1347333 C13.2906667,25.3260667 13.1591667,25.5724667 13.1614,25.8591667 C12.9895667,25.9116667 12.8167667,25.9631667 12.6439667,26.0147 C12.5444333,26.3439667 12.3934,26.6591333 12.1351667,26.8943333 C12.0279667,26.8802667 11.9207667,26.8671333 11.8135667,26.8537 C11.7348333,27.0341667 11.6548333,27.2146333 11.5761,27.3964 C11.3857,27.3493667 11.1418667,27.182 10.9908333,27.3919333 C10.7370667,27.7836 10.5959667,28.2421333 10.2916333,28.6043667 C10.2369,28.4939667 10.1831667,28.3832333 10.1319667,28.2719 C9.8814,28.3813333 9.63083333,28.4885333 9.37483333,28.5826 C9.60363333,28.1746 9.89226667,27.7970333 10.0654,27.3593 C10.0020333,26.9577 9.78413333,26.5913 9.77773333,26.1775667 C9.77066667,25.8259 9.5966,25.4518333 9.835,25.1366333 Z" id="路径" fill="#C2A44D"></path>
                <path d="M10.2389333,25.1388667 C10.6984667,25.1366333 11.1592333,25.1366333 11.6187667,25.1366333 C11.6725333,25.3904 11.8738,25.8719667 11.4677333,25.9123002 C10.9535,25.9126 10.5509333,25.5055667 10.2389333,25.1388667 Z" id="路径" fill="#D2B159"></path>
                <path d="M9.37456667,28.5822667 C9.63056667,28.4882 9.8811,28.381 10.1316667,28.2715667 C10.1832,28.3832333 10.2366333,28.4936333 10.2913667,28.6040333 C10.4532667,28.8622667 10.6820667,29.0798667 10.9512,29.2232 C11.3473667,29.2526667 11.7454333,29.1685 12.1416,29.2165 C12.3044667,29.1925 12.4062333,29.3073667 12.4961667,29.4232 C12.4568,29.5118333 12.4152,29.5995333 12.3726333,29.6868667 C12.2097667,29.8497667 12.0814333,30.0423667 12.0532667,30.2756667 C11.8430333,30.3566 11.6299,30.4289333 11.4164667,30.4967667 C10.3102333,30.1303667 9.2456,29.6510333 8.23566667,29.0699333 C8.484,29.0219333 8.5563,28.7678667 8.68656667,28.5883667 C8.90606667,28.5253 9.14576667,28.6162 9.37456667,28.5822667 Z" id="路径" fill="#CEB052"></path>
                <path d="M22.1515333,29.3438333 C22.5816333,29.0747333 23.1243333,28.8133 23.5960333,29.1512 C21.6910667,30.2596333 19.5333,30.962 17.3317,31.1175333 C17.5243333,30.8941667 17.8242,30.8714667 18.0834,30.7761 C18.4085,30.6010667 18.6338,30.2650667 19.0014667,30.1646 C19.4293,30.0411 19.8670667,29.9566 20.3025667,29.8593333 C20.3057667,29.9697333 20.3102667,30.0814 20.3147333,30.1931 C20.9173,29.8897333 21.5858,29.7191667 22.1515333,29.3438333 Z" id="路径" fill="#D2BA6B"></path>
            </g>
        </g>
    </g>
</svg>