<?xml version="1.0" encoding="UTF-8"?>
<svg width="32px" height="32px" viewBox="0 0 32 32" version="1.1" xmlns="http://www.w3.org/2000/svg" xmlns:xlink="http://www.w3.org/1999/xlink">
    <title>dot</title>
    <g id="Dapp" stroke="none" stroke-width="1" fill="none" fill-rule="evenodd">
        <g id="Coin" transform="translate(-231.000000, -92.000000)" fill-rule="nonzero">
            <g id="dot" transform="translate(231.000000, 92.000000)">
                <circle id="椭圆形" fill="#FFFFFF" cx="16" cy="16" r="16"></circle>
                <path d="M16,6.53173333 C12.0847,6.53173333 8.8847,9.7129 8.8847,13.6470333 C8.8847,14.4376333 9.01646667,15.2094 9.26116667,15.9623333 C9.4306,16.4705667 9.9953,16.7529 10.5223667,16.5835 C11.0306,16.4141 11.3129333,15.8494 11.1435333,15.3223333 C10.9364667,14.7388 10.8423667,14.1176333 10.8611667,13.4964333 C10.9364667,10.8423333 13.0823667,8.6588 15.7364667,8.52703333 C18.6917667,8.37643333 21.1388333,10.7294 21.1388333,13.6470333 C21.1388333,16.3764333 18.9929333,18.6164333 16.3011667,18.7670333 C16.3011667,18.7670333 15.3035333,18.8235 14.8141,18.8988 C14.5694,18.9364333 14.3811667,18.9741 14.2494,18.9929 C14.1929333,19.0117333 14.1364667,18.9552667 14.1553,18.8988 L14.3247,18.0705667 L15.2470667,13.8164333 C15.36,13.2894 15.0211667,12.7623333 14.4941,12.6494 C13.9670667,12.5364333 13.44,12.8752667 13.3270667,13.4023333 C13.3270667,13.4023333 11.1058667,23.7552667 11.0870667,23.8682 C10.9741,24.3952667 11.3129333,24.9223333 11.84,25.0352667 C12.3670667,25.1482 12.8941,24.8094 13.0070667,24.2823333 C13.0258667,24.1694 13.3270667,22.7952667 13.3270667,22.7952667 C13.5529333,21.7411667 14.4188333,20.9694 15.4353,20.8376333 C15.6611667,20.7999667 16.5458667,20.7435 16.5458667,20.7435 C20.2164667,20.4611667 23.1153,17.3929 23.1153,13.6470333 C23.1153,9.7129 19.9153,6.53173333 16,6.53173333 Z" id="路径" fill="#000000"></path>
                <path d="M16.5082333,22.9082333 C15.8682333,22.7764667 15.2282333,23.1717667 15.0964667,23.8305667 C14.9647,24.4705667 15.36,25.1105667 16.0188333,25.2423333 C16.6588333,25.3741 17.2988333,24.9788 17.4306,24.32 C17.5623667,23.6611667 17.1670667,23.04 16.5082333,22.9082333 Z" id="路径" fill="#E6007A"></path>
            </g>
        </g>
    </g>
</svg>