<?xml version="1.0" encoding="UTF-8"?>
<svg width="32px" height="32px" viewBox="0 0 32 32" version="1.1" xmlns="http://www.w3.org/2000/svg" xmlns:xlink="http://www.w3.org/1999/xlink">
    <title>down_icon</title>
    <g id="Dapp" stroke="none" stroke-width="1" fill="none" fill-rule="evenodd">
        <g id="Mining_lp_deposit_confirm" transform="translate(-172.000000, -547.000000)">
            <g id="Swap-Settings" transform="translate(0.000000, 380.000000)">
                <g id="down_icon" transform="translate(172.000000, 167.000000)">
                    <rect id="矩形备份-2" x="0" y="0" width="32" height="32" rx="16"></rect>
                    <path d="M10.6665759,16.3339015 L19.33339,16.3339015 L18.2667052,17.1338447 C17.9721484,17.3547429 17.912452,17.7725808 18.1333696,18.0671118 C18.2592747,18.2349704 18.4568703,18.3337595 18.666712,18.3337595 C18.8109613,18.3337595 18.9513194,18.2869776 19.0667188,18.2004356 L21.7334309,16.2005777 C21.89871,16.0744757 21.9956957,15.8784954 21.9956957,15.6706153 C21.9956957,15.4627353 21.89871,15.266755 21.7334309,15.140653 L19.1600538,13.140795 C18.8691788,12.9143744 18.4498118,12.9666041 18.2233712,13.2574534 C17.9969306,13.5483027 18.0491649,13.9676329 18.3400398,14.1940535 L19.3867243,15.0006629 L10.6665759,15.0006629 C10.2984197,15.0007193 10,15.2991584 10,15.6672822 C10,16.0354061 10.2984197,16.3338452 10.6665759,16.3339015 Z" id="路径" fill="#000000" fill-rule="nonzero" transform="translate(15.997848, 15.666880) rotate(90.000000) translate(-15.997848, -15.666880) "></path>
                </g>
            </g>
        </g>
    </g>
</svg>