<?xml version="1.0" encoding="UTF-8"?>
<svg width="9px" height="8px" viewBox="0 0 9 8" version="1.1" xmlns="http://www.w3.org/2000/svg" xmlns:xlink="http://www.w3.org/1999/xlink">
    <title>enter_icon</title>
    <g id="Dapp" stroke="none" stroke-width="1" fill="none" fill-rule="evenodd">
        <g id="Account" transform="translate(-342.000000, -421.000000)" fill="#000000" fill-rule="nonzero">
            <g id="List" transform="translate(0.000000, 352.000000)">
                <g id="编组-2" transform="translate(24.000000, 49.000000)">
                    <path d="M327,24.0015169 C327,24.2960796 326.871628,24.5630496 326.669371,24.7459415 L323.369219,27.7457428 C323.193207,27.9037868 322.960284,28 322.706251,28 C322.157961,28 321.713937,27.5533164 321.713937,27.0011738 C321.713937,26.7032884 321.842309,26.439641 322.044566,26.2567492 L323.427414,25.0004876 L318.989318,25.0004876 C318.44274,25.0004876 318,24.5538039 318,23.9984831 C318,23.4463405 318.44274,22.9996569 318.989318,22.9996569 L323.427414,22.9996569 L322.044566,21.7432508 C321.842309,21.5602145 321.713937,21.2949781 321.713937,20.9989707 C321.713937,20.4466836 322.157961,20 322.706251,20 C322.960284,20 323.193207,20.0962132 323.369219,20.2574354 L326.669371,23.2570923 C326.871486,23.4399841 327,23.7068097 327,24.0015169" id="enter_icon"></path>
                </g>
            </g>
        </g>
    </g>
</svg>