<?xml version="1.0" encoding="UTF-8"?>
<svg width="32px" height="32px" viewBox="0 0 32 32" version="1.1" xmlns="http://www.w3.org/2000/svg" xmlns:xlink="http://www.w3.org/1999/xlink">
    <title>ETH_coin</title>
    <g id="Dapp" stroke="none" stroke-width="1" fill="none" fill-rule="evenodd">
        <g id="Mining_lp" transform="translate(-40.000000, -641.000000)" fill-rule="nonzero">
            <g id="Swap备份-3" transform="translate(0.000000, 617.000000)">
                <g id="ETH_coin" transform="translate(40.000000, 24.000000)">
                    <path d="M31.864847,15.9219362 C31.864847,24.7154623 24.736437,31.8438723 15.9429108,31.8438723 C7.14954393,31.8438723 0.0209746783,24.7154623 0.0209746783,15.9219362 C0.0209746783,7.12841006 7.14954393,0 15.9429108,0 C24.736437,0 31.864847,7.12841006 31.864847,15.9219362" id="路径" fill="#497391"></path>
                    <path d="M8.89315517,17.8948233 L15.722392,3.82731503 L15.722392,21.489678 L8.89315517,17.8948233 Z M22.992985,17.8948233 L16.1395467,21.489678 L16.1395467,3.82253845 L22.992985,17.8948233 Z M8.89315517,18.4094203 L15.722392,21.8288153 L15.722392,27.3272967 L8.89315517,18.4094203 Z M22.992985,18.4094203 L16.1395467,27.3272967 L16.1395467,21.8288153 L22.992985,18.4094203 Z" id="形状" fill="#FFFFFF"></path>
                </g>
            </g>
        </g>
    </g>
</svg>