<?xml version="1.0" encoding="UTF-8"?>
<svg width="24px" height="24px" viewBox="0 0 24 24" version="1.1" xmlns="http://www.w3.org/2000/svg" xmlns:xlink="http://www.w3.org/1999/xlink">
    <title>Facebook_icon</title>
    <g id="Dapp" stroke="none" stroke-width="1" fill="none" fill-rule="evenodd">
        <g id="Menu" transform="translate(-32.000000, -448.000000)" fill="#FFFFFF" fill-rule="nonzero">
            <g id="facebook" transform="translate(32.000000, 448.000000)">
                <path d="M23.99999,12 C23.99999,5.37199777 18.6279923,0 12,0 C5.37199777,0 0,5.37199777 0,12 C0,17.9904925 4.38749817,22.9544904 10.1249958,23.8544901 L10.1249958,15.4689936 L7.07799705,15.4689936 L7.07799705,12 L10.1249958,12 L10.1249958,9.3559961 C10.1249958,6.34899736 11.915495,4.68749805 14.6579939,4.68749805 C15.9704933,4.68749805 17.3439928,4.92199795 17.3439928,4.92199795 L17.3439928,7.87499672 L15.8294934,7.87499672 C14.338994,7.87499672 13.8749942,8.80099634 13.8749942,9.74999595 L13.8749942,12 L17.2029928,12 L16.6709931,15.4689936 L13.8749942,15.4689936 L13.8749942,23.8544901 C19.6124918,22.9544904 23.99999,17.9904925 23.99999,12 Z" id="路径"></path>
            </g>
        </g>
    </g>
</svg>