<?xml version="1.0" encoding="UTF-8"?>
<svg width="48px" height="48px" viewBox="0 0 48 48" version="1.1" xmlns="http://www.w3.org/2000/svg" xmlns:xlink="http://www.w3.org/1999/xlink">
    <title>failed_icon</title>
    <g id="Dapp_CN" stroke="none" stroke-width="1" fill="none" fill-rule="evenodd">
        <g id="Swap_confirming_failed" transform="translate(-164.000000, -326.000000)" fill="#FF6161" fill-rule="nonzero">
            <g id="Swap-Settings" transform="translate(48.000000, 278.000000)">
                <path d="M140,48 C153.254834,48 164,58.745166 164,72 C164,85.254834 153.254834,96 140,96 C126.745166,96 116,85.254834 116,72 C116,58.745166 126.745166,48 140,48 Z M140,80.9361702 C138.212766,80.9361702 137.021277,82.1276596 137.021277,83.9148936 C137.021277,85.7021277 138.212766,86.893617 140,86.893617 C141.787234,86.893617 142.978723,85.7021277 142.978723,83.9148936 C142.978723,82.1276596 141.787234,80.9361702 140,80.9361702 Z M140,57.106383 C138.212766,57.106383 137.021277,58.5929078 137.021277,60.3858156 L138.212766,76.4652482 C138.513475,77.3617021 139.10922,77.951773 140,77.951773 C140.896454,77.951773 141.486525,77.3560284 141.787234,76.4652482 L142.978723,60.0851064 C142.978723,58.2978723 141.492199,57.106383 140,57.106383 Z" id="failed_icon"></path>
            </g>
        </g>
    </g>
</svg>