<?xml version="1.0" encoding="UTF-8"?>
<svg width="24px" height="24px" viewBox="0 0 24 24" version="1.1" xmlns="http://www.w3.org/2000/svg" xmlns:xlink="http://www.w3.org/1999/xlink">
    <title>Github_icon</title>
    <g id="Dapp" stroke="none" stroke-width="1" fill="none" fill-rule="evenodd">
        <g id="Menu" transform="translate(-32.000000, -408.000000)" fill="#FFFFFF" fill-rule="nonzero">
            <g id="Label1备份-4" transform="translate(32.000000, 408.000000)">
                <path d="M24,12.3034391 C24,14.9882253 23.2311429,17.3900324 21.7054286,19.5334672 C20.1797143,21.6760233 18.21,23.1541936 15.7954286,23.978524 C15.5194286,24.0286166 15.3034286,23.9908274 15.1834286,23.867793 C15.0530302,23.7446386 14.9824301,23.5686617 14.9905714,23.3870801 L14.9905714,20.0124225 C14.9905714,18.9789336 14.7145714,18.2152416 14.1745714,17.7354075 C14.7129729,17.6809666 15.2467129,17.5857951 15.7714286,17.4506707 C16.2850483,17.3096975 16.7779846,17.098966 17.2371429,16.8240742 C17.742,16.5279128 18.162,16.1825377 18.4988571,15.7642208 C18.8348571,15.3459038 19.1108571,14.778188 19.3268571,14.076892 C19.5437143,13.3747171 19.6517143,12.5749936 19.6517143,11.6627815 C19.6517143,10.3700415 19.2437143,9.27415663 18.414,8.36282332 C18.7988571,7.389094 18.7628571,6.30551254 18.294,5.09889669 C18.006,4.99959036 17.586,5.06198637 17.0331429,5.27114484 C16.4802857,5.4803033 16.0002857,5.71494746 15.5914286,5.97331969 L15.0025714,6.3547263 C14.0297143,6.0717472 13.0328571,5.93640937 12,5.93640937 C10.9671429,5.93640937 9.97028571,6.0717472 8.99742857,6.3547263 C8.78180752,6.20379583 8.56140264,6.06017805 8.33657143,5.92410593 C8.05971429,5.75185778 7.62771429,5.54269932 7.02685714,5.30805516 C6.43885714,5.06198637 5.982,4.99959036 5.68114286,5.08659325 C5.22514286,6.2932091 5.18914286,7.37766938 5.57314286,8.35051988 C4.75628571,9.27415663 4.33628571,10.3700415 4.33628571,11.6627815 C4.33628571,12.5749936 4.44428571,13.3747171 4.66114286,14.0645885 C4.87628571,14.7544599 5.15314286,15.321297 5.478,15.7519173 C5.814,16.1825377 6.234,16.5402162 6.73885714,16.8240742 C7.24371429,17.1070533 7.73571429,17.3162117 8.20457143,17.4506707 C8.72956287,17.5858628 9.26359269,17.681035 9.80228571,17.7354075 C9.38142857,18.1159353 9.12942857,18.6704688 9.03342857,19.3849471 C8.808944,19.4964121 8.57034149,19.5750979 8.32457143,19.6187125 C8.03118159,19.6717034 7.73359761,19.6964181 7.43571429,19.6925331 C7.08685714,19.6925331 6.75085714,19.5818022 6.414,19.3480368 C6.078,19.1142715 5.79,18.7811998 5.55,18.3505794 C5.35939382,18.0188517 5.10123676,17.7331838 4.79314286,17.5130667 C4.49228571,17.2916048 4.22828571,17.1676916 4.02428571,17.1307813 L3.71228571,17.0815676 C3.49542857,17.0815676 3.33942857,17.1070533 3.25542857,17.1553882 C3.17142857,17.204602 3.14742857,17.2661191 3.18342857,17.3399398 C3.21942857,17.4137604 3.26742857,17.4884599 3.32742857,17.5622805 C3.38742857,17.6361011 3.45942857,17.6976183 3.53142857,17.7591355 L3.63942857,17.8329562 C3.86828571,17.9436871 4.09628571,18.141421 4.32428571,18.4367035 C4.55314286,18.731986 4.70914286,19.0035405 4.81714286,19.2496093 L4.97314286,19.6187125 C5.10514286,20.0256048 5.33314286,20.3577976 5.658,20.6038664 C5.982,20.850814 6.33,21.0107587 6.70285714,21.0845794 C7.07485714,21.1584 7.43571429,21.1953103 7.78371429,21.1953103 C8.13171429,21.1953103 8.42057143,21.1830069 8.64857143,21.1337931 L9.00942857,21.0722759 C9.00942857,21.4782894 9.00942857,21.9590024 9.02057143,22.5012325 C9.02057143,23.0434626 9.03342857,23.3387452 9.03342857,23.363352 C9.03744864,23.5464342 8.96248935,23.7220103 8.82857143,23.8431862 C8.69657143,23.9662206 8.48057143,24.0031309 8.20457143,23.9539171 C5.79,23.1287079 3.82028571,21.6514164 2.29457143,19.5079815 C0.756857143,17.3900324 0,14.9759218 0,12.3034391 C0,10.074759 0.540857143,8.01744821 1.60971429,6.13326439 C2.67857143,4.24908058 4.13228571,2.75860681 5.982,1.65041847 C7.81971429,0.554533577 9.82542857,0 12,0 C14.1745714,0 16.1802857,0.554533577 18.018,1.65041847 C19.8557143,2.74630337 21.3094286,4.23677714 22.3902857,6.13326439 C23.4591429,8.00514477 24,10.074759 24,12.3034391" id="路径"></path>
            </g>
        </g>
    </g>
</svg>