<?xml version="1.0" encoding="UTF-8"?>
<svg width="10px" height="10px" viewBox="0 0 10 10" version="1.1" xmlns="http://www.w3.org/2000/svg" xmlns:xlink="http://www.w3.org/1999/xlink">
    <title>icon-more</title>
    <g id="改版" stroke="none" stroke-width="1" fill="none" fill-rule="evenodd">
        <g id="1-1首页" transform="translate(-198.000000, -1197.000000)" fill="#C5C9D5" fill-rule="nonzero">
            <g id="火币钱包教程" transform="translate(0.000000, 1174.000000)">
                <path d="M207.375,27.375 L200.39375,27.375 L200.39375,27.375 L203.44531,24.3234403 C203.688663,24.0800867 203.688663,23.6855327 203.44531,23.4421792 C203.444791,23.4416602 203.444271,23.4411422 203.44375,23.440625 C203.19842,23.1970231 202.802277,23.197723 202.55781,23.4421903 L198,28 L198,28 L202.559375,32.559375 C202.802725,32.8027255 203.197275,32.8027255 203.440625,32.559375 C203.684039,32.3159607 203.684216,31.9213628 203.44102,31.6777307 L200.39375,28.625 L200.39375,28.625 L207.375,28.625 C207.720178,28.625 208,28.345178 208,28 C208,27.654822 207.720178,27.375 207.375,27.375 Z" id="icon-more" transform="translate(203.000000, 28.000000) scale(-1, 1) translate(-203.000000, -28.000000) "></path>
            </g>
        </g>
    </g>
</svg>