<?xml version="1.0" encoding="UTF-8"?>
<svg width="24px" height="24px" viewBox="0 0 24 24" version="1.1" xmlns="http://www.w3.org/2000/svg" xmlns:xlink="http://www.w3.org/1999/xlink">
    <title>Label2_icon</title>
    <g id="Dapp_CN" stroke="none" stroke-width="1" fill="none" fill-rule="evenodd">
        <g id="Menu" transform="translate(-32.000000, -296.000000)" fill="#FFFFFF" fill-rule="nonzero" stroke="#FFFFFF" stroke-width="0.2">
            <g id="Label1" transform="translate(32.000000, 296.000000)">
                <path d="M0,21.3076923 C0,21.7750102 0.383755929,22.1538462 0.857142857,22.1538462 C1.33052979,22.1538462 1.71428571,21.7750102 1.71428571,21.3076923 C1.71428571,17.5691494 4.78433314,14.5384615 8.57142857,14.5384615 C9.57771429,14.5384615 10.5274286,14.7652308 11.388,15.1493846 C11.5217143,14.5841538 11.712,14.0493846 11.9537143,13.5349231 C9.30561001,12.4122785 6.26326265,12.6785024 3.85648995,14.2434795 C1.44971724,15.8084565 0.000729105007,18.4626734 0,21.3076923 Z M8.57142857,1 C5.731107,1 3.42857143,3.27301589 3.42857143,6.07692308 C3.42857143,8.88083027 5.731107,11.1538462 8.57142857,11.1538462 C11.4117501,11.1538462 13.7142857,8.88083027 13.7142857,6.07692308 C13.7142857,3.27301589 11.4117501,1 8.57142857,1 L8.57142857,1 Z M8.57142857,9.46830769 C6.67362038,9.46830769 5.13514286,7.94955424 5.13514286,6.07607692 C5.13514286,4.2025996 6.67362038,2.68384615 8.57142857,2.68384615 C10.4692368,2.68384615 12.0077143,4.2025996 12.0077143,6.07607692 C12.0077143,7.94955424 10.4692368,9.46830769 8.57142857,9.46830769 L8.57142857,9.46830769 Z M23.1428571,17.0769231 L19.7142857,17.0769231 L19.7142857,13.6923077 C19.7142857,13.2249898 19.3305298,12.8461538 18.8571429,12.8461538 C18.3837559,12.8461538 18,13.2249898 18,13.6923077 L18,17.0769231 L14.5714286,17.0769231 C14.0980416,17.0769231 13.7142857,17.4557591 13.7142857,17.9230769 C13.7142857,18.3903948 14.0980416,18.7692308 14.5714286,18.7692308 L18,18.7692308 L18,22.1538462 C18,22.621164 18.3837559,23 18.8571429,23 C19.3305298,23 19.7142857,22.621164 19.7142857,22.1538462 L19.7142857,18.7692308 L23.1428571,18.7692308 C23.6162441,18.7692308 24,18.3903948 24,17.9230769 C24,17.4557591 23.6162441,17.0769231 23.1428571,17.0769231 Z" id="形状"></path>
            </g>
        </g>
    </g>
</svg>