<?xml version="1.0" encoding="UTF-8"?>
<svg width="20px" height="20px" viewBox="0 0 20 20" version="1.1" xmlns="http://www.w3.org/2000/svg" xmlns:xlink="http://www.w3.org/1999/xlink">
    <title>Lang_cn</title>
    <g id="Dapp_CN" stroke="none" stroke-width="1" fill="none" fill-rule="evenodd">
        <g id="Menu" transform="translate(-42.000000, -182.000000)">
            <g id="Language" transform="translate(32.000000, 176.000000)">
                <g id="Lang_cn" transform="translate(10.000000, 6.000000)">
                    <path d="M0.338,7.523 C1.6475,2.2295 6.9995,-0.9975 12.291,0.3125 C17.584,1.622 20.811,6.973 19.5015,12.2655 C18.192,17.558 12.8405,20.786 7.548,19.476 C2.256,18.167 -0.973,12.815 0.338,7.523" id="Fill-415" fill="#DB372D"></path>
                    <path d="M5.503,5.2795 L4.8245,3.191 L4.1445,5.2795 L1.9475,5.2795 L3.725,6.5715 L3.047,8.6615 L4.8245,7.3695 L6.6005,8.6615 L5.922,6.5715 L7.6995,5.2795 L5.503,5.2795 Z M10.55,2.0995 L10.088,2.657 L9.4175,2.39 L9.8025,3 L9.3405,3.5565 L10.041,3.3775 L10.4275,3.9895 L10.4745,3.267 L11.175,3.0885 L10.504,2.822 L10.55,2.0995 Z M12.043,5.411 L12.153,6.1255 L12.4845,5.481 L13.1975,5.5965 L12.687,5.0845 L13.0165,4.4405 L12.3715,4.768 L11.8625,4.256 L11.9725,4.97 L11.3285,5.2965 L12.043,5.411 Z M13.221,8.0595 L12.497,8.0585 L12.2755,7.371 L12.051,8.0595 L11.3285,8.0585 L11.9125,8.4835 L11.688,9.1715 L12.274,8.7465 L12.858,9.172 L12.635,8.4835 L13.221,8.0595 Z M10.545,9.577 L10.0835,10.1345 L9.4115,9.866 L9.796,10.478 L9.3345,11.0335 L10.036,10.8555 L10.4225,11.467 L10.468,10.745 L11.17,10.5665 L10.498,10.299 L10.545,9.577 L10.545,9.577 Z" id="Fill-417" fill="#FBCE24"></path>
                </g>
            </g>
        </g>
    </g>
</svg>