<?xml version="1.0" encoding="UTF-8"?>
<svg width="20px" height="20px" viewBox="0 0 20 20" version="1.1" xmlns="http://www.w3.org/2000/svg" xmlns:xlink="http://www.w3.org/1999/xlink">
    <title>Lang_en</title>
    <g id="Dapp" stroke="none" stroke-width="1" fill="none" fill-rule="evenodd">
        <g id="Menu" transform="translate(-42.000000, -182.000000)">
            <g id="Language" transform="translate(32.000000, 176.000000)">
                <g id="Lang_en" transform="translate(10.000000, 6.000000)">
                    <path d="M0.306,7.5075 C1.6155,2.214 6.968,-1.0125 12.2595,0.2975 C17.5525,1.6065 20.7795,6.958 19.47,12.2505 C18.1605,17.5425 12.809,20.771 7.5165,19.461 C2.224,18.1515 -1.0045,12.8 0.306,7.5075" id="Fill-7" fill="#27355E"></path>
                    <path d="M16.8905,2.919 L12.921,5.5655 L12.921,0.486 C12.704,0.416 12.484,0.353 12.2595,0.2975 C10.397,-0.1635 8.5275,-0.062 6.829,0.493 L6.829,5.566 L2.875,2.9305 C1.9695,3.8425 1.234,4.9405 0.734,6.184 L1.781,6.882 L0.4835,6.882 C0.4185,7.0875 0.3585,7.2955 0.306,7.5075 C-0.1585,9.383 -0.052,11.266 0.5135,12.974 L1.807,12.974 L0.771,13.6645 C1.2735,14.872 2.012,15.9725 2.944,16.8965 L6.829,14.307 L6.829,19.264 C7.054,19.337 7.283,19.403 7.5165,19.4605 C9.3695,19.9195 11.2295,19.821 12.921,19.2735 L12.921,14.307 L16.8215,16.907 C17.7375,16.0045 18.486,14.9155 19,13.679 L17.9425,12.974 L19.2615,12.974 C19.3395,12.7375 19.409,12.496 19.47,12.2505 C19.925,10.4105 19.832,8.564 19.2945,6.882 L17.969,6.882 L19.0365,6.1705 C18.544,4.9585 17.815,3.851 16.8905,2.919" id="Fill-9" fill="#F0ECE2"></path>
                    <path d="M14.5065,12.974 L18.0985,15.363 C18.3445,14.9945 18.567,14.607 18.764,14.202 L16.917,12.974 L14.5065,12.974 Z M19.609,8.151 L11.6525,8.151 L11.6525,0.1675 C10.446,-0.053 9.245,-0.043 8.0975,0.169 L8.0975,8.151 L0.17,8.151 C-0.046,9.357 -0.0315,10.5575 0.185,11.704 L8.0975,11.704 L8.0975,19.586 C9.3035,19.8095 10.5045,19.8025 11.6525,19.5935 L11.6525,11.704 L19.5885,11.704 C19.8165,10.499 19.8135,9.2985 19.609,8.151 L19.609,8.151 Z M1.6725,15.351 C1.919,15.722 2.1915,16.0765 2.487,16.412 L6.829,13.5245 L6.829,12.974 L5.2465,12.974 L1.6725,15.351 Z M18.1155,4.425 C17.8695,4.053 17.5975,3.698 17.3025,3.3615 L12.921,6.2755 L12.921,6.882 L14.4215,6.882 L18.1155,4.425 Z M5.3105,6.882 L1.645,4.444 C1.4015,4.814 1.1805,5.2025 0.986,5.6095 L2.8995,6.882 L5.3105,6.882 L5.3105,6.882 Z" id="Fill-10" fill="#DB372D"></path>
                    <path d="M12.921,1.5135 L12.921,2.1535 C12.9865462,2.032 13.0201597,1.917 13.021,1.809 C13.021,1.7035 12.9882269,1.6045 12.921,1.5135" id="Fill-11" fill="#2C3754"></path>
                </g>
            </g>
        </g>
    </g>
</svg>