<?xml version="1.0" encoding="UTF-8"?>
<svg width="24px" height="24px" viewBox="0 0 24 24" version="1.1" xmlns="http://www.w3.org/2000/svg" xmlns:xlink="http://www.w3.org/1999/xlink">
    <title>Libra_coin</title>
    <g id="Dapp" stroke="none" stroke-width="1" fill="none" fill-rule="evenodd">
        <g id="Account_deposit_details" transform="translate(-24.000000, -337.000000)">
            <g id="编组-4备份-2" transform="translate(0.000000, 313.000000)">
                <g id="Libra_coin" transform="translate(24.000000, 24.000000)">
                    <circle id="椭圆形" fill="#43318C" cx="12" cy="12" r="12"></circle>
                    <path d="M8.09138894,8.06214483 C11.3564928,8.06214483 14.0033825,10.8544738 14.0033825,14.2989861 C14.0033825,16.1083573 13.2730247,17.7377711 12.1063531,18.8770267 L12.1052335,19.1059269 C12.0631455,19.0691775 12.0215482,19.0318247 11.9804534,18.993881 L11.8585139,19.1059269 L11.8585139,19.1059269 L11.8576879,18.8773134 C10.6908452,17.7380445 9.96036483,16.1085091 9.96036483,14.2989861 C9.96036483,12.9396848 10.3725685,11.6819488 11.0757399,10.6570447 C11.2304426,10.7902486 11.3693373,10.9264693 11.492424,11.0657069 C11.623142,11.2135772 11.7537748,11.3728113 11.8835721,11.5427557 C11.3910816,12.3343506 11.1046217,13.2813771 11.1046217,14.2989861 C11.1046217,15.4606252 11.47791,16.5302874 12.104844,17.3817561 L11.981,17.206 L11.9990234,17.1814475 C12.5410575,16.3651798 12.8591257,15.3712683 12.8591257,14.2989861 C12.8591257,11.5211536 10.7245372,9.2692754 8.09138894,9.2692754 C7.5320215,9.2692754 6.99515295,9.37089761 6.49646728,9.55759624 C6.43799838,9.65844267 6.34877722,9.73962366 6.24125577,9.79174388 L7.292,15.4535499 L7.961,15.45393 L7.96460177,15.5359639 C7.96460177,16.5692757 7.07709543,17.4069405 5.98230088,17.4069405 C4.88750634,17.4069405 4,16.5692757 4,15.5359639 C4,15.508328 4.00063483,15.4808321 4.00189147,15.4534884 L4.672,15.4525499 L5.71930663,9.80881312 C5.52873168,9.73169609 5.38754879,9.56617281 5.35319422,9.36665188 L5.34513274,9.27201139 C5.34513274,8.94977449 5.62089364,8.68854986 5.96106195,8.68854986 L5.984,8.69 L5.88655835,8.5103195 C6.56788618,8.22123813 7.31202614,8.06214483 8.09138894,8.06214483 Z M15.8723584,8.06214483 C16.6517212,8.06214483 17.3958612,8.22123813 18.077189,8.5103195 L18.077189,8.5103195 L17.9791685,8.68877536 C17.9849131,8.68862536 17.9906773,8.68854986 17.9964602,8.68854986 C18.3366285,8.68854986 18.6123894,8.94977449 18.6123894,9.27201139 C18.6123894,9.49866341 18.4759621,9.6951308 18.276654,9.79174388 L19.3273982,15.4535499 L19.9963982,15.45393 L20,15.5359639 C20,16.5692757 19.1124937,17.4069405 18.0176991,17.4069405 C16.9229046,17.4069405 16.0353982,16.5692757 16.0353982,15.5359639 C16.0353982,15.508328 16.0360331,15.4808321 16.0372897,15.4534884 L16.7073982,15.4525499 L17.7547049,9.80881312 C17.6288313,9.7578778 17.5245051,9.66837507 17.4582761,9.55598231 C16.9628006,9.36980399 16.4287079,9.2692754 15.8723584,9.2692754 C14.8702857,9.2692754 13.9404176,9.59540689 13.1733323,10.1527859 C13.037412,9.97595085 12.894117,9.80768407 12.7434473,9.64798553 C12.6243484,9.52174964 12.5003574,9.39744117 12.3714744,9.27506011 L12.3714744,9.27506011 L12.4816656,9.1892019 C13.4416087,8.47897493 14.610841,8.06214483 15.8723584,8.06214483 Z M5.982,10.6505499 L5.091,15.4525499 L6.873,15.4535499 L5.982,10.6505499 Z M18.0173982,10.6505499 L17.1263982,15.4525499 L18.9083982,15.4535499 L18.0173982,10.6505499 Z M12.0707965,5 C13.0482916,5 13.840708,5.75064547 13.840708,6.67661357 C13.840708,7.60258168 13.0482916,8.35322715 12.0707965,8.35322715 C11.0933013,8.35322715 10.300885,7.60258168 10.300885,6.67661357 C10.300885,5.75064547 11.0933013,5 12.0707965,5 Z" id="形状结合" fill="#FFFFFF"></path>
                </g>
            </g>
        </g>
    </g>
</svg>