<?xml version="1.0" encoding="UTF-8"?>
<svg width="32px" height="32px" viewBox="0 0 32 32" version="1.1" xmlns="http://www.w3.org/2000/svg" xmlns:xlink="http://www.w3.org/1999/xlink">
    <title>left_icon</title>
    <g id="Dapp" stroke="none" stroke-width="1" fill="none" fill-rule="evenodd">
        <g id="Market" transform="translate(-24.000000, -310.000000)" fill-rule="nonzero">
            <g id="编组-4备份" transform="translate(0.000000, 226.000000)">
                <g id="left_icon" transform="translate(24.000000, 84.000000)">
                    <path d="M16.000866,1.00010764 C20.9636647,1.06946004 25.1298468,1.84735746 27.596522,4.38376793 C30.1527975,6.87030385 30.930635,11.0368443 30.9998924,16.000866 C30.93054,20.9636647 30.1526425,25.1298468 27.6162321,27.596522 C25.1296961,30.1527975 20.9631557,30.930635 15.999134,30.9998924 C11.0363353,30.93054 6.87015315,30.1526425 4.40347797,27.6162321 C1.8472025,25.1296961 1.06936499,20.9631557 1.00010764,15.999134 C1.06946004,11.0363353 1.84735746,6.87015315 4.38376793,4.40347797 C6.87030385,1.8472025 11.0368443,1.06936499 16.000866,1.00010764 Z" id="路径" stroke="#43318C" stroke-width="2" fill="#FFFFFF"></path>
                    <path d="M15.455571,10.9152807 L19.7700792,15.2296411 L10.3705314,15.2299334 C9.94492681,15.2299334 9.6,15.5748484 9.6,16.0004385 C9.6,16.4260285 9.9446345,16.7709435 10.3705314,16.7709435 L19.7700792,16.7706512 L15.4552787,21.0847193 C15.1544909,21.3854969 15.1544909,21.873347 15.4552787,22.1744168 C15.7560666,22.4751944 16.2439334,22.4751944 16.5450136,22.1744168 L22.1749206,16.5447026 C22.2105826,16.5090419 22.2427368,16.469289 22.2707986,16.4271977 C22.283368,16.4081981 22.2921373,16.3877371 22.3029528,16.3678606 C22.3163991,16.3435996 22.3310146,16.3202156 22.3415378,16.2944931 C22.3523533,16.2687706 22.3584919,16.2415866 22.3660919,16.2149873 C22.3722305,16.1936493 22.3807075,16.1728959 22.3850921,16.1509734 C22.4049693,16.0512988 22.4049693,15.9484089 22.3850921,15.8487343 C22.3809998,15.827981 22.3731074,15.8086891 22.3672612,15.788228 C22.3593688,15.7604595 22.3526456,15.7321063 22.3415378,15.7049223 C22.3313069,15.6800767 22.3169837,15.6578619 22.3044144,15.6344778 C22.2933065,15.6137244 22.2839526,15.5923865 22.2707986,15.57251 C22.2424444,15.5304187 22.2105826,15.4909581 22.1749206,15.4550051 L16.5450136,9.82558317 C16.2442257,9.52480561 15.7563589,9.52480561 15.4552787,9.82558317 C15.1544909,10.1263607 15.1544909,10.6142108 15.455571,10.9152807 L15.455571,10.9152807 Z" id="路径" fill="#43318C" transform="translate(16.000000, 16.000000) scale(-1, 1) translate(-16.000000, -16.000000) "></path>
                </g>
            </g>
        </g>
    </g>
</svg>