<?xml version="1.0" encoding="UTF-8"?>
<svg width="48px" height="48px" viewBox="0 0 48 48" version="1.1" xmlns="http://www.w3.org/2000/svg" xmlns:xlink="http://www.w3.org/1999/xlink">
    <title>loading_icon</title>
    <defs>
        <linearGradient x1="100%" y1="50%" x2="50%" y2="100%" id="linearGradient-1">
            <stop stop-color="#43318C" offset="0%"></stop>
            <stop stop-color="#B2A4D9" offset="100%"></stop>
        </linearGradient>
    </defs>
    <g id="Dapp_CN" stroke="none" stroke-width="1" fill="none" fill-rule="evenodd">
        <g id="Swap_confirming" transform="translate(-164.000000, -328.000000)" fill="url(#linearGradient-1)" fill-rule="nonzero">
            <g id="Swap-Settings" transform="translate(48.000000, 280.000000)">
                <path d="M164,72.7991918 C163.938298,69.457726 163.235577,66.1248279 161.939827,63.0780965 C160.647506,60.0296514 158.772441,57.267373 156.4706,54.9848947 C154.170474,52.7007029 151.44186,50.8945978 148.488717,49.703665 C145.537288,48.5075916 142.363046,47.9369721 139.228224,48.0055149 C136.093402,48.0706307 132.970578,48.7749089 130.116845,50.0737967 C127.259684,51.3675437 124.671614,53.2456189 122.532599,55.5503735 C120.393585,57.8534147 118.703626,60.5848489 117.589556,63.5390474 C116.470344,66.4915324 115.937304,69.6633546 116.005863,72.7991918 C116.067565,75.9367426 116.729151,79.0554441 117.946058,81.9085419 C119.161252,84.7616397 120.921482,87.3474202 123.081064,89.4825312 C125.238932,91.6210694 127.796151,93.3072245 130.560759,94.4176193 C133.323653,95.5331548 136.292221,96.0626487 139.228224,95.9941058 C142.165941,95.92899 145.079663,95.2658376 147.746575,94.0492013 C150.415201,92.8342786 152.83359,91.0761534 154.828633,88.9170524 C156.825389,86.7613785 158.400513,84.2064423 159.437455,81.447591 C160.06819,79.7751445 160.494964,78.0290144 160.721206,76.2588942 C160.781195,76.2640349 160.842897,76.2657485 160.902885,76.2657485 C162.613411,76.2657485 164,74.8332021 164,73.0665091 C164,72.9774033 163.994858,72.8882976 163.988002,72.7991918 L164,72.7991918 L164,72.7991918 Z M159.079238,81.2950831 C157.944601,83.9545472 156.299205,86.3638297 154.281881,88.3515735 C152.264558,90.3427445 149.878734,91.9106631 147.302661,92.9405201 C144.726588,93.9738041 141.967122,94.4621722 139.228224,94.3936293 C136.489326,94.3302271 133.781279,93.7082004 131.302901,92.5703885 C128.82281,91.4377172 126.575816,89.7978285 124.723032,87.7860947 C122.868534,85.7777881 121.406531,83.3993498 120.450145,80.8358457 C119.488617,78.2723416 119.036133,75.5254853 119.101263,72.7991918 C119.16468,70.0728984 119.74571,67.3808764 120.806647,64.9167595 C121.864157,62.4526426 123.394718,60.219858 125.269783,58.3777678 C127.143135,56.5356776 129.359277,55.0859955 131.746815,54.1366765 C134.134353,53.1839303 136.688144,52.7366879 139.228224,52.8052308 C141.768304,52.8703466 144.270676,53.4512476 146.560519,54.506808 C148.852075,55.5589414 150.927673,57.0805936 152.6382,58.9432466 C154.352153,60.8058996 155.697607,63.00784 156.576866,65.3759968 C157.459552,67.7458672 157.872615,70.278527 157.807485,72.7991918 L157.817768,72.7991918 C157.810912,72.8882976 157.807485,72.9756898 157.807485,73.0665091 C157.807485,74.7166792 159.015822,76.0738284 160.568664,76.2468992 C160.267008,77.9878886 159.768248,79.6860387 159.079238,81.2950831 Z" id="loading_icon"></path>
            </g>
        </g>
    </g>
</svg>