<?xml version="1.0" encoding="UTF-8"?>
<svg width="102px" height="32px" viewBox="0 0 102 32" version="1.1" xmlns="http://www.w3.org/2000/svg" xmlns:xlink="http://www.w3.org/1999/xlink">
    <title>logo_gray</title>
    <defs>
        <filter id="filter-1">
            <feColorMatrix in="SourceGraphic" type="matrix" values="0 0 0 0 0.847000 0 0 0 0 0.847000 0 0 0 0 0.847000 0 0 0 1.000000 0"></feColorMatrix>
        </filter>
        <filter id="filter-2">
            <feColorMatrix in="SourceGraphic" type="matrix" values="0 0 0 0 0.262745 0 0 0 0 0.192157 0 0 0 0 0.549020 0 0 0 1.000000 0"></feColorMatrix>
        </filter>
    </defs>
    <g id="Dapp" stroke="none" stroke-width="1" fill="none" fill-rule="evenodd">
        <g id="logo" transform="translate(-137.000000, -549.000000)" filter="url(#filter-1)">
            <g transform="translate(137.000000, 549.000000)">
                <g filter="url(#filter-2)" id="编组">
                    <g transform="translate(0.000000, 1.333333)">
                        <path d="M11.0982878,14.1995305 C11.3362941,14.4642115 11.5780599,14.7188192 11.8235853,14.9633535 C12.1330778,15.2715969 12.4591634,15.5647639 12.8018419,15.8428548 C11.7215751,17.4140493 11.0891164,19.317729 11.0891164,21.3692252 C11.0891164,22.53795 11.2943816,23.6587008 11.6708048,24.6973479 L9.61748976,25.8839308 C9.05666352,24.4888415 8.74801255,22.9651019 8.74801255,21.3692252 C8.74801255,18.735858 9.58842377,16.2989094 11.0155009,14.3122931 Z M20.843716,9.26550252 C24.5956499,9.26550252 27.9485973,10.9748992 30.1672106,13.6578572 L26.8242067,13.6573141 C25.1725829,12.3729473 23.0974033,11.6081585 20.843716,11.6081585 C18.8704672,11.6081585 17.0340647,12.1944558 15.4989897,13.2024602 C15.1680942,12.9366516 14.8596035,12.6694693 14.5731081,12.4021127 C14.3020405,12.1491534 14.0368686,11.8635826 13.7775922,11.5454002 C15.765207,10.1104653 18.2058511,9.26550252 20.843716,9.26550252 Z" id="形状结合" fill="#43318C" transform="translate(19.457612, 17.574717) scale(-1, 1) rotate(-270.000000) translate(-19.457612, -17.574717) "></path>
                        <path d="M12.94233,9.26550252 C16.6942639,9.26550252 20.0472114,10.9748992 22.2658246,13.6578572 L18.9228208,13.6573141 C17.271197,12.3729473 15.1960173,11.6081585 12.94233,11.6081585 C7.55501345,11.6081585 3.18773047,15.9783369 3.18773047,21.3692252 C3.18773047,22.53795 3.39299561,23.6587008 3.76941886,24.6973479 L1.71610379,25.8839308 C1.15527755,24.4888415 0.846626581,22.9651019 0.846626581,21.3692252 C0.846626581,14.6845237 6.26205747,9.26550252 12.94233,9.26550252 Z" id="形状结合" fill="#43318C" transform="translate(11.556226, 17.574717) rotate(-270.000000) translate(-11.556226, -17.574717) "></path>
                        <path d="M3.830182,7.55162942 C4.48990296,7.55162942 5.02471247,8.08643893 5.02471247,8.74615989 C5.02471247,9.20962972 4.76076257,9.61145076 4.37498416,9.8095016 L6.41090682,21.4026294 L7.71090682,21.403347 L7.71583859,21.5704539 C7.71583859,23.6859704 5.99461258,25.4009353 3.8713727,25.4009353 C1.74813282,25.4009353 0.0269068188,23.6859704 0.0269068188,21.5704539 C0.0269068188,21.5144115 0.0281147395,21.4586502 0.0305060556,21.4031945 L1.33090682,21.4026294 L3.36215662,9.84551882 C2.97072813,9.67866473 2.68656163,9.30886914 2.64181875,8.86829369 L2.63565153,8.74615989 C2.63565153,8.08643893 3.17046104,7.55162942 3.830182,7.55162942 Z M3.87090682,11.5706294 L2.14290682,21.4026294 L5.59890682,21.4026294 L3.87090682,11.5706294 Z" id="形状结合备份-3" fill="#43318C"></path>
                        <path d="M27.171582,7.55162942 C27.831303,7.55162942 28.3661125,8.08643893 28.3661125,8.74615989 C28.3661125,9.20962972 28.1021626,9.61145076 27.7163842,9.8095016 L29.7523068,21.4026294 L31.0523068,21.403347 L31.0572386,21.5704539 C31.0572386,23.6859704 29.3360126,25.4009353 27.2127727,25.4009353 C25.0895328,25.4009353 23.3683068,23.6859704 23.3683068,21.5704539 C23.3683068,21.5144115 23.3695148,21.4586502 23.3719061,21.4031945 L24.6723068,21.4026294 L26.7035566,9.84551882 C26.3121281,9.67866473 26.0279616,9.30886914 25.9832188,8.86829369 L25.9770515,8.74615989 C25.9770515,8.08643893 26.5118611,7.55162942 27.171582,7.55162942 Z M27.2123068,11.5706294 L25.4843068,21.4026294 L28.9403068,21.4026294 L27.2123068,11.5706294 Z" id="形状结合备份-6" fill="#43318C"></path>
                        <circle id="椭圆形" fill="#43318C" cx="15.6793751" cy="3.43255883" r="3.43255883"></circle>
                    </g>
                </g>
                <path d="M52.5526241,27.0921986 L52.5526241,24.831773 L45.0360284,24.831773 L45.0360284,7.15687943 L42.6666667,7.15687943 L42.6666667,27.0921986 L52.5526241,27.0921986 Z M55.8070922,10.1253901 C56.288227,10.1253901 56.6967376,9.95744681 57.0326241,9.62156028 C57.3685106,9.28567376 57.5364539,8.87716312 57.5364539,8.39602837 C57.5364539,7.91489362 57.3685106,7.50638298 57.0326241,7.17049645 C56.6967376,6.83460993 56.2836879,6.66666667 55.7934752,6.66666667 C55.3214184,6.66666667 54.9174468,6.83914894 54.5815603,7.18411348 C54.2456738,7.52907801 54.0777305,7.93304965 54.0777305,8.39602837 C54.0777305,8.85900709 54.2456738,9.26297872 54.5815603,9.60794326 C54.9174468,9.9529078 55.3259574,10.1253901 55.8070922,10.1253901 Z M56.937305,27.0921986 L56.937305,12.2496454 L54.6768794,12.2496454 L54.6768794,27.0921986 L56.937305,27.0921986 Z M68.2530496,27.5824113 C70.386383,27.5824113 72.2065248,26.8107801 73.7134752,25.2675177 C75.2204255,23.7242553 75.9739007,21.8723404 75.9739007,19.711773 C75.9739007,17.5512057 75.2340426,15.7038298 73.7543262,14.1696454 C72.2746099,12.635461 70.4544681,11.8683688 68.2939007,11.8683688 C66.1333333,11.8683688 64.2814184,12.7217021 62.738156,14.4283688 L62.738156,14.4283688 L62.738156,6.66666667 L60.5321986,6.66666667 L60.5321986,27.0921986 L62.738156,27.0921986 L62.738156,24.804539 C64.2814184,26.6564539 66.1197163,27.5824113 68.2530496,27.5824113 Z M68.1577305,25.4036879 C66.6144681,25.4036879 65.307234,24.8408511 64.2360284,23.7151773 C63.1648227,22.5895035 62.6292199,21.2141844 62.6292199,19.5892199 C62.6292199,17.9642553 63.1602837,16.6161702 64.2224113,15.5449645 C65.284539,14.4737589 66.6053901,13.938156 68.1849645,13.938156 C69.764539,13.938156 71.0808511,14.5100709 72.1339007,15.6539007 C73.1869504,16.7977305 73.7134752,18.1367376 73.7134752,19.670922 C73.7134752,21.2051064 73.1733333,22.5441135 72.0930496,23.6879433 C71.012766,24.831773 69.7009929,25.4036879 68.1577305,25.4036879 Z M80.2768794,27.0921986 L80.2771573,21.8004463 C80.2834564,19.5652984 80.3968389,18.0112016 80.617305,17.138156 C80.8442553,16.2394326 81.1846809,15.5131915 81.6385816,14.9594326 C82.0924823,14.4056738 82.6008511,14.1287943 83.1636879,14.1287943 C83.4541844,14.1287943 83.7537589,14.2104965 84.0624113,14.3739007 L84.0624113,14.3739007 L85.2334752,12.4675177 C84.489078,12.0680851 83.821844,11.8683688 83.231773,11.8683688 C82.6417021,11.8683688 82.1151773,12.031773 81.6521986,12.3585816 C81.1892199,12.6853901 80.7307801,13.1846809 80.2768794,13.8564539 L80.2768794,13.8564539 L80.2768794,12.2496454 L77.9892199,12.2496454 L77.9892199,27.0921986 L80.2768794,27.0921986 Z M93.4853901,27.5824113 C95.5914894,27.5824113 97.4524823,26.692766 99.0683688,24.9134752 L99.0683688,24.9134752 L99.0683688,27.0921986 L101.274326,27.0921986 L101.274326,12.2496454 L99.0683688,12.2496454 L99.0683688,14.5100709 C97.5977305,12.7489362 95.7775887,11.8683688 93.6079433,11.8683688 C91.4382979,11.8683688 89.6,12.635461 88.0930496,14.1696454 C86.5860993,15.7038298 85.8326241,17.5466667 85.8326241,19.698156 C85.8326241,21.8496454 86.5815603,23.7015603 88.0794326,25.2539007 C89.577305,26.8062411 91.3792908,27.5824113 93.4853901,27.5824113 Z M93.6487943,25.4853901 C92.1236879,25.4853901 90.8164539,24.9180142 89.7270922,23.7832624 C88.6377305,22.6485106 88.0930496,21.3095035 88.0930496,19.7662411 C88.0930496,18.2229787 88.6286525,16.8839716 89.6998582,15.7492199 C90.7710638,14.6144681 92.0828369,14.0470922 93.6351773,14.0470922 C95.1875177,14.0470922 96.4992908,14.5963121 97.5704965,15.6947518 C98.6417021,16.7931915 99.177305,18.1548936 99.177305,19.7798582 C99.177305,21.4048227 98.6326241,22.7619858 97.5432624,23.8513475 C96.4539007,24.9407092 95.1557447,25.4853901 93.6487943,25.4853901 Z" id="Libra" stroke="#43318C" stroke-width="0.680851064" fill="#43318C" fill-rule="nonzero"></path>
            </g>
        </g>
    </g>
</svg>