<?xml version="1.0" encoding="UTF-8"?>
<svg width="153px" height="139px" viewBox="0 0 153 139" version="1.1" xmlns="http://www.w3.org/2000/svg" xmlns:xlink="http://www.w3.org/1999/xlink">
    <title>logo_img</title>
    <defs>
        <filter id="filter-1">
            <feColorMatrix in="SourceGraphic" type="matrix" values="0 0 0 0 1.000000 0 0 0 0 1.000000 0 0 0 0 1.000000 0 0 0 1.000000 0"></feColorMatrix>
        </filter>
    </defs>
    <g id="Dapp_CN" stroke="none" stroke-width="1" fill="none" fill-rule="evenodd" opacity="0.100000001">
        <g id="Home" transform="translate(-261.000000, -205.000000)">
            <g id="logo_img" transform="translate(0.000000, 100.000000)" filter="url(#filter-1)">
                <g transform="translate(261.000000, 105.000000)">
                    <path d="M54.2750575,69.5474931 C55.4413371,70.8445507 56.6260483,72.0922227 57.8291911,73.290509 C59.3451242,74.8003231 60.9423345,76.2362895 62.6208219,77.5984081 C57.3295091,85.2940381 54.2317929,94.6181276 54.2317929,104.666207 C54.2317929,110.389771 55.2368914,115.878427 57.0801039,120.965078 L47.0233679,126.777913 C44.2767535,119.945132 42.7651615,112.482312 42.7651615,104.666207 C42.7651615,91.5696491 47.0090911,79.4649711 54.1958674,69.6541185 Z M102.009423,45.3826674 C120.386293,45.3826674 136.808933,53.7552687 147.67561,66.8963504 L131.304847,66.8960886 C123.214738,60.6038003 113.049358,56.8569008 102.009423,56.8569008 C92.3426669,56.8569008 83.3464369,59.7296689 75.8268215,64.6685823 C74.2091252,63.3626502 72.698865,62.0545794 71.2962416,60.7456559 C69.9684211,59.5065384 68.669483,58.1076564 67.3994274,56.5490099 C77.1344197,49.5214941 89.0889043,45.3826674 102.009423,45.3826674 Z" id="形状结合" fill="#43318C" transform="translate(95.220386, 86.080290) scale(-1, 1) rotate(-270.000000) translate(-95.220386, -86.080290) "></path>
                    <path d="M63.3098955,45.3826674 C81.6867655,45.3826674 98.1094052,53.7552687 108.976082,66.8963504 L92.6053194,66.8960886 C84.51521,60.6038003 74.3498305,56.8569008 63.3098955,56.8569008 C36.9230389,56.8569008 15.5322651,78.2618563 15.5322651,104.666207 C15.5322651,110.389771 16.5373636,115.878427 18.3805761,120.965078 L8.32384009,126.777913 C5.57722576,119.945132 4.06563377,112.482312 4.06563377,104.666207 C4.06563377,71.9248122 30.5901933,45.3826674 63.3098955,45.3826674 Z" id="形状结合" fill="#43318C" transform="translate(56.520858, 86.080290) rotate(-270.000000) translate(-56.520858, -86.080290) "></path>
                    <path d="M18.6784424,36.9875727 C21.9097288,36.9875727 24.5292039,39.6070478 24.5292039,42.8383342 C24.5292039,45.1104837 23.2340028,47.0801228 21.3416327,48.0492193 L31.3221558,104.833573 L37.6927125,104.834565 C37.7043511,105.105331 37.7102298,105.377583 37.7102298,105.651203 C37.7102298,116.012916 29.2797351,124.412744 18.8801928,124.412744 C8.48065057,124.412744 0.0501558473,116.012916 0.0501558473,105.651203 C0.0501558473,105.377583 0.0560346107,105.105331 0.0676731561,104.834565 L6.43715585,104.833573 L16.3879393,48.2237444 C14.3585547,47.3595157 12.917372,45.3817184 12.8317165,43.0576775 L12.8276809,42.8383342 C12.8276809,39.6070478 15.4471561,36.9875727 18.6784424,36.9875727 Z M18.8791558,56.6655727 L10.4131558,104.833573 L27.3461558,104.833573 L18.8791558,56.6655727 Z" id="形状结合备份-3" fill="#43318C"></path>
                    <path d="M133.003667,36.9875727 C136.234953,36.9875727 138.854429,39.6070478 138.854429,42.8383342 C138.854429,45.1104837 137.559227,47.0801228 135.666857,48.0492193 L145.64738,104.833573 L152.017937,104.834565 C152.029576,105.105331 152.035454,105.377583 152.035454,105.651203 C152.035454,116.012916 143.60496,124.412744 133.205417,124.412744 C122.805875,124.412744 114.37538,116.012916 114.37538,105.651203 C114.37538,105.377583 114.381259,105.105331 114.392898,104.834565 L120.76238,104.833573 L130.713164,48.2237444 C128.683779,47.3595157 127.242597,45.3817184 127.156941,43.0576775 L127.152906,42.8383342 C127.152906,39.6070478 129.772381,36.9875727 133.003667,36.9875727 Z M133.20438,56.6655727 L124.73838,104.833573 L141.67138,104.833573 L133.20438,56.6655727 Z" id="形状结合备份-6" fill="#43318C"></path>
                    <circle id="椭圆形" fill="#43318C" cx="76.7153064" cy="16.812533" r="16.812533"></circle>
                </g>
            </g>
        </g>
    </g>
</svg>