<?xml version="1.0" encoding="UTF-8"?>
<svg width="76px" height="24px" viewBox="0 0 76 24" version="1.1" xmlns="http://www.w3.org/2000/svg" xmlns:xlink="http://www.w3.org/1999/xlink">
    <title>logo_white</title>
    <defs>
        <filter id="filter-1">
            <feColorMatrix in="SourceGraphic" type="matrix" values="0 0 0 0 1.000000 0 0 0 0 1.000000 0 0 0 0 1.000000 0 0 0 1.000000 0"></feColorMatrix>
        </filter>
    </defs>
    <g id="Dapp" stroke="none" stroke-width="1" fill="none" fill-rule="evenodd">
        <g id="Menu" transform="translate(-24.000000, -60.000000)">
            <g id="logo" transform="translate(24.000000, 60.000000)">
                <g filter="url(#filter-1)" id="编组">
                    <g transform="translate(0.000000, 1.000000)">
                        <path d="M8.32400147,10.6494997 C8.50248517,10.8479845 8.68378785,11.0389161 8.86790951,11.2222946 C9.10025128,11.4536985 9.34506163,11.6737736 9.60234055,11.8825198 C8.79193061,13.0587254 8.3170579,14.4872189 8.3170579,16.0266983 C8.3170579,16.9031524 8.47097531,17.7436334 8.7532377,18.5225517 L7.2134337,19.4129659 C6.79275336,18.3665841 6.56122998,17.2236967 6.56122998,16.0266983 C6.56122998,14.0570988 7.18807992,12.234005 8.25303501,10.7462868 Z M15.6330076,6.94890632 C18.4468437,6.94890632 20.9614643,8.23084965 22.6254257,10.2429271 L20.1192966,10.2434813 C18.8804293,9.27977425 17.323692,8.70589833 15.6330076,8.70589833 C14.1535014,8.70589833 12.7765703,9.14536552 11.6254675,9.90096493 C11.3760976,9.70210048 11.1448333,9.5017975 10.9300516,9.30136395 C10.7267326,9.11162738 10.5278362,8.89742774 10.3333621,8.65876503 C11.8246118,7.58246019 13.6548715,6.94890632 15.6330076,6.94890632 Z" id="形状结合" fill="#43318C" transform="translate(14.593328, 13.180936) scale(-1, 1) rotate(-270.000000) translate(-14.593328, -13.180936) "></path>
                        <path d="M9.70672973,6.94890632 C12.5205659,6.94890632 15.0351864,8.23084965 16.6991479,10.2429271 L14.1930188,10.2434813 C12.9541514,9.27977425 11.3974141,8.70589833 9.70672973,8.70589833 C5.6662423,8.70589833 2.39078007,11.9835321 2.39078007,16.0266983 C2.39078007,16.9031524 2.54469748,17.7436334 2.82695987,18.5225517 L1.28715587,19.4129659 C0.866475534,18.3665841 0.634952149,17.2236967 0.634952149,16.0266983 C0.634952149,11.0131722 4.69652532,6.94890632 9.70672973,6.94890632 Z" id="形状结合" fill="#43318C" transform="translate(8.667050, 13.180936) rotate(-270.000000) translate(-8.667050, -13.180936) "></path>
                        <path d="M2.8726365,5.66372206 C3.36742722,5.66372206 3.76853435,6.06482919 3.76853435,6.55961992 C3.76853435,6.90726828 3.57051955,7.2086678 3.28112329,7.35718514 L4.80818011,16.0517221 L5.78218011,16.0520096 L5.78687894,16.1778404 C5.78687894,17.7644778 4.49595944,19.0507015 2.90352953,19.0507015 C1.31109962,19.0507015 0.0201801141,17.7644778 0.0201801141,16.1778404 C0.0201801141,16.1354261 0.0211026222,16.0932264 0.0229287375,16.0512602 L0.998180114,16.0507221 L2.52212863,7.38435682 C2.23447036,7.26194887 2.02394623,6.99344218 1.98371896,6.67199944 L1.97673865,6.55961992 C1.97673865,6.06482919 2.37784578,5.66372206 2.8726365,5.66372206 Z M2.90318011,8.67672206 L1.60718011,16.0507221 L4.19918011,16.0517221 L2.90318011,8.67672206 Z" id="形状结合备份-3" fill="#43318C"></path>
                        <path d="M20.3786865,5.66372206 C20.8734772,5.66372206 21.2745844,6.06482919 21.2745844,6.55961992 C21.2745844,6.90726828 21.0765696,7.2086678 20.7871733,7.35718514 L22.3142301,16.0517221 L23.2882301,16.0520096 L23.292929,16.1778404 C23.292929,17.7644778 22.0020095,19.0507015 20.4095795,19.0507015 C18.8171496,19.0507015 17.5262301,17.7644778 17.5262301,16.1778404 C17.5262301,16.1354261 17.5271526,16.0932264 17.5289788,16.0512602 L18.5042301,16.0507221 L20.0281786,7.38435682 C19.7405204,7.26194887 19.5299962,6.99344218 19.489769,6.67199944 L19.4827887,6.55961992 C19.4827887,6.06482919 19.8838958,5.66372206 20.3786865,5.66372206 Z M20.4092301,8.67672206 L19.1132301,16.0507221 L21.7052301,16.0517221 L20.4092301,8.67672206 Z" id="形状结合备份-6" fill="#43318C"></path>
                        <circle id="椭圆形" fill="#43318C" cx="11.7595313" cy="2.57441912" r="2.57441912"></circle>
                    </g>
                </g>
                <path d="M39.4144681,20.3191489 L39.4144681,18.6238298 L33.7770213,18.6238298 L33.7770213,5.36765957 L32,5.36765957 L32,20.3191489 L39.4144681,20.3191489 Z M41.8553191,7.59404255 C42.2161702,7.59404255 42.5225532,7.46808511 42.7744681,7.21617021 C43.026383,6.96425532 43.1523404,6.65787234 43.1523404,6.29702128 C43.1523404,5.93617021 43.026383,5.62978723 42.7744681,5.37787234 C42.5225532,5.12595745 42.212766,5 41.8451064,5 C41.4910638,5 41.1880851,5.1293617 40.9361702,5.38808511 C40.6842553,5.64680851 40.5582979,5.94978723 40.5582979,6.29702128 C40.5582979,6.64425532 40.6842553,6.94723404 40.9361702,7.20595745 C41.1880851,7.46468085 41.4944681,7.59404255 41.8553191,7.59404255 Z M42.7029787,20.3191489 L42.7029787,9.18723404 L41.0076596,9.18723404 L41.0076596,20.3191489 L42.7029787,20.3191489 Z M51.1897872,20.6868085 C52.7897872,20.6868085 54.1548936,20.1080851 55.2851064,18.9506383 C56.4153191,17.7931915 56.9804255,16.4042553 56.9804255,14.7838298 C56.9804255,13.1634043 56.4255319,11.7778723 55.3157447,10.627234 C54.2059574,9.47659574 52.8408511,8.9012766 51.2204255,8.9012766 C49.6,8.9012766 48.2110638,9.5412766 47.053617,10.8212766 L47.053617,10.8212766 L47.053617,5 L45.3991489,5 L45.3991489,20.3191489 L47.053617,20.3191489 L47.053617,18.6034043 C48.2110638,19.9923404 49.5897872,20.6868085 51.1897872,20.6868085 Z M51.1182979,19.052766 C49.9608511,19.052766 48.9804255,18.6306383 48.1770213,17.786383 C47.373617,16.9421277 46.9719149,15.9106383 46.9719149,14.6919149 C46.9719149,13.4731915 47.3702128,12.4621277 48.1668085,11.6587234 C48.9634043,10.8553191 49.9540426,10.453617 51.1387234,10.453617 C52.3234043,10.453617 53.3106383,10.8825532 54.1004255,11.7404255 C54.8902128,12.5982979 55.2851064,13.6025532 55.2851064,14.7531915 C55.2851064,15.9038298 54.88,16.9080851 54.0697872,17.7659574 C53.2595745,18.6238298 52.2757447,19.052766 51.1182979,19.052766 Z M60.2076596,20.3191489 L60.207868,16.3503347 C60.2125923,14.6739738 60.2976292,13.5084012 60.4629787,12.853617 C60.6331915,12.1795745 60.8885106,11.6348936 61.2289362,11.2195745 C61.5693617,10.8042553 61.9506383,10.5965957 62.372766,10.5965957 C62.5906383,10.5965957 62.8153191,10.6578723 63.0468085,10.7804255 L63.0468085,10.7804255 L63.9251064,9.3506383 C63.3668085,9.05106383 62.866383,8.9012766 62.4238298,8.9012766 C61.9812766,8.9012766 61.586383,9.02382979 61.2391489,9.26893617 C60.8919149,9.51404255 60.5480851,9.88851064 60.2076596,10.3923404 L60.2076596,10.3923404 L60.2076596,9.18723404 L58.4919149,9.18723404 L58.4919149,20.3191489 L60.2076596,20.3191489 Z M70.1140426,20.6868085 C71.693617,20.6868085 73.0893617,20.0195745 74.3012766,18.6851064 L74.3012766,18.6851064 L74.3012766,20.3191489 L75.9557447,20.3191489 L75.9557447,9.18723404 L74.3012766,9.18723404 L74.3012766,10.8825532 C73.1982979,9.56170213 71.8331915,8.9012766 70.2059574,8.9012766 C68.5787234,8.9012766 67.2,9.47659574 66.0697872,10.627234 C64.9395745,11.7778723 64.3744681,13.16 64.3744681,14.773617 C64.3744681,16.387234 64.9361702,17.7761702 66.0595745,18.9404255 C67.1829787,20.1046809 68.5344681,20.6868085 70.1140426,20.6868085 Z M70.2365957,19.1140426 C69.092766,19.1140426 68.1123404,18.6885106 67.2953191,17.8374468 C66.4782979,16.986383 66.0697872,15.9821277 66.0697872,14.8246809 C66.0697872,13.667234 66.4714894,12.6629787 67.2748936,11.8119149 C68.0782979,10.9608511 69.0621277,10.5353191 70.226383,10.5353191 C71.3906383,10.5353191 72.3744681,10.947234 73.1778723,11.7710638 C73.9812766,12.5948936 74.3829787,13.6161702 74.3829787,14.8348936 C74.3829787,16.053617 73.9744681,17.0714894 73.1574468,17.8885106 C72.3404255,18.7055319 71.3668085,19.1140426 70.2365957,19.1140426 Z" id="Libra" stroke="#FFFFFF" stroke-width="0.510638298" fill="#FFFFFF" fill-rule="nonzero"></path>
            </g>
        </g>
    </g>
</svg>