<?xml version="1.0" encoding="UTF-8"?>
<svg width="32px" height="32px" viewBox="0 0 32 32" version="1.1" xmlns="http://www.w3.org/2000/svg" xmlns:xlink="http://www.w3.org/1999/xlink">
    <title>ltc</title>
    <g id="Dapp" stroke="none" stroke-width="1" fill="none" fill-rule="evenodd">
        <g id="Coin" transform="translate(-55.000000, -260.000000)" fill="#345D9D" fill-rule="nonzero">
            <g id="ltc" transform="translate(55.000000, 260.000000)">
                <path d="M16.2456774,16.516129 L14.5940645,22.1316129 L23.4714839,22.1316129 C23.6149741,22.1312327 23.7502838,22.1983771 23.8367675,22.3128767 C23.9232513,22.4273763 23.9508324,22.5758901 23.9112258,22.7138065 L23.1514839,25.3935484 C23.0737905,25.6532611 22.8362285,25.8322691 22.5651613,25.8353548 L8.97032258,25.8353548 L11.268129,18.0665806 L8.72464516,18.8531613 L9.26967742,17.0074839 L11.8152258,16.2188387 L15.0420645,5.30993548 C15.1197579,5.05022274 15.3573198,4.87121482 15.6283871,4.86812903 L19.0699355,4.86812903 C19.2135921,4.86842332 19.3487996,4.93605706 19.4351883,5.05083639 C19.521577,5.16561573 19.549151,5.31425985 19.5096774,5.4523871 L16.7927742,14.6745806 L19.3362581,13.8859355 L18.7870968,15.7316129 L16.2456774,16.516129 L16.2456774,16.516129 Z M15.9731613,31.9814194 L16.0185806,31.9814194 C24.6917034,31.7571532 31.6048938,24.659686 31.600975,15.9836651 C31.5970528,7.3076442 24.677451,0.216427746 16.004129,0 L15.9855484,0 C7.1572502,0.00455801222 0.00227797641,7.16137835 0,15.9896774 L0,15.9896774 C0.00226880443,24.8123397 7.14844312,31.9668278 15.9710968,31.9793548 L15.9710968,31.9793548 L15.9731613,31.9814194 Z" id="形状"></path>
            </g>
        </g>
    </g>
</svg>