<?xml version="1.0" encoding="UTF-8"?>
<svg width="32px" height="32px" viewBox="0 0 32 32" version="1.1" xmlns="http://www.w3.org/2000/svg" xmlns:xlink="http://www.w3.org/1999/xlink">
    <title>luna</title>
    <g id="Dapp" stroke="none" stroke-width="1" fill="none" fill-rule="evenodd">
        <g id="Coin" transform="translate(-55.000000, -204.000000)" fill-rule="nonzero">
            <g id="luna" transform="translate(55.000000, 204.000000)">
                <path d="M15.9218804,31.7210062 C24.6673485,31.7210062 31.756932,24.6314227 31.756932,15.8859546 C31.756932,7.1404866 24.6673485,0.0509021031 15.9218804,0.0509021031 C7.17641237,0.0509021031 0.0868235876,7.1404866 0.0868235876,15.8859546 C0.0868235876,24.6314227 7.17641237,31.7210062 15.9218804,31.7210062 Z" id="路径" fill="#FFFFFF"></path>
                <path d="M17.2356948,19.5380124 C10.7779629,16.6530639 6.74992165,10.7965691 6.5148701,4.90296082 C6.5049732,4.65553814 6.20806598,4.5318268 6.02249897,4.69512577 C2.90002144,7.4390433 0.942908041,11.4695588 0.980021443,15.9578062 C1.04682557,23.9495588 7.53672577,30.508734 15.5334268,30.6596619 C21.9911588,30.780899 27.5284784,26.7825485 29.6934268,21.1190433 C29.7800247,20.8963629 29.5796124,20.6637856 29.3470351,20.723167 C25.5862103,21.6683216 21.2909526,21.3516206 17.2356948,19.5380124 Z" id="路径" fill="#F9D85E"></path>
                <path d="M30.3985814,13.1545402 C30.393633,13.1248495 30.3886845,13.0951588 30.3812619,13.065468 C30.2996124,12.6374268 30.2006433,12.2168082 30.0843546,11.8036124 C30.0794062,11.7838186 30.0744577,11.766499 30.0695093,11.7467052 C30.0126021,11.548767 29.9507464,11.3508289 29.8864165,11.1553649 C29.881468,11.1405196 29.8765196,11.1256742 29.8715711,11.1108289 C29.7354887,10.7025814 29.5820866,10.3042309 29.4113649,9.91330309 C29.4064165,9.90588041 29.4039423,9.89598351 29.3989938,9.8860866 C29.3173443,9.69804536 29.2307464,9.51000412 29.1392,9.32691134 C29.1367258,9.32196289 29.1342515,9.31701443 29.1317773,9.31206598 C29.0377567,9.12155052 28.9412619,8.93350928 28.8398186,8.74794227 C28.8373443,8.74299381 28.8348701,8.73804536 28.8323959,8.73309691 C28.7284784,8.54258144 28.6196124,8.35701443 28.5082722,8.17144742 C28.5057979,8.16649897 28.5033237,8.16155052 28.4983753,8.15660206 C28.3944577,7.98588041 28.288066,7.82010722 28.1792,7.65433402 C28.1668289,7.63454021 28.1544577,7.61722062 28.1420866,7.5974268 C27.9119835,7.25103505 27.6645608,6.91701443 27.4072412,6.59289072 C27.3923959,6.57309691 27.3750763,6.55330309 27.3602309,6.53350928 C27.2241485,6.36278763 27.0831175,6.19701443 26.9371381,6.03371546 C26.9371381,6.03371546 26.9371381,6.03371546 26.9371381,6.03124124 C26.7985814,5.87289072 26.6550763,5.71948866 26.5115711,5.56856082 C26.5066227,5.56361237 26.4992,5.55618969 26.4942515,5.55124124 C26.3631175,5.41515876 26.2295093,5.27907629 26.0909526,5.14794227 C26.0711588,5.12814845 26.0513649,5.11082887 26.0315711,5.09103505 C25.8905402,4.9574268 25.7495093,4.82629278 25.6035299,4.69763299 C25.5862103,4.68278763 25.5688907,4.66794227 25.5515711,4.65309691 C25.4031175,4.52443711 25.2521897,4.39825155 25.1012619,4.27454021 C25.0864165,4.26216907 25.0740454,4.25227216 25.0592,4.23990103 C24.8983753,4.11124124 24.7326021,3.98505567 24.5643546,3.86134433 C24.5618804,3.8588701 24.556932,3.85639588 24.5544577,3.85392165 C24.3862103,3.73021031 24.2130144,3.6089732 24.0398186,3.49268454 C24.0373443,3.49021031 24.0348701,3.49021031 24.0323959,3.48773608 C23.6835299,3.25515546 23.3222928,3.03494928 22.9511588,2.83206268 C22.9363134,2.82464 22.9239423,2.81721732 22.9090969,2.80979464 C22.7334268,2.71329979 22.5528082,2.6217534 22.3721897,2.53020701 C22.3474474,2.51783588 22.3251794,2.50546474 22.3004371,2.49556784 C21.9243546,2.31247505 21.5383753,2.14422763 21.1449732,1.99082557 C21.1227052,1.98092866 21.1004371,1.97350598 21.0781691,1.96360907 C20.8752825,1.88690804 20.6674474,1.81268124 20.4596124,1.74340289 C20.4546639,1.74092866 20.4521897,1.74092866 20.4472412,1.73845443 C20.2542515,1.67412454 20.0587876,1.61474309 19.8608495,1.55783588 C19.8435299,1.55288742 19.8262103,1.54793897 19.8064165,1.54299052 C19.5961072,1.48360907 19.3833237,1.42917608 19.1705402,1.37969155 C19.1655918,1.37969155 19.1631175,1.37721732 19.1581691,1.37721732 C18.9552825,1.33020701 18.7499216,1.28814515 18.5445608,1.24855753 C18.5321897,1.2460833 18.5173443,1.24360907 18.5049732,1.24113485 C18.2897155,1.20154722 18.0719835,1.16690804 17.8542515,1.13474309 C17.8517773,1.13474309 17.8517773,1.13474309 17.8493031,1.13474309 C17.510334,1.08773278 17.1688907,1.05309361 16.822499,1.02835134 C16.8794062,1.04072247 16.9363134,1.04567093 16.9932206,1.05309361 C17.1293031,1.06546474 17.2604371,1.07783588 17.3890969,1.09268124 C17.3890969,1.09268124 17.3890969,1.09268124 17.3915711,1.09268124 C17.5202309,1.1075266 17.6439423,1.12237196 17.7651794,1.13969155 C17.7676536,1.13969155 17.7701278,1.13969155 17.7701278,1.13969155 C17.8888907,1.15701113 18.0051794,1.17433072 18.1189938,1.19412454 C18.121468,1.19412454 18.1264165,1.19412454 18.1288907,1.19659876 C18.2402309,1.21639258 18.3490969,1.23618639 18.4554887,1.25845443 C18.4604371,1.25845443 18.4653856,1.26092866 18.470334,1.26092866 C18.5742515,1.2831967 18.6756948,1.30546474 18.7746639,1.33020701 C18.7820866,1.33268124 18.7870351,1.33268124 18.7944577,1.33515546 C18.8909526,1.35989773 18.9849732,1.38464 19.0740454,1.41185649 C19.081468,1.41433072 19.0913649,1.41680495 19.0987876,1.41927918 C19.1878598,1.44649567 19.2744577,1.47371216 19.3585814,1.50340289 C19.3684784,1.50587711 19.3783753,1.51082557 19.3882722,1.51329979 C19.4699216,1.54299052 19.5490969,1.57268124 19.6257979,1.60237196 C19.6381691,1.60732041 19.6505402,1.61226887 19.6629113,1.61721732 C19.7371381,1.64690804 19.8088907,1.67907299 19.8806433,1.71371216 C19.8954887,1.72113485 19.9078598,1.72855753 19.9227052,1.73598021 C19.9895093,1.76814515 20.0563134,1.8003101 20.1181691,1.83494928 C20.1354887,1.84484619 20.150334,1.85474309 20.1676536,1.86216577 C20.2270351,1.89680495 20.2864165,1.9289699 20.3433237,1.9660833 C20.3631175,1.97845443 20.3804371,1.99082557 20.4002309,2.0031967 C20.4521897,2.03783588 20.5066227,2.07247505 20.5561072,2.10958845 C20.5783753,2.12690804 20.6006433,2.14422763 20.6229113,2.16154722 C20.6674474,2.19618639 20.7144577,2.22835134 20.7565196,2.26546474 C20.7837361,2.28773278 20.8084784,2.31247505 20.8356948,2.33474309 C20.8728082,2.36690804 20.9099216,2.39907299 20.9470351,2.43123794 C20.9816742,2.46340289 21.0138392,2.49804206 21.0484784,2.53020701 C21.0756948,2.55742351 21.1029113,2.58216577 21.1276536,2.60938227 C21.1870351,2.67123794 21.2439423,2.73556784 21.2983753,2.80237196 C21.3800247,2.90134103 21.8031175,3.43825155 22.0307464,4.38093196 C22.3053856,5.51660206 22.2583753,6.69928247 22.5181691,7.8374268 C22.5627052,8.02794227 22.6097155,8.21598351 22.6567258,8.39907629 C22.6690969,8.44856082 22.6839423,8.49557113 22.6963134,8.54505567 C22.735901,8.6860866 22.7754887,8.82711753 22.8150763,8.9632 C22.8274474,9.00526186 22.8398186,9.04732371 22.8521897,9.08938557 C24.1882722,13.3945402 26.8629113,15.4407258 30.4505402,18.1796948 C30.5742515,17.4126845 30.6361618,16.6258804 30.6361618,15.8242309 C30.6385814,14.9186639 30.556932,14.0229938 30.3985814,13.1545402 Z" id="路径" fill="#EF7730"></path>
                <path d="M30.4975505,13.7778804 C29.9730144,12.5655093 29.9730144,12.5655093 15.9045608,7.48344742 C8.82579794,4.92509691 7.51198351,2.45581196 12.6361072,1.33746144 C12.8860041,1.28302845 13.1383753,1.23601814 13.3907464,1.19395629 C14.1750763,1.06529649 14.9792,1.0009666 15.7981691,1.0009666 C23.2975505,1.0009666 29.4979629,6.56056082 30.4975505,13.7778804 Z" id="路径" fill="#F9D85E"></path>
            </g>
        </g>
    </g>
</svg>