<?xml version="1.0" encoding="UTF-8"?>
<svg width="80px" height="80px" viewBox="0 0 80 80" version="1.1" xmlns="http://www.w3.org/2000/svg" xmlns:xlink="http://www.w3.org/1999/xlink">
    <title>LV7_icon</title>
    <defs>
        <path d="M74.4162406,39.8929323 C74.4162406,58.8854135 59.0189474,74.2821053 40.0264662,74.2821053 C21.033985,74.2821053 5.63729323,58.8854135 5.63729323,39.8929323 C5.63729323,20.9004511 21.033985,5.5037594 40.0264662,5.5037594 C59.0189474,5.5037594 74.4162406,20.9004511 74.4162406,39.8929323" id="path-1"></path>
    </defs>
    <g id="Dapp" stroke="none" stroke-width="1" fill="none" fill-rule="evenodd">
        <g id="LV-Icon" transform="translate(-147.000000, -337.000000)">
            <g id="LV7_icon" transform="translate(147.000000, 337.000000)">
                <path d="M77.1278195,38.3825564 C78.5449624,37.5849624 79.4021053,35.9777444 79.1572932,34.2706767 C78.9118797,32.5642105 77.6366917,31.2631579 76.0523308,30.8962406 C77.278797,29.8279699 77.7924812,28.0806015 77.2066165,26.4589474 C76.6207519,24.8372932 75.1085714,23.8219549 73.4827068,23.7834586 C74.4673684,22.4890226 74.6165414,20.6736842 73.7142857,19.2042105 C72.8120301,17.7347368 71.1254135,17.0466165 69.5254135,17.3389474 C70.2273684,15.8718797 70.0054135,14.0637594 68.8240602,12.8078195 C67.6427068,11.5518797 65.8520301,11.2192481 64.3446617,11.8297744 C64.7344361,10.2508271 64.1509774,8.52511278 62.7398496,7.53443609 C61.3281203,6.5437594 59.5073684,6.58105263 58.1545865,7.48451128 C58.2165414,5.85924812 57.2950376,4.2875188 55.7124812,3.60360902 C54.1299248,2.91969925 52.3542857,3.32451128 51.2126316,4.48360902 C50.9443609,2.8793985 49.7233083,1.52721805 48.0354887,1.17774436 C46.3470677,0.828270677 44.6899248,1.58556391 43.8069173,2.95097744 C43.2192481,1.43458647 41.7491729,0.357894737 40.0252632,0.357894737 C38.7807519,0.357894737 37.6679699,0.919097744 36.9239098,1.80150376 C36.0463158,1.05142857 34.8577444,0.677293233 33.6294737,0.878195489 C31.9278195,1.15729323 30.6526316,2.45774436 30.317594,4.04932331 C29.2252632,2.84451128 27.4670677,2.36571429 25.8574436,2.98345865 C24.2484211,3.60120301 23.2625564,5.13323308 23.2571429,6.75969925 C21.9434586,5.80150376 20.1251128,5.68842105 18.6736842,6.61954887 C17.2228571,7.55067669 16.5678195,9.25052632 16.8920301,10.8445113 C15.4111278,10.1720301 13.6078195,10.4294737 12.3753383,11.6354887 C11.1440602,12.8415038 10.8463158,14.638797 11.4869173,16.1341353 C9.90075188,15.7756391 8.18706767,16.3933835 7.22466165,17.8237594 C6.26225564,19.2541353 6.3356391,21.0742857 7.26556391,22.4090226 C5.63909774,22.3795489 4.08661654,23.3317293 3.43398496,24.9275188 C2.78135338,26.5233083 3.22225564,28.2905263 4.40300752,29.4093233 C2.80421053,29.7094737 1.47669173,30.956391 1.16090226,32.6514286 C0.845112782,34.3464662 1.63488722,35.9879699 3.01834586,36.8439098 C1.51398496,37.4616541 0.466165414,38.9521805 0.500451128,40.6760902 C0.534736842,42.3993985 1.64090226,43.847218 3.1687218,44.404812 C1.82075188,45.3148872 1.09654135,46.9864662 1.47909774,48.6676692 C1.86225564,50.3488722 3.23849624,51.5422556 4.8475188,51.7792481 C3.7118797,52.9437594 3.34195489,54.7266165 4.05714286,56.2959398 C4.77293233,57.8640602 6.36210526,58.7542857 7.98616541,58.6598496 C7.10977444,60.0300752 7.10857143,61.8520301 8.12691729,63.2433083 C9.14526316,64.633985 10.882406,65.1831579 12.4529323,64.7621053 C11.8724812,66.2815038 12.241203,68.0655639 13.52,69.2216541 C14.7993985,70.3777444 16.6111278,70.5630075 18.0637594,69.832782 C17.8039098,71.4381955 18.5257143,73.1109774 20.0126316,73.9837594 C21.4989474,74.8559398 23.3118797,74.6712782 24.5864662,73.6613534 C24.6562406,75.286015 25.7022556,76.7783459 27.3353383,77.3311278 C28.9678195,77.8845113 30.7049624,77.3365414 31.7485714,76.0890226 C32.1473684,77.6661654 33.4730827,78.9142857 35.1837594,79.126015 C36.8950376,79.3365414 38.4854135,78.4481203 39.2547368,77.0153383 C39.9639098,78.478797 41.5157895,79.4333835 43.2342857,79.2926316 C44.952782,79.1530827 46.3296241,77.9603008 46.7921805,76.4018045 C47.7840602,77.6908271 49.4965414,78.3103759 51.1506767,77.8261654 C52.8054135,77.3401504 53.9121805,75.8935338 54.0499248,74.2724812 C55.281203,75.3347368 57.0845113,75.595188 58.6063158,74.7849624 C60.1281203,73.9741353 60.9190977,72.3332331 60.724812,70.7181955 C62.1467669,71.5091729 63.9645113,71.3978947 65.2908271,70.2965414 C66.6165414,69.1945865 67.0586466,67.4273684 66.5413534,65.8851128 C68.0938346,66.3711278 69.8520301,65.8947368 70.9269173,64.5473684 C72.002406,63.198797 72.0769925,61.3792481 71.2583459,59.9735338 C72.876391,60.1353383 74.5022556,59.3118797 75.2818045,57.7744361 C76.0619549,56.2369925 75.766015,54.4396992 74.6796992,53.2288722 C76.2971429,53.0592481 77.7221053,51.923609 78.1738346,50.2604511 C78.6261654,48.5966917 77.9723308,46.8962406 76.6634586,45.9308271 C78.2129323,45.4369925 79.3780451,44.0366917 79.4839098,42.3157895 C79.5897744,40.5948872 78.6051128,39.0622556 77.1278195,38.3825564" id="Fill-25" fill="#43318C"></path>
                <mask id="mask-2" fill="white">
                    <use xlink:href="#path-1"></use>
                </mask>
                <g id="Clip-27"></g>
                <path d="M74.4162406,39.8929323 C74.4162406,58.8854135 59.0189474,74.2821053 40.0264662,74.2821053 C21.033985,74.2821053 5.63729323,58.8854135 5.63729323,39.8929323 C5.63729323,20.9004511 21.033985,5.5037594 40.0264662,5.5037594 C59.0189474,5.5037594 74.4162406,20.9004511 74.4162406,39.8929323" id="Fill-26" fill="#FF5725" mask="url(#mask-2)"></path>
                <polyline id="Fill-28" fill="#FF2900" mask="url(#mask-2)" points="40.0264662 39.8929323 35.2120301 -2.40601504 43.4658647 -2.40601504 40.0264662 39.8929323"></polyline>
                <polyline id="Fill-29" fill="#FF2900" mask="url(#mask-2)" points="40.0264662 39.8929323 59.2156391 1.89052632 66.1148872 6.41984962 40.0264662 39.8929323"></polyline>
                <polyline id="Fill-30" fill="#FF2900" mask="url(#mask-2)" points="40.0264662 39.8929323 76.9227068 18.6550376 80.2051128 26.2279699 40.0264662 39.8929323"></polyline>
                <polyline id="Fill-31" fill="#FF2900" mask="url(#mask-2)" points="40.0264662 39.8929323 82.5251128 42.3873684 81.1133835 50.5184962 40.0264662 39.8929323"></polyline>
                <polyline id="Fill-32" fill="#FF2900" mask="url(#mask-2)" points="40.0264662 39.8929323 74.1852632 65.3004511 68.5419549 71.3233083 40.0264662 39.8929323"></polyline>
                <polyline id="Fill-33" fill="#FF2900" mask="url(#mask-2)" points="40.0264662 39.8929323 54.6381955 79.8790977 46.6153383 81.8165414 40.0264662 39.8929323"></polyline>
                <polyline id="Fill-34" fill="#FF2900" mask="url(#mask-2)" points="40.0264662 39.8929323 30.2971429 81.3383459 22.5269173 78.5557895 40.0264662 39.8929323"></polyline>
                <polyline id="Fill-35" fill="#FF2900" mask="url(#mask-2)" points="40.0264662 39.8929323 9.14827068 69.2 4.17984962 62.6099248 40.0264662 39.8929323"></polyline>
                <polyline id="Fill-36" fill="#FF2900" mask="url(#mask-2)" points="40.0264662 39.8929323 -1.86947368 47.447218 -2.40601504 39.2108271 40.0264662 39.8929323"></polyline>
                <polyline id="Fill-37" fill="#FF2900" mask="url(#mask-2)" points="40.0264662 39.8929323 0.857142857 23.2156391 4.9287218 16.0360902 40.0264662 39.8929323"></polyline>
                <polyline id="Fill-38" fill="#FF2900" mask="url(#mask-2)" points="40.0264662 39.8929323 16.4348872 4.45533835 23.7786466 0.688120301 40.0264662 39.8929323"></polyline>
                <path d="M40.0264662,71.5314286 C22.5816541,71.5314286 8.38857143,57.3377444 8.38857143,39.8929323 C8.38857143,22.4475188 22.5816541,8.25503759 40.0264662,8.25503759 C57.4718797,8.25503759 71.6649624,22.4475188 71.6649624,39.8929323 C71.6649624,57.3377444 57.4718797,71.5314286 40.0264662,71.5314286 Z" id="Stroke-39" stroke="#FFFFFE" stroke-width="0.5" stroke-linecap="round" stroke-linejoin="round" stroke-dasharray="1.27037593296596,1.27037593296596" mask="url(#mask-2)"></path>
                <polyline id="Fill-40" fill="#FFFFFE" mask="url(#mask-2)" points="39.8887218 15.6989474 40.9221053 18.8821053 44.2700752 18.8821053 41.5621053 20.8496241 42.5966917 24.032782 39.8887218 22.0658647 37.1807519 24.032782 38.2141353 20.8496241 35.5067669 18.8821053 38.8541353 18.8821053 39.8887218 15.6989474"></polyline>
                <polyline id="Fill-41" fill="#FFFFFE" mask="url(#mask-2)" points="50.0673684 22.2818045 50.6598496 24.1061654 52.5780451 24.1061654 51.0261654 25.233985 51.6192481 27.0583459 50.0673684 25.9311278 48.5148872 27.0583459 49.1079699 25.233985 47.5560902 24.1061654 49.4742857 24.1061654 50.0673684 22.2818045"></polyline>
                <polyline id="Fill-42" fill="#FFFFFE" mask="url(#mask-2)" points="29.9242105 22.2818045 30.5172932 24.1061654 32.4354887 24.1061654 30.8830075 25.233985 31.4760902 27.0583459 29.9242105 25.9311278 28.3717293 27.0583459 28.964812 25.233985 27.4123308 24.1061654 29.3311278 24.1061654 29.9242105 22.2818045"></polyline>
                <polyline id="Fill-43" fill="#FFFFFE" mask="url(#mask-2)" points="26.4914286 55.5169925 26.8757895 56.6989474 28.1184962 56.6989474 27.112782 57.4297744 27.4971429 58.6123308 26.4914286 57.8815038 25.4857143 58.6123308 25.8700752 57.4297744 24.8643609 56.6989474 26.1076692 56.6989474 26.4914286 55.5169925"></polyline>
                <polyline id="Fill-44" fill="#FFFFFE" mask="url(#mask-2)" points="31.8935338 55.5169925 32.2772932 56.6989474 33.5206015 56.6989474 32.5148872 57.4297744 32.8992481 58.6123308 31.8935338 57.8815038 30.8878195 58.6123308 31.2715789 57.4297744 30.2658647 56.6989474 31.5091729 56.6989474 31.8935338 55.5169925"></polyline>
                <polyline id="Fill-45" fill="#FFFFFE" mask="url(#mask-2)" points="37.2944361 55.5169925 37.678797 56.6989474 38.9221053 56.6989474 37.916391 57.4297744 38.3007519 58.6123308 37.2944361 57.8815038 36.2887218 58.6123308 36.6730827 57.4297744 35.6673684 56.6989474 36.9100752 56.6989474 37.2944361 55.5169925"></polyline>
                <polyline id="Fill-46" fill="#FFFFFE" mask="url(#mask-2)" points="42.6965414 55.5169925 43.0803008 56.6989474 44.323609 56.6989474 43.3178947 57.4297744 43.7016541 58.6123308 42.6965414 57.8815038 41.6908271 58.6123308 42.0745865 57.4297744 41.0694737 56.6989474 42.3121805 56.6989474 42.6965414 55.5169925"></polyline>
                <polyline id="Fill-47" fill="#FFFFFE" mask="url(#mask-2)" points="48.0980451 55.5169925 48.482406 56.6989474 49.7251128 56.6989474 48.7193985 57.4297744 49.1037594 58.6123308 48.0980451 57.8815038 47.0923308 58.6123308 47.4766917 57.4297744 46.4709774 56.6989474 47.7136842 56.6989474 48.0980451 55.5169925"></polyline>
                <polyline id="Fill-48" fill="#FFFFFE" mask="url(#mask-2)" points="53.5001504 55.5169925 53.8839098 56.6989474 55.127218 56.6989474 54.1215038 57.4297744 54.5052632 58.6123308 53.5001504 57.8815038 52.4938346 58.6123308 52.877594 57.4297744 51.8718797 56.6989474 53.1157895 56.6989474 53.5001504 55.5169925"></polyline>
                <path d="M55.4688722,6.74466165 C55.2625564,7.21864662 54.7115789,7.43518797 54.2381955,7.22947368 C53.764812,7.0237594 53.5476692,6.47278195 53.7533835,5.9993985 C53.9590977,5.52541353 54.5100752,5.30827068 54.9840602,5.51458647 C55.4574436,5.72030075 55.6745865,6.2712782 55.4688722,6.74466165" id="Fill-51" fill="#FFFFFE" mask="url(#mask-2)"></path>
                <path d="M61.8869173,10.6766917 C61.5885714,11.0983459 61.0051128,11.198797 60.5834586,10.9010526 C60.1618045,10.6027068 60.0613534,10.0192481 60.3596992,9.59759398 C60.6574436,9.17533835 61.2415038,9.07548872 61.6631579,9.37323308 C62.084812,9.67157895 62.1846617,10.2550376 61.8869173,10.6766917" id="Fill-52" fill="#FFFFFE" mask="url(#mask-2)"></path>
                <path d="M66.9960902,15.3058647 C66.6183459,15.6583459 66.0264662,15.6372932 65.6745865,15.2595489 C65.3221053,14.8818045 65.3425564,14.2905263 65.7203008,13.9380451 C66.0980451,13.5855639 66.6899248,13.6066165 67.0418045,13.9843609 C67.3942857,14.3615038 67.3738346,14.9533835 66.9960902,15.3058647" id="Fill-53" fill="#FFFFFE" mask="url(#mask-2)"></path>
                <path d="M71.6878195,21.0628571 C71.2457143,21.3305263 70.6706767,21.1903759 70.4030075,20.7488722 C70.1353383,20.3073684 70.2754887,19.7317293 70.717594,19.4640602 C71.1590977,19.196391 71.7341353,19.3365414 72.0018045,19.7786466 C72.2700752,20.2201504 72.1293233,20.795188 71.6878195,21.0628571" id="Fill-54" fill="#FFFFFE" mask="url(#mask-2)"></path>
                <path d="M75.1314286,27.9777444 C74.644812,28.1503759 74.1100752,27.8953383 73.9380451,27.4087218 C73.7654135,26.9215038 74.0204511,26.3873684 74.5070677,26.2153383 C74.9942857,26.0427068 75.5284211,26.2977444 75.7010526,26.7843609 C75.8730827,27.2709774 75.6180451,27.8057143 75.1314286,27.9777444" id="Fill-55" fill="#FFFFFE" mask="url(#mask-2)"></path>
                <path d="M76.8156391,35.3533835 C76.3043609,35.4231579 75.832782,35.0646617 75.7630075,34.552782 C75.6938346,34.0415038 76.0523308,33.5699248 76.563609,33.5001504 C77.0754887,33.4309774 77.5470677,33.7888722 77.6162406,34.3007519 C77.6866165,34.8126316 77.3281203,35.2842105 76.8156391,35.3533835" id="Fill-56" fill="#FFFFFE" mask="url(#mask-2)"></path>
                <path d="M76.6249624,42.8806015 C76.1094737,42.8445113 75.7209023,42.397594 75.7569925,41.8821053 C75.7930827,41.3666165 76.24,40.9786466 76.7554887,41.0147368 C77.2703759,41.0508271 77.6589474,41.4977444 77.6228571,42.0126316 C77.5867669,42.5281203 77.1398496,42.9166917 76.6249624,42.8806015" id="Fill-57" fill="#FFFFFE" mask="url(#mask-2)"></path>
                <path d="M75.5007519,50.242406 C75.0039098,50.1022556 74.7145865,49.5861654 74.8547368,49.0887218 C74.9948872,48.5912782 75.5109774,48.3025564 76.0084211,48.4427068 C76.5058647,48.5828571 76.7945865,49.0995489 76.6550376,49.596391 C76.5142857,50.0932331 75.9981955,50.3831579 75.5007519,50.242406" id="Fill-58" fill="#FFFFFE" mask="url(#mask-2)"></path>
                <path d="M72.4703759,57.6679699 C72.0120301,57.4297744 71.833985,56.8649624 72.072782,56.4066165 C72.3109774,55.9488722 72.875188,55.7708271 73.3335338,56.0090226 C73.7918797,56.2478195 73.9699248,56.8120301 73.7311278,57.2703759 C73.4929323,57.7287218 72.9281203,57.9067669 72.4703759,57.6679699" id="Fill-59" fill="#FFFFFE" mask="url(#mask-2)"></path>
                <path d="M68.4685714,63.677594 C68.0685714,63.3503759 68.0102256,62.7615038 68.3368421,62.3621053 C68.6634586,61.9621053 69.2523308,61.9025564 69.6523308,62.2291729 C70.0523308,62.5557895 70.1118797,63.1452632 69.7846617,63.5452632 C69.4580451,63.9452632 68.8685714,64.0042105 68.4685714,63.677594" id="Fill-60" fill="#FFFFFE" mask="url(#mask-2)"></path>
                <path d="M63.0682707,69.3058647 C62.7428571,68.9046617 62.804812,68.315188 63.206015,67.9903759 C63.607218,67.6655639 64.1966917,67.7275188 64.5215038,68.1287218 C64.8463158,68.5305263 64.7843609,69.118797 64.3831579,69.443609 C63.9819549,69.7690226 63.3930827,69.7070677 63.0682707,69.3058647" id="Fill-61" fill="#FFFFFE" mask="url(#mask-2)"></path>
                <path d="M56.5978947,73.1831579 C56.3609023,72.723609 56.5419549,72.16 57.0009023,71.923609 C57.4604511,71.687218 58.0240602,71.8670677 58.2610526,72.3266165 C58.4968421,72.7861654 58.316391,73.3497744 57.8574436,73.5861654 C57.3984962,73.8225564 56.8342857,73.6421053 56.5978947,73.1831579" id="Fill-62" fill="#FFFFFE" mask="url(#mask-2)"></path>
                <path d="M49.4003008,76.0625564 C49.2625564,75.5651128 49.5542857,75.0496241 50.0517293,74.9112782 C50.5491729,74.7735338 51.0652632,75.0652632 51.2030075,75.5627068 C51.3413534,76.0601504 51.0490226,76.5762406 50.5515789,76.713985 C50.0541353,76.8523308 49.5386466,76.56 49.4003008,76.0625564" id="Fill-63" fill="#FFFFFE" mask="url(#mask-2)"></path>
                <path d="M42.0631579,77.2186466 C42.0294737,76.7037594 42.4198496,76.2580451 42.9353383,76.2243609 C43.4508271,76.1906767 43.8959398,76.5804511 43.9290226,77.0965414 C43.9633083,77.6114286 43.5729323,78.0571429 43.0574436,78.0908271 C42.5425564,78.1245113 42.0974436,77.7335338 42.0631579,77.2186466" id="Fill-64" fill="#FFFFFE" mask="url(#mask-2)"></path>
                <path d="M34.5431579,77.0273684 C34.6147368,76.5160902 35.0875188,76.1593985 35.5993985,76.2315789 C36.1106767,76.3031579 36.4667669,76.7765414 36.395188,77.2878195 C36.323609,77.7990977 35.8508271,78.1557895 35.3389474,78.0830075 C34.8276692,78.0114286 34.4715789,77.5386466 34.5431579,77.0273684" id="Fill-65" fill="#FFFFFE" mask="url(#mask-2)"></path>
                <path d="M27.1242105,74.9533835 C27.2986466,74.4679699 27.8345865,74.2153383 28.32,74.3897744 C28.8066165,74.5642105 29.0592481,75.0995489 28.884812,75.5855639 C28.7103759,76.0721805 28.1744361,76.324812 27.6884211,76.1503759 C27.202406,75.9759398 26.9497744,75.44 27.1242105,74.9533835" id="Fill-66" fill="#FFFFFE" mask="url(#mask-2)"></path>
                <path d="M20.1515789,71.3311278 C20.4216541,70.8902256 20.9972932,70.7524812 21.437594,71.0219549 C21.8778947,71.2920301 22.0162406,71.8676692 21.7467669,72.3085714 C21.4766917,72.7482707 20.9004511,72.8866165 20.4607519,72.6171429 C20.0198496,72.3470677 19.8821053,71.7714286 20.1515789,71.3311278" id="Fill-67" fill="#FFFFFE" mask="url(#mask-2)"></path>
                <path d="M14.3434586,66.6628571 C14.6971429,66.2869173 15.2890226,66.2688722 15.6649624,66.6225564 C16.0409023,66.9768421 16.0589474,67.5681203 15.7058647,67.9446617 C15.3515789,68.3206015 14.7596992,68.3386466 14.3831579,67.9849624 C14.007218,67.6306767 13.9891729,67.0393985 14.3434586,66.6628571" id="Fill-68" fill="#FFFFFE" mask="url(#mask-2)"></path>
                <path d="M9.6312782,60.7933835 C10.0541353,60.4974436 10.637594,60.6003008 10.9335338,61.0231579 C11.2300752,61.4466165 11.127218,62.0294737 10.7037594,62.3254135 C10.2809023,62.6219549 9.69804511,62.5190977 9.40150376,62.0962406 C9.10556391,61.672782 9.20842105,61.0905263 9.6312782,60.7933835" id="Fill-69" fill="#FFFFFE" mask="url(#mask-2)"></path>
                <path d="M6.21353383,54.1948872 C6.6875188,53.9909774 7.23789474,54.2105263 7.44180451,54.6851128 C7.64571429,55.1590977 7.42616541,55.7094737 6.95218045,55.9133835 C6.47759398,56.1172932 5.92781955,55.8977444 5.72330827,55.4237594 C5.5193985,54.9491729 5.73894737,54.398797 6.21353383,54.1948872" id="Fill-70" fill="#FFFFFE" mask="url(#mask-2)"></path>
                <path d="M3.53503759,47.2890226 C4.04090226,47.1855639 4.53473684,47.512782 4.63759398,48.0186466 C4.74105263,48.5251128 4.41383459,49.0183459 3.90796992,49.1218045 C3.40150376,49.2246617 2.90827068,48.8980451 2.80481203,48.3915789 C2.70195489,47.8851128 3.02857143,47.3918797 3.53503759,47.2890226" id="Fill-71" fill="#FFFFFE" mask="url(#mask-2)"></path>
                <path d="M2.83669173,39.3136738 C3.35338346,39.3160902 3.77022556,39.7365414 3.76782991,40.2526316 C3.76601504,40.7693233 3.34556391,41.1861654 2.82827068,41.1837698 C2.31218045,41.1819549 1.89593985,40.7615038 1.89714026,40.244812 C1.89954887,39.7281203 2.3206015,39.3112782 2.83669173,39.3136738" id="Fill-72" fill="#FFFFFE" mask="url(#mask-2)"></path>
                <path d="M3.91578947,31.8652632 C4.42105263,31.9723308 4.74345865,32.4685714 4.63639098,32.9738346 C4.5287218,33.4790977 4.0318797,33.8015038 3.52661654,33.6944361 C3.02195489,33.5867669 2.69894737,33.0905263 2.80661654,32.5852632 C2.91428571,32.08 3.41052632,31.757594 3.91578947,31.8652632" id="Fill-73" fill="#FFFFFE" mask="url(#mask-2)"></path>
                <path d="M6.48902256,24.7915789 C6.96180451,24.9996992 7.17654135,25.5512782 6.96842105,26.0246617 C6.76030075,26.4968421 6.2087218,26.7115789 5.73593985,26.5040602 C5.26315789,26.2959398 5.04902256,25.7437594 5.25654135,25.2709774 C5.46466165,24.798797 6.0162406,24.5840602 6.48902256,24.7915789" id="Fill-74" fill="#FFFFFE" mask="url(#mask-2)"></path>
                <path d="M9.89293233,18.3909774 C10.313985,18.6905263 10.4114286,19.2745865 10.1118797,19.6950376 C9.81172932,20.1154887 9.22766917,20.2129323 8.80721805,19.9133835 C8.38676692,19.6132331 8.2887218,19.0297744 8.58887218,18.6093233 C8.88902256,18.1882707 9.4724812,18.0908271 9.89293233,18.3909774" id="Fill-75" fill="#FFFFFE" mask="url(#mask-2)"></path>
                <path d="M14.9365414,12.2947368 C15.2866165,12.6742857 15.2637594,13.2661654 14.8842105,13.6162406 C14.5052632,13.9669173 13.9133835,13.9440602 13.5633083,13.5645113 C13.2126316,13.1849624 13.2354887,12.5936842 13.6150376,12.2430075 C13.9945865,11.8923308 14.5858647,11.9157895 14.9365414,12.2947368" id="Fill-76" fill="#FFFFFE" mask="url(#mask-2)"></path>
                <path d="M20.877594,8.14857143 C21.1440602,8.5912782 21.0003008,9.16571429 20.5581955,9.43157895 C20.1154887,9.69744361 19.5410526,9.55428571 19.2745865,9.11157895 C19.0087218,8.66887218 19.1518797,8.09443609 19.5945865,7.82857143 C20.0372932,7.56270677 20.6117293,7.70586466 20.877594,8.14857143" id="Fill-77" fill="#FFFFFE" mask="url(#mask-2)"></path>
                <path d="M27.8057143,5.12842105 C27.9759398,5.6156391 27.7184962,6.14917293 27.2312782,6.3193985 C26.7434586,6.48962406 26.2099248,6.23218045 26.0396992,5.74496241 C25.8700752,5.25714286 26.1269173,4.72421053 26.6147368,4.55398496 C27.1025564,4.3837594 27.6354887,4.6406015 27.8057143,5.12842105" id="Fill-78" fill="#FFFFFE" mask="url(#mask-2)"></path>
                <text id="LV7" mask="url(#mask-2)" font-family="Asap-BoldItalic, Asap" font-size="22" font-style="italic" font-weight="bold" fill="#FFFFFF">
                    <tspan x="22.004" y="49">LV7</tspan>
                </text>
            </g>
        </g>
    </g>
</svg>