<?xml version="1.0" encoding="UTF-8"?>
<svg width="44px" height="44px" viewBox="0 0 44 44" version="1.1" xmlns="http://www.w3.org/2000/svg" xmlns:xlink="http://www.w3.org/1999/xlink">
    <title>menu_icon</title>
    <g id="Dapp_CN" stroke="none" stroke-width="1" fill="none" fill-rule="evenodd">
        <g id="Account_deposit_details" transform="translate(-321.000000, -50.000000)" fill="#000000">
            <g id="Menu" transform="translate(321.000000, 50.000000)">
                <path d="M28.8,26.5294118 C29.4627417,26.5294118 30,27.0666701 30,27.7294118 L30,27.8 C30,28.4627417 29.4627417,29 28.8,29 L20,29 C19.3372583,29 18.8,28.4627417 18.8,27.8 L18.8,27.7294118 C18.8,27.0666701 19.3372583,26.5294118 20,26.5294118 L28.8,26.5294118 Z M28.8,20.7647059 C29.4627417,20.7647059 30,21.3019642 30,21.9647059 L30,22.0352941 C30,22.6980358 29.4627417,23.2352941 28.8,23.2352941 L15.2,23.2352941 C14.5372583,23.2352941 14,22.6980358 14,22.0352941 L14,21.9647059 C14,21.3019642 14.5372583,20.7647059 15.2,20.7647059 L28.8,20.7647059 Z M28.8,15 C29.4627417,15 30,15.5372583 30,16.2 L30,16.2705882 C30,16.9333299 29.4627417,17.4705882 28.8,17.4705882 L15.2,17.4705882 C14.5372583,17.4705882 14,16.9333299 14,16.2705882 L14,16.2 C14,15.5372583 14.5372583,15 15.2,15 L28.8,15 Z" id="形状结合"></path>
            </g>
        </g>
    </g>
</svg>