<?xml version="1.0" encoding="UTF-8"?>
<svg width="16px" height="16px" viewBox="0 0 16 16" version="1.1" xmlns="http://www.w3.org/2000/svg" xmlns:xlink="http://www.w3.org/1999/xlink">
    <title>search_icon</title>
    <g id="Dapp" stroke="none" stroke-width="1" fill="none" fill-rule="evenodd">
        <g id="Market_undone" transform="translate(-327.000000, -591.000000)" fill="#191414" fill-rule="nonzero">
            <g id="编组-4备份-2" transform="translate(0.000000, 559.000000)">
                <g id="搜索" transform="translate(184.000000, 24.000000)">
                    <path d="M158.855079,22.5881752 L156.076175,20.0590866 C156.022839,20.0056133 155.961178,19.9614623 155.89368,19.9284171 C158.301447,16.8531625 157.903359,12.3972007 154.989981,9.81293384 C152.076602,7.22866704 147.678462,7.43021035 145.005759,10.2704575 C142.333056,13.1107046 142.331187,17.5849944 145.001516,20.4275469 C147.671845,23.2700993 152.069815,23.4754377 154.985352,20.8936858 C155.015318,20.9507405 155.053014,21.0032392 155.097337,21.0496463 L157.585908,23.8737952 C157.956079,24.0883009 158.42169,24.0247077 158.723001,23.718491 C159.024312,23.4122743 159.086886,22.9390819 158.875817,22.5628843 L158.855079,22.5881752 Z M150.261215,21.041216 C147.208297,21.041216 144.733205,18.5264523 144.732442,15.4238283 C144.73168,12.3212043 147.205535,9.80518468 150.258452,9.80363256 C153.311369,9.80208187 155.787699,12.3155859 155.789989,15.4182092 C155.787706,18.5211031 153.314396,21.0365683 150.261215,21.041216 Z" id="search_icon"></path>
                </g>
            </g>
        </g>
    </g>
</svg>