<?xml version="1.0" encoding="UTF-8"?>
<svg width="32px" height="32px" viewBox="0 0 32 32" version="1.1" xmlns="http://www.w3.org/2000/svg" xmlns:xlink="http://www.w3.org/1999/xlink">
    <title>sol</title>
    <defs>
        <linearGradient x1="5.69286547%" y1="86.1436562%" x2="94.2975361%" y2="13.8563438%" id="linearGradient-1">
            <stop stop-color="#CB4EE8" offset="0%"></stop>
            <stop stop-color="#10F4B1" offset="100%"></stop>
        </linearGradient>
    </defs>
    <g id="Dapp" stroke="none" stroke-width="1" fill="none" fill-rule="evenodd">
        <g id="Coin" transform="translate(-55.000000, -148.000000)">
            <g id="sol" transform="translate(55.000000, 148.000000)">
                <path d="M22.6016,11.936 C22.4896,12.048 22.3392,12.112 22.1824,12.112 L7.3184,12.112 C6.7936,12.112 6.528,11.472 6.8928,11.0912 L9.3312,8.5664 C9.4432,8.4512 9.5968,8.384 9.7568,8.384 L24.6752,8.384 C25.2032,8.384 25.4688,9.0304 25.0944,9.4112 L22.6016,11.936 Z M22.6016,23.2192 C22.4896,23.328 22.3392,23.392 22.1824,23.392 L7.3184,23.392 C6.7936,23.392 6.528,22.768 6.8928,22.3968 L9.3312,19.9328 C9.4432,19.8208 9.5968,19.7568 9.7568,19.7568 L24.6752,19.7568 C25.2032,19.7568 25.4688,20.3872 25.0944,20.7584 L22.6016,23.2192 Z M22.1824,14.0704 C22.3392,14.0704 22.4896,14.1312 22.6016,14.2432 L25.0944,16.7072 C25.4688,17.0752 25.2032,17.7088 24.6752,17.7088 L9.7568,17.7088 C9.5968,17.7088 9.4432,17.6448 9.3312,17.5328 L6.8928,15.0688 C6.5248,14.6976 6.7904,14.0736 7.3184,14.0736 L22.1824,14.0704 L22.1824,14.0704 Z" id="形状" fill="#00FFAD" fill-rule="nonzero"></path>
                <path d="M16,0 C24.8352,0 32,7.1648 32,16 C32,24.8352 24.8352,32 16,32 C7.1648,32 0,24.8352 0,16 C0,7.1648 7.1648,0 16,0 L16,0 Z" id="SVGID_1_" fill="#000000" fill-rule="nonzero"></path>
                <path d="M7.3984,14.4736 L22.2048,14.4736 C22.3904,14.4736 22.5664,14.5472 22.6944,14.6784 L25.0368,17.0368 C25.4688,17.472 25.1616,18.2144 24.5472,18.2144 L9.7408,18.2144 C9.5552,18.2144 9.3792,18.1408 9.2512,18.0096 L6.9088,15.6512 C6.4736,15.216 6.784,14.4736 7.3984,14.4736 Z M6.9088,11.3472 L9.2512,8.9888 C9.3824,8.8576 9.5584,8.784 9.7408,8.784 L24.544,8.784 C25.1584,8.784 25.4688,9.5264 25.0336,9.9616 L22.6944,12.32 C22.5632,12.4512 22.3872,12.5248 22.2048,12.5248 L7.3984,12.5248 C6.784,12.5248 6.4736,11.7824 6.9088,11.3472 Z M25.0336,21.3408 L22.6912,23.6992 C22.56,23.8304 22.384,23.904 22.2016,23.904 L7.3984,23.904 C6.784,23.904 6.4736,23.1616 6.9088,22.7264 L9.2512,20.368 C9.3824,20.2368 9.5584,20.1632 9.7408,20.1632 L24.544,20.1632 C25.1584,20.1632 25.4688,20.9056 25.0336,21.3408 Z" id="形状" fill="url(#linearGradient-1)"></path>
            </g>
        </g>
    </g>
</svg>