<?xml version="1.0" encoding="UTF-8"?>
<svg width="48px" height="48px" viewBox="0 0 48 48" version="1.1" xmlns="http://www.w3.org/2000/svg" xmlns:xlink="http://www.w3.org/1999/xlink">
    <title>success_icon</title>
    <g id="Dapp_CN" stroke="none" stroke-width="1" fill="none" fill-rule="evenodd">
        <g id="Swap_confirming_successful" transform="translate(-164.000000, -326.000000)" fill="#41CC8B" fill-rule="nonzero">
            <g id="Swap-Settings" transform="translate(48.000000, 278.000000)">
                <path d="M140,96 C126.745166,96 116,85.254834 116,72 C116,58.745166 126.745166,48 140,48 C153.254834,48 164,58.745166 164,72 C164,85.254834 153.254834,96 140,96 L140,96 Z M134.648,81.42 C135.626647,82.3948787 137.209353,82.3948787 138.188,81.42 L153.344,66.264 C154.338113,65.286456 154.351544,63.6881126 153.374,62.694 C152.396456,61.6998875 150.798113,61.686456 149.804,62.664 L136.304,76.008 L130.304,70.008 C129.67164,69.3649219 128.744237,69.1080533 127.871135,69.3341542 C126.998033,69.5602551 126.311877,70.2349753 126.071135,71.1041542 C125.830393,71.9733332 126.07164,72.9049219 126.704,73.548 L134.648,81.42 Z" id="success_icon"></path>
            </g>
        </g>
    </g>
</svg>