<?xml version="1.0" encoding="UTF-8"?>
<svg width="48px" height="48px" viewBox="0 0 48 48" version="1.1" xmlns="http://www.w3.org/2000/svg" xmlns:xlink="http://www.w3.org/1999/xlink">
    <title>Tab1_sel</title>
    <g id="Dapp" stroke="none" stroke-width="1" fill="none" fill-rule="evenodd">
        <g id="Tabs_icon" transform="translate(-16.000000, -145.000000)">
            <g id="Tab1_sel" transform="translate(16.000000, 145.000000)">
                <rect id="矩形" x="0" y="0" width="48" height="48"></rect>
                <path d="M24,16.8455555 L16.2222222,23.0677778 L16.2222222,31.7777778 L21.7777778,31.7777778 L21.7777778,27.3333333 L26.2222222,27.3333333 L26.2222222,31.7777778 L31.7777779,31.7777778 L31.7777779,23.6022222 C31.7777779,23.2646907 31.6245966,22.9454016 31.3611111,22.7344445 L24,16.8455555 Z M24,14 L32.7488889,21 C33.5391533,21.6321641 33.999435,22.5891087 34,23.6011111 L34,31.7777778 C34,33.0050772 33.0050772,34 31.7777778,34 L16.2222222,34 C14.9949228,34 14,33.0050772 14,31.7777778 L14,23.0677778 C14,22.3931044 14.3066666,21.7550042 14.8333333,21.3333333 L24,14 Z" id="形状" fill="#43318C" fill-rule="nonzero"></path>
            </g>
        </g>
    </g>
</svg>