<?xml version="1.0" encoding="UTF-8"?>
<svg width="48px" height="48px" viewBox="0 0 48 48" version="1.1" xmlns="http://www.w3.org/2000/svg" xmlns:xlink="http://www.w3.org/1999/xlink">
    <title>Tab2_sel</title>
    <g id="Dapp" stroke="none" stroke-width="1" fill="none" fill-rule="evenodd">
        <g id="Tabs_icon" transform="translate(-90.000000, -145.000000)">
            <g id="Tab2_sel" transform="translate(90.000000, 145.000000)">
                <rect id="矩形备份" x="0" y="0" width="48" height="48"></rect>
                <path d="M23.9333333,20.6220736 C23.9333333,20.555184 24,20.4214047 24,20.3545151 C24,20.2876254 23.9333333,20.1538462 23.9333333,20.0869565 L23.1333333,19.3511706 L27.8666667,14.6020067 C28,14.4682274 28,14.3344482 28,14.2006689 C28,14.0668896 27.8,14 27.6666667,14 C24.4666667,14 21.8,16.4080268 21,17.2107023 L20.6,16.7424749 C20.5333333,16.7424749 20.4,16.6755853 20.3333333,16.6755853 C20.2666667,16.6755853 20.1333333,16.7424749 20.0666667,16.7424749 L19.4666667,17.3444816 L17.3333333,19.5518395 L16.7333333,20.0869565 C16.6666667,20.2207358 16.6666667,20.4882943 16.7333333,20.6220736 L17.1333333,21.0234114 C16.4,21.826087 14,24.5016722 14,27.7123746 C14,27.8461538 14.0666667,27.9799331 14.2,28.0468227 L14.3333333,28.0468227 C14.4,28.0468227 14.5333333,27.9799331 14.6,27.9799331 L19.3333333,23.1638796 L20.0666667,23.8996655 C20.2,24.0334448 20.4,24.0334448 20.5333333,23.8996655 L20.9333333,23.4983277 L23.4,21.0234114 L23.9333333,20.6220736 Z M33.9333333,31.458194 L23.9333333,21.4916388 L21.4666667,23.9665552 L31.4,33.9331104 C31.4666667,34 31.5333333,34 31.6666667,34 C32.8,34 34,32.7959866 34,31.6588629 C34,31.6588629 33.9333333,31.5250836 33.9333333,31.458194 Z M16.8666667,19.0167224 L19,16.8762542 L18.4666667,16.3411371 C18,15.8729097 17.2666667,15.8729097 16.8,16.3411371 L16.3333333,16.8762542 C15.8666667,17.3444816 15.8666667,18.0802676 16.3333333,18.548495 L16.8666667,19.0167224 L16.8666667,19.0167224 Z" id="形状" fill="#43318C" fill-rule="nonzero"></path>
            </g>
        </g>
    </g>
</svg>