<?xml version="1.0" encoding="UTF-8"?>
<svg width="48px" height="48px" viewBox="0 0 48 48" version="1.1" xmlns="http://www.w3.org/2000/svg" xmlns:xlink="http://www.w3.org/1999/xlink">
    <title>Tab3_nor</title>
    <g id="Dapp" stroke="none" stroke-width="1" fill="none" fill-rule="evenodd">
        <g id="Tabs_icon" transform="translate(-164.000000, -49.000000)" fill="#000000" fill-rule="nonzero">
            <g id="Tab3_nor" transform="translate(164.000000, 49.000000)">
                <path d="M15.9998639,20.5008523 L29.000085,20.5008523 L27.4000578,21.7007671 C26.9582225,22.0321144 26.868678,22.6588712 27.2000544,23.1006676 C27.388912,23.3524556 27.6853054,23.5006392 28.0000681,23.5006392 C28.2164419,23.5006392 28.4269791,23.4304663 28.6000783,23.3006534 L32.6001463,20.3008665 C32.8480651,20.1117135 32.9935435,19.8177431 32.9935435,19.505923 C32.9935435,19.1941029 32.8480651,18.9001325 32.6001463,18.7109795 L28.7400806,15.7111925 C28.3037683,15.3715615 27.6747176,15.4499062 27.3350568,15.8861801 C26.9953959,16.3224541 27.0737473,16.9514493 27.5100597,17.2910803 L29.0800864,18.5009944 L15.9998639,18.5009944 C15.4476296,18.5010789 15,18.9487376 15,19.5009233 C15,20.0531091 15.4476296,20.5007678 15.9998639,20.5008523 Z M32.0001361,27.5003551 L18.999915,27.5003551 L20.5999422,26.3004404 C21.0417151,25.969073 21.1312219,25.3423641 20.7998681,24.9005979 C20.4685143,24.4588317 19.8417589,24.3692721 19.3999217,24.700554 L15.3998537,27.7003409 C15.1519349,27.8894939 15.0064565,28.1834644 15.0064565,28.4952845 C15.0064565,28.8071045 15.1519349,29.101075 15.3998537,29.290228 L19.2599194,32.2900149 C19.4344722,32.425473 19.6489765,32.4993122 19.8699298,32.5 C20.1794317,32.4992561 20.4711474,32.3552573 20.6599432,32.1100277 C20.9980116,31.6760723 20.922051,31.0505691 20.4899403,30.7101271 L18.9199136,29.5002131 L32.0001361,29.5002131 C32.5523704,29.5001285 33,29.0524699 33,28.5002841 C33,27.9480984 32.5523704,27.5004397 32.0001361,27.5003551 Z" id="形状" transform="translate(24.000000, 24.000000) rotate(90.000000) translate(-24.000000, -24.000000) "></path>
            </g>
        </g>
    </g>
</svg>