<?xml version="1.0" encoding="UTF-8"?>
<svg width="48px" height="48px" viewBox="0 0 48 48" version="1.1" xmlns="http://www.w3.org/2000/svg" xmlns:xlink="http://www.w3.org/1999/xlink">
    <title>Tab4_sel</title>
    <g id="Dapp" stroke="none" stroke-width="1" fill="none" fill-rule="evenodd">
        <g id="Tabs_icon" transform="translate(-237.000000, -145.000000)">
            <g id="Tab4_sel" transform="translate(237.000000, 145.000000)">
                <rect id="矩形备份-3" x="0" y="0" width="48" height="48"></rect>
                <path d="M14,32 C13.4,32 13,31.6 13,31 L13,17 C13,16.4 13.4,16 14,16 C14.6,16 15,16.4 15,17 L14.999,30 L34,30 C34.6,30 35,30.4 35,31 C35,31.6 34.6,32 34,32 L14,32 L14,32 Z M23,16 C23.6,16 24,16.4 24,17 L24,27 C24,27.6 23.6,28 23,28 C22.4,28 22,27.6 22,27 L22,17 C22,16.4 22.4,16 23,16 Z M19,23.4 C19.6,23.4 20,23.8 20,24.4 L20,27 C20,27.6 19.6,28 19,28 C18.4,28 18,27.6 18,27 L18,24.4 C18,23.8 18.4,23.4 19,23.4 Z M27,20 C27.6,20 28,20.4 28,21 L28,27 C28,27.6 27.6,28 27,28 C26.4,28 26,27.6 26,27 L26,21 C26,20.4 26.4,20 27,20 Z M31,18 C31.6,18 32,18.4 32,19 L32,27 C32,27.6 31.6,28 31,28 C30.4,28 30,27.6 30,27 L30,19 C30,18.4 30.4,18 31,18 Z" id="形状结合" fill="#43318C" fill-rule="nonzero"></path>
            </g>
        </g>
    </g>
</svg>