<?xml version="1.0" encoding="UTF-8"?>
<svg width="48px" height="48px" viewBox="0 0 48 48" version="1.1" xmlns="http://www.w3.org/2000/svg" xmlns:xlink="http://www.w3.org/1999/xlink">
    <title>Tab5_nor</title>
    <g id="Dapp" stroke="none" stroke-width="1" fill="none" fill-rule="evenodd">
        <g id="Tabs_icon" transform="translate(-311.000000, -49.000000)">
            <g id="Tab5_nor" transform="translate(311.000000, 49.000000)">
                <rect id="矩形备份-4" x="0" y="0" width="48" height="48"></rect>
                <path d="M23.9995054,23.1824605 C21.4833097,23.1824605 19.4373685,21.123472 19.4373685,18.5912302 C19.4373685,16.0589884 21.4855384,14 23.9995054,14 C26.5134724,14 28.5616423,16.0589884 28.5616423,18.5912302 C28.5616423,21.123472 26.5157011,23.1824605 23.9995054,23.1824605 L23.9995054,23.1824605 Z M23.9995054,15.8346978 C22.4884508,15.8346978 21.2604403,17.0727823 21.2604403,18.5912302 C21.2604403,20.1096781 22.4906795,21.3477627 23.9995054,21.3477627 C25.51056,21.3477627 26.7385705,20.1096781 26.7385705,18.5912302 C26.7385705,17.0727823 25.51056,15.8346978 23.9995054,15.8346978 Z M30.2153334,34 L17.7836774,34 C17.0014058,34 16.2570219,33.7734664 15.6307589,33.3473141 C15.0490697,32.9503196 14.5944161,32.3963216 14.3113719,31.7481216 C13.7096245,30.3620052 13.9926687,28.8278569 15.0512984,27.7400471 C16.1946185,26.5670068 17.5407498,25.6429292 19.0518044,24.9969721 C20.6163477,24.3263429 22.2811822,23.987664 23.9995054,23.987664 C25.7178286,23.987664 27.3826631,24.3263429 28.9472064,24.9969721 C30.458261,25.6429292 31.8021636,26.5670068 32.9477124,27.7400471 C34.0063421,28.825614 34.291615,30.3620052 33.6876389,31.7481216 C33.4045947,32.3985645 32.9499411,32.9503196 32.3682519,33.3473141 C31.7442176,33.7734664 30.9998337,34 30.2153334,34 L30.2153334,34 Z M23.9995054,26.0645957 C21.1712925,26.0645957 18.536976,27.1703488 16.5824113,29.1755075 C16.1121568,29.6577324 15.9918073,30.3126612 16.2592506,30.9294606 C16.5289226,31.5507458 17.0994683,31.9208254 17.7836774,31.9208254 L30.2153334,31.9208254 C30.9017712,31.9208254 31.4700882,31.5507458 31.7397602,30.9294606 C32.0072035,30.3149041 31.886854,29.6577324 31.4165995,29.1755075 C29.4620347,27.1703488 26.8277183,26.0645957 23.9995054,26.0645957 L23.9995054,26.0645957 Z" id="形状" fill="#000000" fill-rule="nonzero"></path>
            </g>
        </g>
    </g>
</svg>