<?xml version="1.0" encoding="UTF-8"?>
<svg width="24px" height="24px" viewBox="0 0 24 24" version="1.1" xmlns="http://www.w3.org/2000/svg" xmlns:xlink="http://www.w3.org/1999/xlink">
    <title>Label3_icon</title>
    <g id="Dapp_CN" stroke="none" stroke-width="1" fill="none" fill-rule="evenodd">
        <g id="Menu" transform="translate(-32.000000, -336.000000)" fill="#FFFFFF" fill-rule="nonzero">
            <g id="Label1备份-2" transform="translate(32.000000, 336.000000)">
                <path d="M7.28571429,1.71428571 C9.85714286,1.71428571 12,3.85714286 12,6.42857143 C12,7.88571429 11.3142857,9.25714286 10.2,10.1142857 C12.7714286,11.3142857 14.5714286,13.9714286 14.5714286,16.9714286 L14.5714286,16.9714286 L14.5714286,22.2857143 C14.5714286,23.2285714 13.8,24 12.8571429,24 L12.8571429,24 L1.71428571,24 C0.771428571,24 0,23.2285714 0,22.2857143 L0,22.2857143 L0,16.7142857 C0,13.7142857 1.71428571,11.1428571 4.28571429,10.0285714 C3.25714286,9.17142857 2.57142857,7.88571429 2.57142857,6.42857143 C2.57142857,3.85714286 4.71428571,1.71428571 7.28571429,1.71428571 Z M7.28571429,11.1428571 C4.11428571,11.1428571 1.71428571,13.5428571 1.71428571,16.7142857 L1.71428571,16.7142857 L1.71428571,22.2857143 L12.8571429,22.2857143 L12.8571429,16.9714286 C12.8571429,13.8857143 10.2857143,11.1428571 7.28571429,11.1428571 Z M17.1428571,0 C19.5428571,0 21.5142857,1.97142857 21.5142857,4.37142857 C21.5142857,5.74285714 20.9142857,7.02857143 19.8857143,7.8 L19.8857143,7.8 C22.2,9 24,11.4857143 24,14.2285714 L24,14.2285714 L24,18.8571429 C24,19.8 23.2285714,20.5714286 22.2857143,20.5714286 L22.2857143,20.5714286 L17.1428571,20.5714286 C16.6285714,20.5714286 16.2857143,20.2285714 16.2857143,19.7142857 C16.2857143,19.2 16.6285714,18.8571429 17.1428571,18.8571429 L17.1428571,18.8571429 L22.2857143,18.8571429 L22.2857143,14.0571429 C22.2857143,11.3142857 19.8,8.74285714 17.1428571,8.74285714 C15.9428571,8.74285714 15.1714286,9 14.2285714,9.68571429 C13.8,10.0285714 13.2857143,9.94285714 13.0285714,9.51428571 C12.6857143,9.08571429 12.7714286,8.57142857 13.2,8.31428571 C13.6285714,8.05714286 13.9714286,7.88571429 14.3142857,7.71428571 C13.3714286,6.94285714 12.7714286,5.74285714 12.7714286,4.37142857 C12.7714286,1.97142857 14.7428571,0 17.1428571,0 Z M7.28571429,3.42857143 C5.65714286,3.42857143 4.28571429,4.8 4.28571429,6.42857143 C4.28571429,8.05714286 5.65714286,9.42857143 7.28571429,9.42857143 C8.91428571,9.42857143 10.2857143,8.05714286 10.2857143,6.42857143 C10.2857143,4.8 8.91428571,3.42857143 7.28571429,3.42857143 Z M17.1428571,1.71428571 C15.6857143,1.71428571 14.4857143,2.91428571 14.4857143,4.37142857 C14.4857143,5.82857143 15.6857143,7.02857143 17.1428571,7.02857143 C18.6,7.02857143 19.8,5.82857143 19.8,4.37142857 C19.8,2.91428571 18.6,1.71428571 17.1428571,1.71428571 Z" id="形状结合"></path>
            </g>
        </g>
    </g>
</svg>