<?xml version="1.0" encoding="UTF-8"?>
<svg width="32px" height="32px" viewBox="0 0 32 32" version="1.1" xmlns="http://www.w3.org/2000/svg" xmlns:xlink="http://www.w3.org/1999/xlink">
    <title>team_icon_02</title>
    <defs>
        <linearGradient x1="50%" y1="0%" x2="50%" y2="100%" id="linearGradient-1">
            <stop stop-color="#785FC0" offset="0%"></stop>
            <stop stop-color="#43318C" offset="100%"></stop>
        </linearGradient>
        <linearGradient x1="50%" y1="0%" x2="50%" y2="100%" id="linearGradient-2">
            <stop stop-color="#785FC0" offset="0%"></stop>
            <stop stop-color="#43318C" offset="100%"></stop>
        </linearGradient>
        <linearGradient x1="50%" y1="0%" x2="50%" y2="100%" id="linearGradient-3">
            <stop stop-color="#785FC0" offset="0%"></stop>
            <stop stop-color="#43318C" offset="100%"></stop>
        </linearGradient>
    </defs>
    <g id="Dapp" stroke="none" stroke-width="1" fill="none" fill-rule="evenodd">
        <g id="Market" transform="translate(-172.000000, -639.000000)" fill-rule="nonzero">
            <g id="编组-4备份-2" transform="translate(0.000000, 559.000000)">
                <g id="team_icon_02" transform="translate(172.000000, 80.000000)">
                    <path d="M25,16.7116575 L25,16.8649396 L24.9996878,16.8649396 C24.9996878,17.4452222 24.77192,17.9939098 24.3590132,18.4090229 C23.9461064,18.8241361 23.4006463,19.0528081 22.823448,19.0528081 L17.1765509,19.0528081 C16.5993526,19.0528081 16.0535813,18.8241361 15.6406745,18.4090229 C15.2277677,17.9939098 15,17.4452222 15,16.8649396 L15,11.1884941 C15,10.877863 15.0659655,10.5769295 15.1894953,10.3003959 C15.2570166,10.1499291 15.3413404,10.0066572 15.4421557,9.87308275 C15.4452672,9.86901608 15.4483788,9.86526223 15.4514904,9.86119556 C15.5093658,9.78549294 15.5722197,9.71291852 15.6406745,9.64441077 L15.6409857,9.64409795 C16.0538925,9.2289848 16.5996638,9 17.176862,9 L22.823448,9 C23.4006463,9 23.9464176,9.2289848 24.3593244,9.64409795 C24.5662445,9.85212376 24.7261798,10.0929957 24.834774,10.3545139 C24.9441253,10.6185803 25.0002842,10.901832 25,11.1878684 L25,16.7116575 Z" id="路径" fill="#B2A5EA"></path>
                    <g id="编组-7" transform="translate(1.000000, 1.000000)" stroke="#FFFFFF" stroke-width="0.5">
                        <path d="M24.0625,25 L4.06250001,25 C3.54473306,25 3.12500001,24.5802669 3.12500001,24.0625 C3.12500001,23.544733 3.54473306,23.125 4.06250001,23.125 L24.0625,23.125 C24.580267,23.125 25,23.544733 25,24.0625 C25,24.5802669 24.580267,25 24.0625,25 Z" id="路径" fill="url(#linearGradient-1)"></path>
                        <path d="M26.25,1.875 C26.4157603,1.875 26.5747315,1.94084801 26.6919418,2.05805825 C26.809152,2.17526848 26.875,2.33423968 26.875,2.49999999 L26.875,27.5 C26.875,27.6657603 26.809152,27.8247315 26.6919418,27.9419418 C26.5747315,28.059152 26.4157603,28.125 26.25,28.125 L2.50000002,28.125 C2.33423971,28.125 2.17526851,28.059152 2.05805827,27.9419418 C1.94084803,27.8247315 1.875,27.6657603 1.875,27.5 L1.875,2.49999999 C1.875,2.33423968 1.94084803,2.17526848 2.05805827,2.05805825 C2.17526851,1.94084801 2.33423971,1.875 2.50000002,1.875 L26.25,1.875 M26.25,0 L2.5,0 C1.83695879,0 1.20107401,0.263392089 0.732233055,0.732233034 C0.263392104,1.20107398 4.16333634e-14,1.83695876 4.16333634e-14,2.5 L4.16333634e-14,27.5 C4.16333634e-14,28.1630412 0.263392104,28.798926 0.732233055,29.267767 C1.20107401,29.7366079 1.83695879,30 2.5,30 L26.25,30 C26.9130412,30 27.548926,29.7366079 28.017767,29.267767 C28.4866079,28.798926 28.75,28.1630412 28.75,27.5 L28.75,2.5 C28.75,1.83695876 28.4866079,1.20107398 28.017767,0.732233034 C27.548926,0.263392089 26.9130412,0 26.25,0 L26.25,0 Z" id="形状" fill="url(#linearGradient-2)"></path>
                        <path d="M11.1375,19.7 L8.12500002,15.48125 L7.2375,18.125 L5.31250002,18.125 C4.79473307,18.125 4.37500002,17.705267 4.37500002,17.1875 C4.37500002,16.6697331 4.79473307,16.25 5.31250002,16.25 L5.8875,16.25 L7.5,11.39375 L10.7375,15.925 L15.19375,5.74374999 L20.225,14.375 L23.4375,14.375 C23.9552669,14.375 24.375,14.7947331 24.375,15.3125 C24.375,15.8302669 23.9552669,16.25 23.4375,16.25 L19.15,16.25 L15.43125,9.88125 L11.1375,19.7 Z" id="路径" fill="url(#linearGradient-3)"></path>
                    </g>
                </g>
            </g>
        </g>
    </g>
</svg>