<?xml version="1.0" encoding="UTF-8"?>
<svg width="32px" height="32px" viewBox="0 0 32 32" version="1.1" xmlns="http://www.w3.org/2000/svg" xmlns:xlink="http://www.w3.org/1999/xlink">
    <title>team_icon_01</title>
    <defs>
        <linearGradient x1="0%" y1="0%" x2="100%" y2="100%" id="linearGradient-1">
            <stop stop-color="#785FC0" offset="0%"></stop>
            <stop stop-color="#43318C" offset="100%"></stop>
        </linearGradient>
    </defs>
    <g id="Dapp" stroke="none" stroke-width="1" fill="none" fill-rule="evenodd">
        <g id="Market" transform="translate(-54.000000, -639.000000)" fill-rule="nonzero">
            <g id="编组-4备份-2" transform="translate(0.000000, 559.000000)">
                <g id="team_icon_01" transform="translate(54.000000, 80.000000)">
                    <path d="M20.0108225,19.7900483 L20.0108225,19.9128351 L20.0105711,19.9128351 C20.0105711,20.3776707 19.8271443,20.8171973 19.4946206,21.1497239 C19.1620969,21.4822506 18.7228249,21.6654284 18.2579934,21.6654284 L13.7104126,21.6654284 C13.2455811,21.6654284 12.8060584,21.4822506 12.4735347,21.1497239 C12.1410111,20.8171973 11.9575843,20.3776707 11.9575843,19.9128351 L11.9575843,15.3657149 C11.9575843,15.1168837 12.0107079,14.8758207 12.1101894,14.6543033 C12.1645659,14.5337718 12.2324739,14.4190037 12.3136628,14.3120038 C12.3161686,14.3087462 12.3186744,14.3057392 12.3211803,14.3024816 C12.3677887,14.24184 12.4184065,14.1837042 12.4735347,14.128826 L12.4737853,14.1285754 C12.806309,13.7960488 13.2458316,13.6126204 13.7106632,13.6126204 L18.2579934,13.6126204 C18.7228249,13.6126204 19.1623475,13.7960488 19.4948712,14.1285754 C19.6615089,14.2952146 19.7903086,14.4881653 19.8777621,14.6976546 C19.9658253,14.9091851 20.0110514,15.1360841 20.0108225,15.3652137 L20.0108225,19.7900483 Z" id="路径" fill="#B2A5EA"></path>
                    <path d="M8.05466436,11.2080551 C9.0378408,11.2080551 9.91872684,11.6688401 10.4921161,12.3851997 C11.1502781,11.6632093 12.0974809,11.2080551 13.1457227,11.2080551 L13.1457227,11.2080551 L18.822683,11.2080551 C19.8796837,11.2080551 20.8337683,11.6710299 21.4928688,12.4036561 C22.0656324,11.6769735 22.9530876,11.2080551 23.9450228,11.2080551 L23.9450228,11.2080551 L28.877797,11.2080551 C30.5948366,11.2080551 32,12.6129332 32,14.3300064 L32,14.3300064 L32,18.9772716 L31.9878002,19.0980204 L31.9449446,19.2841488 L31.9449446,19.2841488 L31.9144289,19.3816563 C31.8635377,19.5089668 31.7706443,19.6201808 31.6415144,19.6917542 L31.6415144,19.6917542 L30.5635551,20.2904932 L30.0239499,20.5901755 L29.9448078,22.1955716 L29.6973714,27.2135295 C29.6782897,27.6011144 29.3488959,27.8995454 28.9613185,27.8804634 C28.9566263,27.8804634 28.9519341,27.8798377 28.9472419,27.8795249 L28.9472419,27.8795249 L23.2740354,27.8795249 C22.8858324,27.8795249 22.5714537,27.56514 22.5714537,27.1769295 C22.5714537,26.7887189 22.8858324,26.474334 23.2740354,26.474334 L23.2740354,26.474334 L28.327556,26.474334 L28.5293215,22.3845154 L28.5987663,20.9796373 L28.6406835,20.13377 C28.645931,20.0246343 28.6766789,19.9182467 28.7304613,19.823139 C28.7842654,19.7167799 28.869351,19.6248106 28.9816515,19.5622464 L28.9816515,19.5622464 L30.5951494,18.666015 L30.5951494,14.3300064 C30.5951494,13.8748521 30.4155938,13.4447236 30.0896409,13.1184515 C29.7633753,12.7924923 29.3332551,12.6129332 28.8781098,12.6129332 L28.8781098,12.6129332 L23.9453356,12.6129332 C23.4901903,12.6129332 23.0600702,12.7924923 22.7334917,13.1184515 C22.5207777,13.3314825 22.3703139,13.5892468 22.2917974,13.8692214 C22.3721908,14.1667139 22.4153592,14.478909 22.4153592,14.8008016 L22.4153592,14.8008016 L22.4153592,20.4778728 C22.4153592,20.9502322 22.3227661,21.4022582 22.1550974,21.8164329 C21.7834736,22.7333105 21.043667,23.4653111 20.1211766,23.8259935 L20.1211766,23.8259935 L19.750804,31.3327533 C19.7464246,31.424097 19.7242148,31.5104355 19.6882411,31.5892663 C19.5968992,31.8291999 19.3651036,32 19.0932676,32 L19.0932676,32 L12.9154912,32 C12.6233223,32 12.3777628,31.8029229 12.3026873,31.5348355 C12.2798518,31.4713329 12.2657751,31.4034508 12.2623342,31.3324405 L12.2623342,31.3324405 L11.8929001,23.8435114 C10.9550818,23.4919009 10.1999472,22.7577105 9.82019023,21.8333252 C9.64814217,21.414771 9.55304652,20.9568014 9.55304652,20.4778728 L9.55304652,20.4778728 L9.55304652,14.8011144 C9.55291484,14.4674789 9.59956119,14.1354725 9.69162341,13.8147906 C9.60966597,13.555775 9.46545842,13.3177184 9.26619549,13.1184515 C8.93992981,12.7924923 8.50980967,12.6129332 8.05466436,12.6129332 L8.05466436,12.6129332 L3.12189018,12.6129332 C2.66674487,12.6129332 2.23662473,12.7924923 1.91035905,13.1184515 C1.58440619,13.4447236 1.40485058,13.8748521 1.40485058,14.3300064 L1.40485058,14.3300064 L1.40485058,18.6832201 L2.98706707,19.5622464 C3.09516859,19.6219174 3.182723,19.7128537 3.23825723,19.823139 C3.29018446,19.9151083 3.32240437,20.0208417 3.32803504,20.13377 L3.32803504,20.13377 L3.3699522,20.9793245 L3.43939705,22.3842026 L3.6411625,26.4740212 L8.69437031,26.4740212 C9.08257329,26.4740212 9.39695201,26.7884061 9.39695201,27.1766166 C9.39695201,27.5648272 9.08257329,27.8792121 8.69437031,27.8792121 L8.69437031,27.8792121 L3.02116387,27.8792121 L3.00708721,27.8801505 C2.61982267,27.8995454 2.29011603,27.6008016 2.27103434,27.2132167 L2.27103434,27.2132167 L2.02297233,22.1833716 L1.94445585,20.5901755 L1.40485058,20.2904932 L0.327204121,19.6914414 C0.165791763,19.6019747 0.0606860416,19.4505694 0.0240867279,19.2832103 C0.0237739132,19.2835231 0.0237739132,19.283836 0.0237739132,19.2841488 L0,19.0548512 L0,14.3300064 C0,12.6129332 1.40485058,11.2080551 3.12189018,11.2080551 L3.12189018,11.2080551 Z M18.7025621,24.0706193 L13.3108889,24.0706193 L13.6327752,30.5954348 L18.3806759,30.5954348 L18.7025621,24.0706193 Z M5.83805977,2.06055037 C7.94142546,2.06055037 9.64689092,3.76573635 9.64689092,5.86945599 C9.64689092,7.97317562 7.94173827,9.6783616 5.83805977,9.6783616 C3.73438126,9.6783616 2.02922862,7.97317562 2.02922862,5.86945599 C2.02922862,3.76573635 3.73438126,2.06055037 5.83805977,2.06055037 Z M26.1616274,2.06055037 C28.2653059,2.06055037 29.9704586,3.76542353 29.9704586,5.86914316 C29.9704586,7.9728628 28.2649931,9.67804878 26.1616274,9.67804878 C24.0582617,9.67804878 22.3527963,7.97317562 22.3527963,5.86945599 C22.3527963,3.76573635 24.0579489,2.06055037 26.1616274,2.06055037 Z M15.9842029,0 C18.6565784,0 20.8231326,2.16659661 20.8231326,4.83902439 C20.8231326,7.51145217 18.6565784,9.67804878 15.9842029,9.67804878 C13.3118273,9.67804878 11.1452731,7.51145217 11.1452731,4.83902439 C11.1452731,2.16659661 13.3118273,0 15.9842029,0 Z M5.83805977,3.4651156 C4.51235129,3.4651156 3.4340792,4.54340877 3.4340792,5.86914316 C3.4340792,7.19487756 4.51235129,8.27317073 5.83805977,8.27317073 C7.16345543,8.27317073 8.24204033,7.19487756 8.24204033,5.86914316 C8.24204033,4.54340877 7.16376824,3.4651156 5.83805977,3.4651156 Z M26.1616274,3.4651156 C24.8359189,3.4651156 23.7576469,4.54340877 23.7576469,5.86914316 C23.7576469,7.19487756 24.8359189,8.27317073 26.1616274,8.27317073 C27.4873359,8.27317073 28.565608,7.19487756 28.565608,5.86914316 C28.565608,4.54340877 27.4873359,3.4651156 26.1616274,3.4651156 Z M15.9842029,1.40425241 C15.0667175,1.40425241 14.2042875,1.76149372 13.5558228,2.41028398 C12.9070452,3.05876143 12.5498108,3.92152109 12.5498108,4.83871157 C12.5498108,5.75621487 12.9070452,6.61866171 13.5558228,7.26713916 C14.2042875,7.91592942 15.0670303,8.27317073 15.9842029,8.27317073 C16.9013754,8.27317073 17.7641182,7.91624224 18.412583,7.26713916 C19.0613605,6.61866171 19.4185949,5.75590205 19.4185949,4.83871157 C19.4185949,3.92120827 19.0613605,3.05876143 18.412583,2.41028398 C17.7641182,1.76149372 16.9013754,1.40425241 15.9842029,1.40425241 Z M11.0800209,14.0832023 L11.033,14.236 L11.027382,14.2556276 C10.9967662,14.3731081 10.9759503,14.4935516 10.9654747,14.6160171 L10.9575843,14.8011144 L10.9575843,20.47756 C10.9575843,20.7354633 11.002815,20.9871257 11.089514,21.2235942 L11.1623852,21.397931 C11.2695146,21.626176 11.4171785,21.8370095 11.6016696,22.0216433 C12.0167747,22.4367564 12.5654516,22.6654284 13.1457227,22.6654284 L13.1457227,22.6654284 L18.822683,22.6654284 C19.4029541,22.6654284 19.9513182,22.4367564 20.3664233,22.0216433 C20.7815283,21.6065301 21.0105086,21.0578425 21.0105086,20.47756 L21.0105086,20.47756 L21.0108225,14.8004888 C21.0111083,14.5144524 20.9546504,14.2312006 20.8447169,13.9671343 C20.7355445,13.7056161 20.5747578,13.4647441 20.3667361,13.2567183 C19.951631,12.8416052 19.4029541,12.6126204 18.822683,12.6126204 L18.822683,12.6126204 L13.1460356,12.6126204 C12.5657644,12.6126204 12.0170875,12.8416052 11.6019825,13.2567183 L11.6019825,13.2567183 C11.5852841,13.2733425 11.5692178,13.2898844 11.5534622,13.3066442 C11.5035015,13.3599754 11.4561251,13.4156512 11.4114783,13.4735031 C11.4083502,13.4778826 11.405222,13.4816364 11.4020939,13.4857031 C11.300742,13.6192776 11.2159692,13.7625495 11.1480884,13.9130163 L11.1480884,13.9130163 L11.0800209,14.0832023 L11.0800209,14.0832023 Z" id="形状结合" fill="url(#linearGradient-1)"></path>
                </g>
            </g>
        </g>
    </g>
</svg>