<?xml version="1.0" encoding="UTF-8"?>
<svg width="32px" height="32px" viewBox="0 0 32 32" version="1.1" xmlns="http://www.w3.org/2000/svg" xmlns:xlink="http://www.w3.org/1999/xlink">
    <title>team_icon_03</title>
    <defs>
        <linearGradient x1="50%" y1="0%" x2="50%" y2="100%" id="linearGradient-1">
            <stop stop-color="#785FC0" offset="0%"></stop>
            <stop stop-color="#43318C" offset="100%"></stop>
        </linearGradient>
        <linearGradient x1="50%" y1="0%" x2="50%" y2="100%" id="linearGradient-2">
            <stop stop-color="#785FC0" offset="0%"></stop>
            <stop stop-color="#43318C" offset="100%"></stop>
        </linearGradient>
        <linearGradient x1="50%" y1="0%" x2="50%" y2="100%" id="linearGradient-3">
            <stop stop-color="#785FC0" offset="0%"></stop>
            <stop stop-color="#43318C" offset="100%"></stop>
        </linearGradient>
        <linearGradient x1="50%" y1="0%" x2="50%" y2="100%" id="linearGradient-4">
            <stop stop-color="#785FC0" offset="0%"></stop>
            <stop stop-color="#43318C" offset="100%"></stop>
        </linearGradient>
        <linearGradient x1="50%" y1="0%" x2="50%" y2="100%" id="linearGradient-5">
            <stop stop-color="#785FC0" offset="0%"></stop>
            <stop stop-color="#43318C" offset="100%"></stop>
        </linearGradient>
    </defs>
    <g id="Dapp" stroke="none" stroke-width="1" fill="none" fill-rule="evenodd">
        <g id="Market" transform="translate(-290.000000, -639.000000)">
            <g id="编组-4备份-2" transform="translate(0.000000, 559.000000)">
                <g id="team_icon_03" transform="translate(290.000000, 80.000000)">
                    <g id="handout" fill-rule="nonzero">
                        <path d="M20.6969895,23.5798429 L11.2729058,23.5798429 C10.8376963,23.5798429 10.4875654,23.229712 10.4875654,22.7945026 C10.4875654,22.3592932 10.8376963,22.0091623 11.2729058,22.0091623 L19.7905759,22.0091623 C19.6269634,21.4659686 19.296466,20.9293194 18.8350785,20.4679319 C18.151178,19.7840314 17.3036649,19.3913613 16.5085079,19.3913613 L12.3200262,19.3913613 C12.0582461,19.3913613 11.8128272,19.2604712 11.6688482,19.0445026 C10.6020942,17.4509162 8.18062827,16.25 6.03730366,16.25 L4.99018325,16.25 C4.55497382,16.25 4.20484293,15.8998691 4.20484293,15.4646597 C4.20484293,15.0294503 4.55497382,14.6793194 4.99018325,14.6793194 L6.03730366,14.6793194 C8.54712042,14.6793194 11.2794503,15.9816754 12.7192408,17.8206806 L16.5085079,17.8206806 C17.7159686,17.8206806 18.9692408,18.3802356 19.947644,19.3553665 C20.9227749,20.3304974 21.4823298,21.5837696 21.4823298,22.7945026 C21.4823298,23.0039267 21.4005236,23.203534 21.2532723,23.3507853 C21.1060209,23.4980366 20.9064136,23.5798429 20.6969895,23.5798429 L20.6969895,23.5798429 Z" id="路径" fill="url(#linearGradient-1)"></path>
                        <path d="M14.5026178,29.9934555 C13.6910995,29.9934555 12.8795812,29.8069372 12.1400524,29.4371728 C12.1400524,29.4371728 12.1367801,29.4371728 12.1367801,29.4339005 L4.63350785,25.625 C4.2473822,25.4286649 4.09358639,24.9574607 4.28992147,24.5680628 C4.48625654,24.1819372 4.96073298,24.0281414 5.34685864,24.2244764 L12.8435864,28.0301047 C13.789267,28.5045812 14.895288,28.5503927 15.8802356,28.1577225 L30.0490838,22.4051047 C29.6400524,21.9862565 28.776178,21.4888743 26.9829843,21.4888743 L20.0294503,21.4888743 C19.5942408,21.4888743 19.2441099,21.1387435 19.2441099,20.703534 C19.2441099,20.2683246 19.5942408,19.9181937 20.0294503,19.9181937 L26.979712,19.9181937 C28.7565445,19.9181937 30.117801,20.3403141 31.0274869,21.171466 C31.757199,21.8390052 31.914267,22.5229058 31.940445,22.6537958 C32.0091623,23.020288 31.809555,23.3867801 31.4626963,23.5274869 L16.4692408,29.6138743 L16.4659686,29.6138743 C15.8344241,29.8691099 15.1668848,29.9934555 14.5026178,29.9934555 Z" id="路径" fill="url(#linearGradient-2)"></path>
                        <path d="M24.8854712,16.25 C22.1433246,16.25 19.9116492,14.0183246 19.9116492,11.276178 C19.9116492,8.53403141 22.1433246,6.30235602 24.8854712,6.30235602 C27.6276178,6.30235602 29.8592932,8.53403141 29.8592932,11.276178 C29.8592932,14.0215969 27.6276178,16.25 24.8854712,16.25 Z M24.8854712,7.87303665 C23.0104712,7.87303665 21.4823298,9.40117801 21.4823298,11.276178 C21.4823298,13.151178 23.0104712,14.6793194 24.8854712,14.6793194 C26.7604712,14.6793194 28.2886126,13.151178 28.2886126,11.276178 C28.2886126,9.40117801 26.7604712,7.87303665 24.8854712,7.87303665 Z" id="形状" fill="url(#linearGradient-3)"></path>
                        <path d="M4.99018325,27.7683246 L0.801701571,27.7683246 C0.366492147,27.7683246 0.0163612565,27.4181937 0.0163612565,26.9829843 L0.0163612565,13.3704188 C0.0163612565,12.9352094 0.366492147,12.5850785 0.801701571,12.5850785 L4.99018325,12.5850785 C5.42539267,12.5850785 5.77552356,12.9352094 5.77552356,13.3704188 L5.77552356,26.9829843 C5.77552356,27.4181937 5.42539267,27.7683246 4.99018325,27.7683246 Z M1.58704188,26.197644 L4.20484293,26.197644 L4.20484293,14.1557592 L1.58704188,14.1557592 L1.58704188,26.197644 Z" id="形状" fill="url(#linearGradient-4)"></path>
                        <path d="M12.3200262,9.96727749 C9.57787958,9.96727749 7.34620419,7.73560209 7.34620419,4.9934555 C7.34620419,2.2513089 9.57787958,0.0196335079 12.3200262,0.0196335079 C15.0621728,0.0196335079 17.2938482,2.2513089 17.2938482,4.9934555 C17.2938482,7.73887435 15.0621728,9.96727749 12.3200262,9.96727749 Z M12.3200262,1.59031414 C10.4450262,1.59031414 8.91688482,3.1184555 8.91688482,4.9934555 C8.91688482,6.8684555 10.4450262,8.39659686 12.3200262,8.39659686 C14.1950262,8.39659686 15.7231675,6.8684555 15.7231675,4.9934555 C15.7231675,3.1184555 14.1950262,1.59031414 12.3200262,1.59031414 Z" id="形状" fill="url(#linearGradient-3)"></path>
                        <path d="M13.3671466,5.77879581 L11.2729058,5.77879581 C10.8376963,5.77879581 10.4875654,5.42866492 10.4875654,4.9934555 C10.4875654,4.55824607 10.8376963,4.20811518 11.2729058,4.20811518 L13.3671466,4.20811518 C13.802356,4.20811518 14.1524869,4.55824607 14.1524869,4.9934555 C14.1524869,5.42866492 13.802356,5.77879581 13.3671466,5.77879581 Z M25.9325916,12.0615183 L23.8383508,12.0615183 C23.4031414,12.0615183 23.0530105,11.7113874 23.0530105,11.276178 C23.0530105,10.8409686 23.4031414,10.4908377 23.8383508,10.4908377 L25.9325916,10.4908377 C26.367801,10.4908377 26.7179319,10.8409686 26.7179319,11.276178 C26.7179319,11.7113874 26.367801,12.0615183 25.9325916,12.0615183 Z" id="形状" fill="url(#linearGradient-5)"></path>
                    </g>
                    <polygon id="路径" fill="#B2A5EA" points="1.58704188 24.197644 4.20484293 24.197644 4.20484293 14.1557592 1.58704188 14.1557592"></polygon>
                </g>
            </g>
        </g>
    </g>
</svg>