<?xml version="1.0" encoding="UTF-8"?>
<svg width="24px" height="24px" viewBox="0 0 24 24" version="1.1" xmlns="http://www.w3.org/2000/svg" xmlns:xlink="http://www.w3.org/1999/xlink">
    <title>Twitter_icon</title>
    <g id="Dapp" stroke="none" stroke-width="1" fill="none" fill-rule="evenodd">
        <g id="Menu" transform="translate(-32.000000, -488.000000)" fill="#FFFFFF" fill-rule="nonzero">
            <g id="twitter" transform="translate(32.000000, 488.000000)">
                <path d="M12.8123197,0.024579359 C18.9016377,0.024579359 23.883807,5.00674863 23.883807,11.0960666 L23.883807,12.8258911 C23.883807,18.915209 18.9016104,23.8973783 12.8123197,23.8973783 L11.0824953,23.8973783 C4.99317728,23.8973783 0.0110080078,18.915209 0.0110080078,12.8258911 L0.0110080078,11.0960666 C0.0110080078,5.00674863 4.99317728,0.024579359 11.0824953,0.024579359 L12.8123197,0.024579359 Z M14.3704816,6.83425302 C12.9269614,6.83425302 11.7567652,8.00461284 11.7567652,9.44851478 C11.7567652,9.65344637 11.779699,9.85308766 11.8245031,10.0443844 C9.65201002,9.93538751 7.72625297,8.89450411 6.43697011,7.31289034 C6.21210439,7.69902891 6.0831461,8.14802408 6.0831461,8.62720677 C6.0831461,9.53405974 6.5446035,10.3343156 7.24587041,10.8030813 C6.81743659,10.789501 6.41433627,10.6719414 6.06209393,10.4761179 C6.06182123,10.4870257 6.06182123,10.4979609 6.06182123,10.5091415 C6.06182123,11.7757632 6.96262034,12.8323812 8.15839549,13.0725725 C7.93909277,13.1322931 7.70814591,13.1644168 7.46989078,13.1644168 C7.30125511,13.1644168 7.13763707,13.1480004 6.97808224,13.1173221 C7.3105541,14.1560785 8.27581872,14.9118847 9.41964513,14.9329369 C8.52522712,15.6343129 7.39822609,16.0521934 6.17343598,16.0521934 C5.96239597,16.0521934 5.75432836,16.039922 5.54999672,16.0156792 C6.70680352,16.757278 8.08056784,17.1903477 9.55683886,17.1903477 C14.3643186,17.1903477 16.9934696,13.206603 16.9934696,9.75175355 C16.9934696,9.63822989 16.9910699,9.52552433 16.9860523,9.41330963 C17.4968405,9.04481455 17.9398909,8.58458427 18.2902244,8.0601339 C17.8216223,8.26801063 17.3177605,8.40872213 16.7888652,8.47185144 C17.3286957,8.14832405 17.7433038,7.6358996 17.9382547,7.02533163 C17.4331385,7.32513441 16.8738921,7.54261007 16.2784042,7.65978785 C15.8018394,7.15156294 15.122361,6.83425302 14.3704816,6.83425302 Z" id="形状结合"></path>
            </g>
        </g>
    </g>
</svg>