<?xml version="1.0" encoding="UTF-8"?>
<svg width="32px" height="32px" viewBox="0 0 32 32" version="1.1" xmlns="http://www.w3.org/2000/svg" xmlns:xlink="http://www.w3.org/1999/xlink">
    <title>uni</title>
    <defs>
        <linearGradient x1="100%" y1="-2.98022917e-06%" x2="2.98022917e-06%" y2="100%" id="linearGradient-1">
            <stop stop-color="#FFE8F1" offset="0%"></stop>
            <stop stop-color="#FDFEFE" offset="100%"></stop>
        </linearGradient>
    </defs>
    <g id="Dapp" stroke="none" stroke-width="1" fill="none" fill-rule="evenodd">
        <g id="Coin" transform="translate(-231.000000, -148.000000)" fill-rule="nonzero">
            <g id="uni" transform="translate(231.000000, 148.000000)">
                <circle id="椭圆形" fill="url(#linearGradient-1)" cx="16" cy="16" r="16"></circle>
                <path d="M14.2794667,14.7453 C14.3721,14.6221 14.4396667,14.4817667 14.4783667,14.3323667 C14.5120038,14.1879333 14.5205,14.0387667 14.5034667,13.8914333 L14.4909,13.7827667 L14.4337,13.7126667 C14.1813667,13.4125667 13.9291,13.1296667 13.6768,12.8468333 L13.6669333,12.8357667 C13.5735667,12.7311 13.4802333,12.6264667 13.3869,12.5208667 L12.3352,11.3473 L10.227,9.00583333 L6,4.33333333 L9.97293333,9.22523333 L11.9535,11.6747 L12.9402667,12.9015333 C13.0094333,12.9884 13.0792,13.0756667 13.1491,13.1630667 L13.1683333,13.1871 L13.1686667,13.1875333 C13.3575,13.4236333 13.5472333,13.6608667 13.7295667,13.8949 C13.7762667,13.9555333 13.8007333,14.0304667 13.7988333,14.1071 C13.7969333,14.1837333 13.7687667,14.2573667 13.7190667,14.3155667 C13.6721,14.3699333 13.6137333,14.4132 13.5482,14.4424 C13.4826333,14.4715333 13.4115333,14.4858667 13.3398667,14.4843333 C13.2682333,14.4828 13.1977667,14.4654 13.1335333,14.4334667 C13.0693,14.4015 13.0128333,14.3557333 12.9681667,14.2994333 L9.04686667,9.43836667 L11.7769333,14.3709333 C11.8240333,14.4559333 11.8414,14.5543667 11.8262,14.6504333 C11.8110333,14.7465667 11.7641667,14.8347333 11.6931667,14.9009 C11.557,15.0255667 11.4432333,15.1728333 11.3568333,15.3362667 C11.2302,15.5854667 11.1439667,15.8533667 11.1013667,16.1298667 C11.0727667,16.2899 11.0544667,16.4505667 11.0376333,16.5981 L11.0376333,16.5982333 C11.0282,16.6807 11.0192667,16.7590333 11.0092667,16.8309 C10.8906667,17.6581333 10.3547,18.4930667 9.84383333,19.1303333 C9.7837,19.2054 9.7218,19.2805 9.65953333,19.3561 C9.2776,19.8196667 8.88093333,20.3012 8.7747,20.9039667 C8.65746667,21.5699667 8.79006667,22.2731333 9.0762,22.8809333 C9.1845,23.1136333 9.3232,23.3235333 9.4626,23.5344333 L9.4627,23.5346333 L9.46526667,23.5385 C9.5127,23.6102667 9.5602,23.6821667 9.60656667,23.7551333 L9.609,23.7593 C9.64963333,23.8289667 10.0155667,24.4561333 9.8494,24.4814 C11.562,24.2108333 12.7804667,23.4361667 12.9277,22.6979667 C13.1076333,21.7868667 12.5614333,21.4252333 12.0660333,21.0972667 C11.8890333,20.9800667 11.7185,20.8671667 11.5899,20.7350333 C11.3191,20.4588333 11.1153333,20.1910333 11.0721,19.7914333 C11.0168,19.2728333 11.2093,18.8856 11.4223333,18.457 L11.4224667,18.4567333 L11.4228,18.4560667 C11.4624667,18.3762333 11.5028333,18.2950333 11.5424333,18.2112667 C11.7368,17.8116 11.8639333,17.3823667 11.9186,16.9409667 C11.9279333,16.8327 11.9341,16.7322333 11.9399333,16.6369 L11.9399333,16.6366667 L11.9399667,16.6361 C11.9481,16.5034333 11.9556333,16.3807667 11.9702333,16.2609333 C11.9794667,16.1813667 11.9936667,16.1025 12.0128,16.0247 C12.0545667,15.8684 12.1450667,15.7296 12.271,15.6287 C12.3969667,15.5277667 12.5517667,15.4700333 12.7127667,15.4638667 L12.7214,15.4632 C12.7738333,15.4592333 12.828,15.4550667 12.8802667,15.4484333 C13.1344667,15.4208667 13.3830667,15.3551667 13.6179,15.2535333 C13.8789667,15.1453 14.1071,14.9700333 14.2794667,14.7453 Z" id="路径" fill="#FF007A"></path>
                <path d="M24.5612667,15.9874 L24.5571,15.9810333 C24.4932333,15.8618667 24.4204333,15.7477667 24.3393333,15.6396667 C24.1008,15.3150333 23.7586667,15.0824333 23.37,14.9806667 C23.1113333,14.9135667 22.8467667,14.8718 22.5800333,14.8558667 C22.3879,14.8419 22.1927333,14.8322333 21.9959667,14.8224667 L21.9884,14.8221 L21.9788333,14.8216333 C21.9047333,14.8179333 21.8304,14.8142667 21.7558333,14.8103333 C21.1975667,14.7794667 20.626,14.7219667 20.0677,14.5621667 C19.9281333,14.5221667 19.7886,14.4787 19.6539,14.4261333 C19.5841,14.4009 19.5191667,14.3735667 19.4501333,14.3441 C19.3810333,14.3147 19.3105333,14.281 19.2407667,14.2452667 C18.9782333,14.1008333 18.7350667,13.9234333 18.5170667,13.7174 C18.1210667,13.3473667 17.8031333,12.9314 17.4909,12.5229 L17.4907667,12.5226667 C17.4641333,12.4878333 17.4375667,12.4530667 17.4109667,12.4183333 C17.0918667,11.9749667 16.7494333,11.5490667 16.3851,11.1424333 C16.0256,10.7440667 15.6007333,10.4107 15.1289333,10.1567667 C14.6404,9.90956667 14.1097667,9.75736667 13.565,9.70806667 C14.1301667,9.64643333 14.7018333,9.7165 15.2357,9.9128 C15.7744,10.1229 16.2668333,10.437 16.6851667,10.8374667 C16.9583333,11.0948 17.2147,11.3694667 17.4528,11.6598 C19.2254,11.3093 20.663,11.6205667 21.7677333,12.2248333 L21.7928333,12.2375 C22.1444667,12.4290667 22.4739667,12.6589667 22.7754333,12.9231 C22.8236,12.9651667 22.8710667,13.0072333 22.915,13.05 C23.1503,13.2671667 23.3693333,13.5014667 23.5703333,13.7510333 L23.5856333,13.7713667 C24.2381667,14.6014 24.5605667,15.4643667 24.5612667,15.9874 Z" id="路径" fill="#FF007A"></path>
                <path d="M14.9907333,17.1378667 C15.4646,17.0923333 16.4744,16.8448667 16.0228667,16.0463333 C15.9257667,15.8839333 15.7849667,15.7522667 15.6167,15.6666 C15.4484333,15.5809 15.2595333,15.5446667 15.0717,15.5619333 C14.8810667,15.5825 14.7013333,15.6614667 14.5568667,15.7881 C14.4124333,15.9147667 14.3102667,16.0830333 14.2642667,16.27 C14.124,16.7922667 14.2726667,17.208 14.9907333,17.1378667 Z" id="路径" fill="#FF007A"></path>
                <path d="M22.2353667,18.2153 L22.2355333,18.2153667 C23.8096333,18.857 25.3202333,19.4727667 25.2573,20.9721 C25.9551667,20.0607 26.2552667,17.5846333 24.2007333,16.3101 C23.3300667,15.7696333 22.3339333,15.6268667 21.4056333,15.4938333 L21.4055667,15.4938333 C20.3821667,15.3472 19.4412,15.2123333 18.8418333,14.5694333 C18.5622,16.7179667 20.4400667,17.4834667 22.2353667,18.2153 Z" id="路径" fill="#FF007A"></path>
                <path d="M22.8326333,12.9714333 C22.8611,12.9971 22.8896667,13.0228667 22.9177,13.0489333 C22.8853333,13.0213333 22.8526333,12.991 22.8198333,12.9605667 C22.8059333,12.9476333 22.7920333,12.9347667 22.7781,12.9220333 C22.7938,12.9364 22.8097,12.9507333 22.8256333,12.9651 L22.8326333,12.9714333 Z" id="路径" fill="#FF007A"></path>
                <path d="M13.6551333,10.2284667 C14.1073333,10.2944 14.5686333,10.4752667 14.8659,10.8201667 C15.1632,11.1650667 15.2727667,11.6137667 15.3586333,12.0407 C15.3702667,12.0959333 15.3815,12.1513667 15.3927333,12.2068 L15.3927667,12.2068667 C15.4489,12.4835667 15.5052,12.7611333 15.6133333,13.0221667 C15.6543,13.1218 15.7077,13.2134 15.7612,13.3051667 L15.7613,13.3053333 L15.7613333,13.3053667 C15.7898333,13.3542667 15.8183667,13.4031333 15.8450333,13.4533 C15.8712333,13.5028 15.9064333,13.5503 15.9418,13.598 L15.9423,13.5986667 C15.9924,13.6662667 16.0429,13.7344 16.0690333,13.8094333 C16.077,13.8278667 16.08,13.8480667 16.0776667,13.868 C16.0753333,13.8879667 16.0677667,13.9069667 16.0557667,13.923 C15.8980667,14.0982667 15.4723667,13.9034 15.3118333,13.8248667 C15.0343667,13.6867 14.7858333,13.4963333 14.5798,13.2640333 C13.9356667,12.5454667 13.6028,11.5114 13.6230333,10.5699 C13.6274667,10.4555667 13.6382,10.3416333 13.6551333,10.2284667 Z" id="路径" fill="#FF007A"></path>
                <path d="M22.2399667,21.8010333 C21.5005667,20.7155333 20.7568333,19.6236333 21.2179667,18.3308667 C21.5402,18.5536333 21.9152667,18.7565333 22.3019,18.9656667 L22.3019333,18.9656667 C23.2985,19.5047333 24.3721,20.0854667 24.8175667,21.1567667 C25.5245333,22.8505 24.7157,24.9852 23.0122,25.6918333 C23.8887667,24.2216333 23.0671667,23.0154333 22.2400667,21.8011667 L22.2399667,21.8010333 Z" id="路径" fill="#FF007A"></path>
                <path d="M15.3573,21.9129667 C15.6235333,21.7113667 15.9146333,21.5452333 16.2233333,21.4187333 C16.5356667,21.2931333 16.8597,21.1992 17.1905667,21.1383 C17.3955667,21.0991333 17.5999333,21.0692 17.8005667,21.0398 L17.8027333,21.0394667 L17.8028,21.0394667 C18.2442,20.9748333 18.668,20.9127667 19.0427333,20.7611667 C19.3124,20.6554 19.5604667,20.5009333 19.7748,20.3054667 C19.9822333,20.1118333 20.1410333,19.8716 20.2381667,19.6044333 C20.3377,19.3224667 20.3780667,19.0229333 20.3568,18.7246 C20.3321333,18.4041 20.2599667,18.0891333 20.1425667,17.7901 C20.3858,18.0442333 20.5629333,18.3547667 20.6582667,18.6941 C20.7535667,19.0334 20.7641333,19.3911 20.689,19.7355 C20.6036,20.1001 20.4192667,20.4337667 20.1565333,20.6994333 C19.8964,20.9568333 19.5827667,21.1532 19.2381333,21.2743 C18.9092333,21.3901667 18.5663,21.4609333 18.2185667,21.4846 C18.0065667,21.5023667 17.799,21.5119667 17.5945667,21.5214333 L17.5941333,21.5214667 L17.5939,21.5214667 C17.4755333,21.5269333 17.3581667,21.5323667 17.2415333,21.5393 C16.5981333,21.5664333 15.9626667,21.6924333 15.3573,21.9129667 Z" id="路径" fill="#FF007A"></path>
                <path d="M21.5460667,26.7776667 L21.5730667,26.7558333 L21.5953333,26.7379667 L21.6083,26.7275667 C21.3815333,26.8311333 21.1452333,26.9121333 20.9027667,26.9694 C20.7857,26.9949333 20.6670333,27.0120333 20.5475333,27.0206 L20.3738,27.0164 C20.3176,27.0113 20.2617,27.0033333 20.2063,26.9925667 C19.3347333,26.8396667 19.2172333,25.9620667 19.1155,25.2015667 C19.0931667,25.0347333 19.0715667,24.8734667 19.0429333,24.7268 C18.9895333,24.4540667 18.9062333,24.1881667 18.7945,23.9339 C18.6708,23.6623 18.4959,23.4173333 18.2795,23.2125333 C18.0608333,23.0172667 17.8100667,22.8616667 17.5383333,22.7526 C17.2790667,22.6466 17.0068,22.5758667 16.7288333,22.5423 C16.1888333,22.4761667 15.6411333,22.5183333 15.1174667,22.6664 C14.6123667,22.8084 14.1281,23.0165667 13.6770667,23.2854333 C13.2378,23.5517 12.8263,23.8617333 12.4488,24.2108333 C12.4780667,24.1835667 12.6439333,24.2125 12.7459,24.2303 L12.7462,24.2303667 C12.7778667,24.2359 12.8033667,24.2403333 12.8166,24.2416333 C12.9387333,24.2570667 13.0608667,24.2753333 13.1815667,24.3005333 C13.4216333,24.3462667 13.6557667,24.4192 13.8794333,24.5178667 C14.2038333,24.6761333 14.4974,24.8915 14.7462,25.1537333 C14.7984667,25.2053333 14.8484667,25.259 14.8976333,25.3134 C15.0097,25.4617333 15.1370667,25.5975667 15.2775,25.7188 C15.3111667,25.7498333 15.3458667,25.7798 15.3819667,25.8085 C15.5852,25.9725333 15.8286667,26.0786333 16.0868,26.1155667 C16.2706333,26.1383667 16.4572667,26.1189333 16.6325333,26.0587667 C16.7189667,26.0297333 16.8016667,25.9904 16.8788667,25.9417 C16.9567667,25.8924 17.0272333,25.8322 17.0882333,25.7629333 C17.203,25.6282667 17.2796667,25.4650667 17.3101667,25.2904 C17.3416,25.1228 17.3259,24.9497 17.2648,24.7905667 C17.2059,24.6359333 17.0895333,24.5103 16.9403,24.4400333 C17.0686667,24.5273333 17.1582667,24.6613333 17.1901333,24.8137333 C17.2197,24.9595333 17.2083333,25.1107333 17.1573333,25.2504667 C17.1110333,25.3844333 17.0292333,25.5032333 16.9207333,25.594 C16.8690333,25.6368667 16.8114667,25.6720333 16.7497667,25.6984333 C16.6878667,25.7237 16.6232333,25.7416 16.5571667,25.7517 C15.7804333,25.8828 15.1712,24.9567 15.5955,24.2956333 C15.7567,24.0425333 16.0288667,23.9114667 16.3191667,23.875 C17.031,23.7880667 17.6388333,24.2570667 17.9940667,24.8396333 C18.1469667,25.0903 18.2605,25.3617 18.3739667,25.6330333 C18.4449,25.8026 18.5158,25.9721333 18.5963,26.1366 C18.9034,26.764 19.4281667,27.3192333 20.1707,27.3332667 C20.4448,27.3355333 20.7157,27.2738667 20.9620667,27.1531333 C21.0804,27.0982 21.1945,27.0344667 21.3033333,26.9624 C21.3887,26.9048333 21.4680333,26.8407333 21.5460667,26.7776667 Z" id="路径" fill="#FF007A"></path>
            </g>
        </g>
    </g>
</svg>