<?xml version="1.0" encoding="UTF-8"?>
<svg width="32px" height="32px" viewBox="0 0 32 32" version="1.1" xmlns="http://www.w3.org/2000/svg" xmlns:xlink="http://www.w3.org/1999/xlink">
    <title>USDT_coin</title>
    <g id="Dapp" stroke="none" stroke-width="1" fill="none" fill-rule="evenodd">
        <g id="Mining_lp" transform="translate(-40.000000, -408.000000)" fill-rule="nonzero">
            <g id="Swap备份-2" transform="translate(0.000000, 384.000000)">
                <g id="USDT_coin" transform="translate(40.000000, 24.000000)">
                    <path d="M31.8465025,15.9319279 C31.8465025,24.7246045 24.7187811,31.8523259 15.9261045,31.8523259 C7.13342784,31.8523259 0.00570646875,24.7246045 0.00570646875,15.9319279 C0.00570646875,7.13925128 7.13342787,0.0115298437 15.9261045,0.0115298437 C24.7187811,0.0115298437 31.8465025,7.13925125 31.8465025,15.9319279" id="路径" fill="#1BA27A"></path>
                    <polygon id="路径" fill="#FFFFFF" points="23.3978657 8.03954975 8.32268159 8.03954975 8.32268159 11.6789527 14.0406517 11.6789527 14.0406517 17.0282065 17.6798955 17.0282065 17.6798955 11.6789527 23.3978657 11.6789527"></polygon>
                    <path d="M7.33020397,15.9258781 C7.33020397,15.002495 11.164791,14.2537587 15.8949005,14.2537587 C20.6248508,14.2537587 24.4594378,15.002495 24.4594378,15.9258781 C24.4594378,16.8494204 20.6248508,17.5979975 15.8949005,17.5979975 C11.1647911,17.5979975 7.33020397,16.8494204 7.33020397,15.9258781 Z M15.8949005,14.0483856 C10.5836965,14.0483856 6.27802487,15.0137985 6.27802487,16.2046443 C6.27802487,17.2531617 9.61669153,18.1268731 14.0406517,18.3206244 L14.0406517,25.9996692 L17.6798955,25.9996692 L17.6798955,18.3236493 C22.1380846,18.1359478 25.5116169,17.2587338 25.5116169,16.2046443 C25.5116169,15.0137985 21.2061045,14.0483856 15.8949005,14.0483856 Z" id="形状" fill="#FFFFFF"></path>
                </g>
            </g>
        </g>
    </g>
</svg>