<?xml version="1.0" encoding="UTF-8"?>
<svg width="24px" height="24px" viewBox="0 0 24 24" version="1.1" xmlns="http://www.w3.org/2000/svg" xmlns:xlink="http://www.w3.org/1999/xlink">
    <title>Label1_icon</title>
    <g id="Dapp_CN" stroke="none" stroke-width="1" fill="none" fill-rule="evenodd">
        <g id="Menu" transform="translate(-32.000000, -256.000000)" fill="#FFFFFF" fill-rule="nonzero">
            <g id="Label1备份" transform="translate(32.000000, 256.000000)">
                <path d="M17.1610695,1 C19.6682996,1 21.7094965,3.01331558 21.7094965,5.48941411 L21.709,6.951 L21.9233902,6.95186418 C23.0679337,6.95186418 24,7.87043941 24,9.00153129 L24,13.9215712 C23.9985835,15.0498668 23.0679337,15.9698402 21.9233902,15.9698402 L21.709,15.969 L21.7094965,17.511984 C21.7094965,19.9866844 19.6682996,22 17.1610695,22 L4.54842708,22 C2.04119695,22 1.42108547e-14,19.9866844 1.42108547e-14,17.5105859 L1.42108547e-14,5.48941411 C1.42108547e-14,3.01471372 2.03978044,1 4.54842708,1 L17.1610695,1 Z M17.1610695,2.67776298 L4.54842708,2.67776298 C2.97751284,2.67776298 1.69981703,3.93888149 1.69981703,5.48941411 L1.69981703,17.511984 C1.69981703,19.0625166 2.97751284,20.3236352 4.54842708,20.3236352 L17.1610695,20.3236352 C18.7319837,20.3236352 20.0096795,19.0625166 20.0096795,17.511984 L20.009,15.969 L14.5943457,15.9698402 C12.0757835,15.9698402 10.0260875,13.9467377 10.0260875,11.4608522 C10.0260875,8.97496671 12.0757835,6.95186418 14.5943457,6.95186418 L20.009,6.951 L20.0096795,5.48941411 C20.0096795,3.93888149 18.7319837,2.67776298 17.1610695,2.67776298 Z M21.9219737,8.62822903 L14.5929292,8.62822903 L14.5929292,8.62962716 C13.0106829,8.62962716 11.724488,9.89913449 11.724488,11.4608522 C11.724488,13.0225699 13.0106829,14.2920772 14.5929292,14.2920772 L21.9219737,14.2920772 C22.1287847,14.2920772 22.2987665,14.1256991 22.2987665,13.9201731 L22.2987665,9.00013316 C22.2987665,8.79600533 22.1302013,8.62822903 21.9219737,8.62822903 Z M14.8422357,10.3549268 C15.4649618,10.3549268 15.969781,10.8531963 15.969781,11.4678429 C15.969781,11.8654495 15.7548721,12.2328532 15.4060084,12.4316565 C15.0571447,12.6304599 14.6273268,12.6304599 14.2784631,12.4316565 C13.9295993,12.2328532 13.7146904,11.8654495 13.7146904,11.4678429 C13.7146904,10.8531963 14.2195097,10.3549268 14.8422357,10.3549268 Z" id="形状结合"></path>
            </g>
        </g>
    </g>
</svg>