<?xml version="1.0" encoding="UTF-8"?>
<svg width="16px" height="14px" viewBox="0 0 16 14" version="1.1" xmlns="http://www.w3.org/2000/svg" xmlns:xlink="http://www.w3.org/1999/xlink">
    <title>warning_icon</title>
    <g id="Dapp" stroke="none" stroke-width="1" fill="none" fill-rule="evenodd">
        <g id="Menu" transform="translate(-194.000000, -262.000000)" fill="#FFD800" fill-rule="nonzero">
            <g id="Label1备份" transform="translate(32.000000, 256.000000)">
                <path d="M177.830514,18.3338632 L177.830514,18.3315903 L170.989678,6.54890408 L170.988535,6.54890408 C170.902824,6.2352446 170.511985,6 170.042292,6 C169.56917,6 169.179473,6.24092684 169.097191,6.55799565 L162.095219,18.6168386 L162.100934,18.6247937 C161.940941,18.7827599 161.971796,19.1577875 162.18893,19.5078133 C162.407205,19.8646578 162.736334,20.0635361 162.948895,19.9817119 L162.956895,19.9942128 L177.129974,19.9942128 L177.137973,19.9760297 C177.374534,20.012396 177.66595,19.8055625 177.847656,19.4373536 C178.060218,19.0134587 178.046504,18.5361508 177.830514,18.3338632 Z M169.050336,10.2537225 C169.050336,9.73209313 169.476603,9.30933472 170.000008,9.30933472 C170.525699,9.30933472 170.949679,9.73209313 170.949679,10.2537225 L170.949679,15.1211265 C170.949679,15.6416194 170.525699,16.0655143 170.000008,16.0655143 C169.476603,16.0655143 169.050336,15.6416194 169.050336,15.1211265 L169.050336,10.2537225 Z M170.000008,18.7498029 C169.429748,18.7498029 168.966911,18.2895418 168.966911,17.7213181 C168.966911,17.1542309 169.429748,16.6962426 170.000008,16.6962426 C170.570268,16.6962426 171.033104,17.1542309 171.033104,17.7213181 C171.033104,18.2884053 170.570268,18.7498029 170.000008,18.7498029 Z" id="warning_icon"></path>
            </g>
        </g>
    </g>
</svg>