<?xml version="1.0" encoding="UTF-8"?>
<svg width="32px" height="32px" viewBox="0 0 32 32" version="1.1" xmlns="http://www.w3.org/2000/svg" xmlns:xlink="http://www.w3.org/1999/xlink">
    <title>xrp</title>
    <g id="Dapp" stroke="none" stroke-width="1" fill="none" fill-rule="evenodd">
        <g id="Coin" transform="translate(-231.000000, -36.000000)">
            <g id="xrp" transform="translate(231.000000, 36.000000)">
                <rect id="矩形" fill="#FFFFFF" x="0" y="0" width="32" height="32" rx="16"></rect>
                <path d="M20.7334844,18.7633255 L28,26 L24.5287656,26 L18.9977969,20.4917689 C17.342125,18.8428821 14.6577813,18.8428821 13.0021094,20.4917689 L7.47122031,26 L4,26 L11.2665156,18.7633255 C13.8807344,16.1598349 18.1192187,16.1598349 20.7334844,18.7633255 Z M7.5154585,6 L13.0017272,11.4637736 C14.6573991,13.1126415 17.3417429,13.1126415 18.9974616,11.4637736 L24.4837585,6 L27.9549929,6 L20.7331022,13.192217 C18.1188366,15.7957547 13.8803522,15.7957547 11.2661335,13.192217 L4.04424288,6 L7.5154585,6 Z" id="形状结合" fill="#23292F" fill-rule="nonzero"></path>
            </g>
        </g>
    </g>
</svg>