<?xml version="1.0" encoding="UTF-8"?>
<svg width="16px" height="16px" viewBox="0 0 16 16" version="1.1" xmlns="http://www.w3.org/2000/svg" xmlns:xlink="http://www.w3.org/1999/xlink">
    <title>yiwen_icon</title>
    <g id="Dapp_CN" stroke="none" stroke-width="1" fill="none" fill-rule="evenodd">
        <g id="Mining_withdrawal" transform="translate(-68.000000, -636.000000)" fill="#333333" fill-rule="nonzero">
            <g id="Swap-Settings" transform="translate(0.000000, 200.000000)">
                <g id="Detail" transform="translate(24.000000, 335.000000)">
                    <path d="M52,117 C47.5817011,117 44,113.418299 44,109 C44,104.581701 47.5817011,101 52,101 C56.4182989,101 60,104.581701 60,109 C60,113.418299 56.4182989,117 52,117 Z M52,102.142897 C48.2129655,102.142897 45.1428966,105.212966 45.1428966,109 C45.1428966,112.787034 48.2129655,115.857195 52,115.857195 C55.7870345,115.857195 58.8571954,112.786943 58.8571954,109 C58.8571954,105.212966 55.7870345,102.142897 52,102.142897 Z M54.0453333,108.83577 C53.8765057,109.007172 53.5732414,109.295908 53.135908,109.702069 C53.0151724,109.816368 52.918069,109.916874 52.8451494,110.00377 C52.7724138,110.090115 52.717977,110.169471 52.6824828,110.241471 C52.6479205,110.31057 52.6202912,110.382923 52.6,110.457471 C52.5805977,110.529471 52.5512644,110.655908 52.512,110.836966 C52.4445057,111.220598 52.2328276,111.412598 51.8773333,111.412598 C51.6925977,111.412598 51.5367356,111.349609 51.4106667,111.224368 C51.2845977,111.099126 51.2213333,110.912276 51.2213333,110.665103 C51.2213333,110.354943 51.2674023,110.086805 51.36,109.85977 C51.4525977,109.632736 51.5752644,109.433471 51.728,109.261701 C51.8808276,109.090391 52.0871724,108.886437 52.3467586,108.650207 C52.5741609,108.44331 52.7387586,108.28754 52.839908,108.182437 C52.9411095,108.077643 53.0272659,107.959302 53.095908,107.830805 C53.1652414,107.701701 53.199908,107.561471 53.199908,107.410207 C53.199908,107.114943 53.094069,106.865839 52.8826667,106.662805 C52.6711724,106.460138 52.398069,106.358437 52.064092,106.358437 C51.6728276,106.358437 51.3848276,106.460874 51.200092,106.665471 C51.0153563,106.870437 50.8587586,107.172138 50.7307586,107.570667 C50.610023,107.987862 50.3806897,108.196138 50.0427586,108.196138 C49.8434943,108.196138 49.6754943,108.123402 49.5387586,107.977563 C49.401931,107.832 49.3333333,107.673931 49.3333333,107.504368 C49.3333333,107.153563 49.441931,106.798529 49.6586667,106.438897 C49.8754023,106.078897 50.192,105.780966 50.608,105.544828 C51.023908,105.308598 51.5093333,105.190529 52.063908,105.190529 C52.5792184,105.190529 53.0346667,105.289195 53.4294253,105.486529 C53.824,105.683862 54.1287356,105.95246 54.344,106.29223 C54.5591724,106.631632 54.6667586,107.000828 54.6667586,107.399264 C54.6667586,107.712828 54.6053333,107.987862 54.4826667,108.224092 C54.36,108.46023 54.214069,108.664 54.0453333,108.83577 L54.0453333,108.83577 Z M51.936,111.916138 C52.16,111.916138 52.3485977,111.99577 52.5013333,112.154299 C52.654069,112.313287 52.7305747,112.50869 52.7305747,112.741057 C52.7305747,112.999356 52.6505747,113.202391 52.4906667,113.350069 C52.3306667,113.497563 52.145931,113.571402 51.936,113.571402 C51.7191724,113.571402 51.5298391,113.498667 51.368,113.352828 C51.206069,113.206897 51.1253333,113.003034 51.1253333,112.741057 C51.1253333,112.508782 51.2034023,112.313287 51.36,112.154299 C51.5165977,111.99577 51.7085977,111.916138 51.936,111.916138 L51.936,111.916138 Z" id="yiwen_icon"></path>
                </g>
            </g>
        </g>
    </g>
</svg>