<svg id="图层_1" data-name="图层 1" xmlns="http://www.w3.org/2000/svg" viewBox="0 0 273.89 277.84"><defs><style>.cls-1{fill:#f7cd11;}.cls-2{fill:#f8d126;}</style></defs><title>wfc</title><path class="cls-1" d="M426.31,388.36a121.16,121.16,0,0,1,6.06,49.12c-2.66,35.19-16.5,65.37-41.93,89.9a135.89,135.89,0,0,1-180,8.12c-53.91-43.6-67.45-120.16-31.7-178.61,18-29.45,43.47-49.63,76.4-60.13a125.12,125.12,0,0,1,60.36-4.3c-43.21-1.86-79.59,12.62-106.88,46.39S174,411.28,185.7,453c17.27,61.56,80.48,99.7,143.12,87.36C394.14,527.51,442.9,461.25,426.31,388.36Z" transform="translate(-158.87 -287.85)"/><path class="cls-1" d="M269.28,312.61c-3.13,5.85-6,10.92-8.61,16.14-8.17,16.45-14.76,33.46-17.17,51.79-1.67,12.66-.57,25.25,2,37.74,2.38,11.46,5.06,22.88,6.43,34.5,1.58,13.5.51,26.76-5.49,39.24a39.27,39.27,0,0,1-14.3,16.34c-1-1.35-.51-2.68-.43-3.87a110.14,110.14,0,0,0-8.46-51.82,212,212,0,0,1-12.74-42.08c-3.44-17.41,1.06-33.09,10.09-47.54,12.3-19.67,28.59-35.8,47-49.79A9.56,9.56,0,0,1,269.28,312.61Z" transform="translate(-158.87 -287.85)"/><path class="cls-1" d="M417.07,433.36a95.87,95.87,0,0,1-7.77,17.77,104.36,104.36,0,0,1-16.65,22.35c-14.1,14.65-31.56,18.22-50.93,16.42-15.88-1.47-31.27-5.53-46.79-8.79a83,83,0,0,0-36.2,0c-.68.16-1.33.63-2.35-.06A40,40,0,0,1,268,466c7.74-6.33,16.77-9.37,26.66-10.28,12.39-1.14,24.31,1.79,36.11,4.63,32.16,7.72,58.67-3.07,82.34-24C414.18,435.37,415,434.08,417.07,433.36Z" transform="translate(-158.87 -287.85)"/><path class="cls-1" d="M313.31,338.54c-2.7,9.11,1.75,17.2,3.25,25.67.9,5.05,1.85,10.1,2.47,15.18,1,8.19-2.47,14.59-8.45,19.91-1.24,1.11-2.23.9-3.46.08a16.61,16.61,0,0,1-5.84-6.66,31.55,31.55,0,0,1-3-20.14C300.67,360.08,306,349,313.31,338.54Z" transform="translate(-158.87 -287.85)"/><path class="cls-1" d="M394.25,356.17c-9.16,14-18.67,27.7-37.08,31-5.51,1-11-.13-16.43-.67-2.48-.25-2-1.76-1.36-3.28,4.66-10.88,13-17.23,24.47-19.42,7.39-1.41,14.91-2.18,22-4.95,2.61-1,5.11-2.35,7.66-3.54Z" transform="translate(-158.87 -287.85)"/><path class="cls-1" d="M290.52,363.67c-1,11.42.94,21.86,2.43,32.37,1.5,10.69-1.7,19.77-10.18,26.83-2.51,2.08-3.78,1.62-5.38-1.05a33.56,33.56,0,0,1-4.65-22C274.19,388.05,281.65,372.86,290.52,363.67Z" transform="translate(-158.87 -287.85)"/><path class="cls-1" d="M332,320.63c.92,4.65,1.69,8.85,2.6,13a45.11,45.11,0,0,0,4.57,12c6,11,4.48,23.16-3.58,32.77-2.19,2.61-3.78,2.44-6,.26-7.14-7.09-9.22-16-8-25.43a104.23,104.23,0,0,1,9.3-30.77A20.15,20.15,0,0,1,332,320.63Z" transform="translate(-158.87 -287.85)"/><path class="cls-1" d="M372.33,390.84c-1.93,1.9-3.82,3.85-5.82,5.68a123.13,123.13,0,0,1-21.11,16c-9.3,5.39-18.75,4.34-28.36,1.05-2.09-.72-2-1.77-1.39-3.49,3.23-8.55,12.31-15,21.51-15.37,9.4-.4,18.93.78,28.12-2.28,2.23-.75,4.49-1.4,6.74-2.09Z" transform="translate(-158.87 -287.85)"/><path class="cls-1" d="M350.9,424.9a55.85,55.85,0,0,1-12.71,8.85c-8.68,4.52-17.34,9.19-27.68,8.32-6.46-.55-12.4-2.21-17.36-6.67-1.75-1.58-1.81-2.67.13-4.16,9.42-7.21,20-10.16,31.61-7.82,8,1.61,16,2.88,24.12,1.49A15.11,15.11,0,0,1,350.9,424.9Z" transform="translate(-158.87 -287.85)"/><path class="cls-1" d="M276.92,506.24c-1.38,6.23-2.56,11.52-3.7,16.82a5.19,5.19,0,0,1-7.3,3.71c-1.12-.49-1-1.51-1.2-2.4-1.52-8-3.06-15.95-4.48-23.94-.18-1-1.86-3.07,1.06-3,1.88.05,4.32-1.15,4.76,2.47.78,6.63,2,13.21,3.17,20.71,1.67-7.18,3.19-13.53,4.6-19.9.44-2,.65-3.49,3.44-3.44s2.73,1.64,3.12,3.36c1.45,6.37,2.91,12.73,4.6,20.09,1.2-7.62,2.43-14.2,3.19-20.84.39-3.41,2.61-2.51,4.41-2.44,2.74.12,1.19,2.13,1,3.18-1.39,8-3,16-4.36,24-.36,2.2-1.48,2.54-3.15,2.23s-4.4,1.41-5.08-2.16C279.89,518.83,278.45,513.07,276.92,506.24Z" transform="translate(-158.87 -287.85)"/><path class="cls-1" d="M316.12,402.31c-7.89,10-17.33,18.46-26.66,27-9.59,8.79-17.41,19-24.89,29.52-.9,1.26-1.66,2.63-2.59,3.87-.6.8-1.13,2-2.55,1.16-1.27-.74-1.27-1.69-.95-3a35.16,35.16,0,0,1,8.77-15.8c9.93-10.89,21.29-20.26,32.34-29.94,5.21-4.56,10.58-8.93,15.88-13.39Z" transform="translate(-158.87 -287.85)"/><path class="cls-1" d="M320.63,512.17c0-7.83,4-13.57,10.58-15.17a11.14,11.14,0,0,1,8.94,1.4c1,.65,3.1,1.17,1.65,3.13-1,1.33-1.58,3-4.1,1.31-3.64-2.49-7.95-.88-9.84,3.15a14.44,14.44,0,0,0-.5,11.17c1.78,5.19,6.64,7,11.11,3.78,1.95-1.4,2.51-.46,3.61.74,1.49,1.62.46,2.48-.75,3.43-6.39,5-16.23,2.18-19.39-5.58A17.79,17.79,0,0,1,320.63,512.17Z" transform="translate(-158.87 -287.85)"/><path class="cls-1" d="M299.08,512.09c0-4.07.06-8.13,0-12.19,0-1.73.27-2.62,2.31-2.56,4.54.14,9.08.12,13.62,0,1.79,0,2.25.66,2.21,2.31s-.15,2.82-2.27,2.67c-1.9-.14-3.85.18-5.73-.07-3.47-.48-4.4.79-4.39,4.27,0,3.28,1,4.24,4.07,3.82,1.4-.2,2.87.07,4.29-.06,2-.19,2.35.79,2.37,2.53,0,1.92-.69,2.43-2.52,2.46-2.58.05-5.9-1.2-7.54.61s-.52,5-.48,7.63c0,2.21-.16,3.43-3,3.43s-3.07-1.14-3-3.39C299.18,519.74,299.08,515.91,299.08,512.09Z" transform="translate(-158.87 -287.85)"/><path class="cls-2" d="M393.72,287.85c.59,2.29-.33,4.15-.92,6-5.12,16.2-13.59,30.77-22.27,45.22-2.89,4.81-6,9.5-9,14.24a23.09,23.09,0,0,1-1.42,2.08c-.93,1.15-2.09,1.73-3.39.65s-1.05-2.22,0-3.43c16.07-19,27.54-40.69,36.28-63.9C393.07,288.44,393.38,288.24,393.72,287.85Z" transform="translate(-158.87 -287.85)"/><path class="cls-2" d="M378.12,293.89c-.16,3.92-1.43,6.89-2.61,9.85-5.95,14.83-14.28,28.36-22.92,41.72-.71,1.09-1.49,2.48-3.09,1.44-1.35-.88-.83-2,.05-3,12.17-14.56,20.87-31.1,27.63-48.73A9.7,9.7,0,0,1,378.12,293.89Z" transform="translate(-158.87 -287.85)"/><path class="cls-2" d="M396.69,307.31c.75.87.12,1.78-.16,2.59-5.82,16.88-15.25,31.84-24.82,46.73-.68,1.06-1.59,2-2.92,1-1.09-.82-.82-1.81,0-2.78,11.84-14.05,20.29-30.05,27.08-47C396,307.53,396.11,307.1,396.69,307.31Z" transform="translate(-158.87 -287.85)"/><path class="cls-2" d="M367,291.83a4.27,4.27,0,0,1,.05,3.8c-4.56,13.67-11.51,26.18-18.73,38.56-.53.9-1.13,2.1-2.46,1.27s-.71-1.83,0-2.75C355.3,320.34,361.79,306.44,367,291.83Z" transform="translate(-158.87 -287.85)"/><path class="cls-2" d="M400,314.08a4.53,4.53,0,0,1,0,3.92c-4.6,13.66-11.48,26.2-18.77,38.54-.56.94-1.18,2-2.49,1.12-1-.7-.69-1.62,0-2.49C388.24,342.76,394.81,328.82,400,314.08Z" transform="translate(-158.87 -287.85)"/><path class="cls-1" d="M315.47,401.71l1.25-1.07c.54.83-.08,1.23-.61,1.67Z" transform="translate(-158.87 -287.85)"/></svg>